%TF.GenerationSoftware,KiCad,Pcbnew,7.0.7*%
%TF.CreationDate,2023-09-15T20:16:18+02:00*%
%TF.ProjectId,DreameBreakout,44726561-6d65-4427-9265-616b6f75742e,rev?*%
%TF.SameCoordinates,Original*%
%TF.FileFunction,Copper,L1,Top*%
%TF.FilePolarity,Positive*%
%FSLAX45Y45*%
G04 Gerber Fmt 4.5, Leading zero omitted, Abs format (unit mm)*
G04 Created by KiCad (PCBNEW 7.0.7) date 2023-09-15 20:16:18*
%MOMM*%
%LPD*%
G01*
G04 APERTURE LIST*
%TA.AperFunction,Profile*%
%ADD10C,0.100000*%
%TD*%
%TA.AperFunction,ComponentPad*%
%ADD11R,1.700000X1.700000*%
%TD*%
%TA.AperFunction,ComponentPad*%
%ADD12O,1.700000X1.700000*%
%TD*%
%TA.AperFunction,ComponentPad*%
%ADD13R,1.428000X1.428000*%
%TD*%
%TA.AperFunction,ComponentPad*%
%ADD14C,1.428000*%
%TD*%
%TA.AperFunction,ComponentPad*%
%ADD15C,3.346000*%
%TD*%
%TA.AperFunction,ComponentPad*%
%ADD16R,1.350000X1.350000*%
%TD*%
%TA.AperFunction,ComponentPad*%
%ADD17O,1.350000X1.350000*%
%TD*%
%TA.AperFunction,SMDPad,CuDef*%
%ADD18R,1.500000X0.450000*%
%TD*%
%TA.AperFunction,ComponentPad*%
%ADD19O,1.100000X2.200000*%
%TD*%
%TA.AperFunction,ComponentPad*%
%ADD20C,1.700000*%
%TD*%
%TA.AperFunction,ViaPad*%
%ADD21C,1.000000*%
%TD*%
%TA.AperFunction,Conductor*%
%ADD22C,0.200000*%
%TD*%
%TA.AperFunction,Conductor*%
%ADD23C,0.300000*%
%TD*%
%TA.AperFunction,Conductor*%
%ADD24C,0.500000*%
%TD*%
G04 APERTURE END LIST*
D10*
X5000000Y-4065500D02*
X6800000Y-4065500D01*
X6800000Y-7332600D01*
X5000000Y-7332600D01*
X5000000Y-4065500D01*
D11*
X5397500Y-6616700D03*
D12*
X5397500Y-6362700D03*
X5651500Y-6616700D03*
X5651500Y-6362700D03*
X5905500Y-6616700D03*
X5905500Y-6362700D03*
X6159500Y-6616700D03*
X6159500Y-6362700D03*
X6413500Y-6616700D03*
X6413500Y-6362700D03*
D13*
X6255500Y-4706900D03*
D14*
X6005500Y-4706900D03*
X5805500Y-4706900D03*
X5555500Y-4706900D03*
D15*
X6562500Y-4406900D03*
X5248500Y-4406900D03*
D16*
X6603900Y-7035800D03*
D17*
X6403900Y-7035800D03*
X6203900Y-7035800D03*
X6003900Y-7035800D03*
X5803900Y-7035800D03*
X5603900Y-7035800D03*
X5403900Y-7035800D03*
X5203900Y-7035800D03*
D18*
X5347200Y-5629100D03*
X5347200Y-5564100D03*
X5347200Y-5499100D03*
X5347200Y-5434100D03*
X5347200Y-5369100D03*
D19*
X5322200Y-5779100D03*
X5322200Y-5219100D03*
X5537200Y-5499100D03*
D11*
X6175800Y-5824100D03*
D20*
X6175800Y-5174100D03*
X6625800Y-5824100D03*
X6625800Y-5174100D03*
D21*
X6625000Y-4775000D03*
X6537790Y-5984410D03*
X6718300Y-6045200D03*
D22*
X5928000Y-5178220D02*
X5928000Y-4784400D01*
X5501992Y-5639100D02*
X5572408Y-5639100D01*
X5622200Y-5484020D02*
X5928000Y-5178220D01*
X5224700Y-5554100D02*
X5234700Y-5564100D01*
X5166000Y-5610020D02*
X5221920Y-5554100D01*
X5452200Y-5564100D02*
X5452200Y-5589308D01*
X5928000Y-4784400D02*
X6005500Y-4706900D01*
X5622200Y-5589308D02*
X5622200Y-5484020D01*
X5347200Y-5564100D02*
X5452200Y-5564100D01*
X5221920Y-5554100D02*
X5224700Y-5554100D01*
X6403900Y-7035800D02*
X6326400Y-6958300D01*
X6257720Y-6848200D02*
X5216320Y-6848200D01*
X5166000Y-6797880D02*
X5166000Y-5610020D01*
X6326400Y-6916880D02*
X6257720Y-6848200D01*
X5572408Y-5639100D02*
X5622200Y-5589308D01*
X5216320Y-6848200D02*
X5166000Y-6797880D01*
X5452200Y-5589308D02*
X5501992Y-5639100D01*
X5234700Y-5564100D02*
X5347200Y-5564100D01*
X6326400Y-6958300D02*
X6326400Y-6916880D01*
X5883000Y-5159580D02*
X5883000Y-4784400D01*
X5572408Y-5359100D02*
X5622200Y-5408892D01*
X6281400Y-6958300D02*
X6281400Y-6935520D01*
X5452200Y-5408892D02*
X5501992Y-5359100D01*
X5347200Y-5499100D02*
X5452200Y-5499100D01*
X5121000Y-6816520D02*
X5121000Y-5591380D01*
X5452200Y-5499100D02*
X5452200Y-5408892D01*
X5883000Y-4784400D02*
X5805500Y-4706900D01*
X5224700Y-5509100D02*
X5234700Y-5499100D01*
X5622200Y-5408892D02*
X5622200Y-5420380D01*
X5121000Y-5591380D02*
X5203280Y-5509100D01*
X5203280Y-5509100D02*
X5224700Y-5509100D01*
X5622200Y-5420380D02*
X5883000Y-5159580D01*
X6239080Y-6893200D02*
X5197680Y-6893200D01*
X5234700Y-5499100D02*
X5347200Y-5499100D01*
X5501992Y-5359100D02*
X5572408Y-5359100D01*
X6281400Y-6935520D02*
X6239080Y-6893200D01*
X5197680Y-6893200D02*
X5121000Y-6816520D01*
X6203900Y-7035800D02*
X6281400Y-6958300D01*
X6625800Y-5824100D02*
X6625800Y-6313035D01*
X6437135Y-6501700D02*
X5512500Y-6501700D01*
X6625800Y-5174100D02*
X6625800Y-5824100D01*
X5512500Y-6501700D02*
X5397500Y-6616700D01*
X6625800Y-6313035D02*
X6437135Y-6501700D01*
D23*
X5486400Y-5727700D02*
X5387800Y-5629100D01*
X5778500Y-5727700D02*
X5486400Y-5727700D01*
X5387800Y-5629100D02*
X5347200Y-5629100D01*
X6413500Y-6362700D02*
X5778500Y-5727700D01*
D22*
X5158300Y-7133300D02*
X5054600Y-7029600D01*
X6159500Y-6616700D02*
X6501400Y-6958600D01*
X6501400Y-7076186D02*
X6444286Y-7133300D01*
X5054600Y-7029600D02*
X5054600Y-5511800D01*
X5132300Y-5434100D02*
X5347200Y-5434100D01*
X5054600Y-5511800D02*
X5132300Y-5434100D01*
X6444286Y-7133300D02*
X5158300Y-7133300D01*
X6501400Y-6958600D02*
X6501400Y-7076186D01*
D24*
X6336110Y-5984410D02*
X6175800Y-5824100D01*
X5322200Y-6287400D02*
X5397500Y-6362700D01*
X6537790Y-5984410D02*
X6336110Y-5984410D01*
X5322200Y-5779100D02*
X5322200Y-6287400D01*
%TA.AperFunction,Conductor*%
G36*
X6794254Y-4067518D02*
G01*
X6798829Y-4072799D01*
X6799950Y-4077950D01*
X6799950Y-7317617D01*
X6797981Y-7324321D01*
X6792701Y-7328896D01*
X6787567Y-7330017D01*
X5012467Y-7332483D01*
X5005761Y-7330523D01*
X5001178Y-7325249D01*
X5000050Y-7320083D01*
X5000050Y-7037070D01*
X5002019Y-7030366D01*
X5007299Y-7025790D01*
X5014215Y-7024796D01*
X5020570Y-7027698D01*
X5024348Y-7033576D01*
X5024837Y-7036497D01*
X5024842Y-7036599D01*
X5024842Y-7036600D01*
X5025121Y-7037233D01*
X5025966Y-7039962D01*
X5026094Y-7040643D01*
X5026094Y-7040643D01*
X5027726Y-7043279D01*
X5028126Y-7044039D01*
X5029379Y-7046876D01*
X5029380Y-7046877D01*
X5029380Y-7046877D01*
X5029869Y-7047366D01*
X5031644Y-7049606D01*
X5032008Y-7050195D01*
X5032008Y-7050195D01*
X5034483Y-7052064D01*
X5035131Y-7052628D01*
X5132608Y-7150105D01*
X5133172Y-7150753D01*
X5133904Y-7151723D01*
X5133904Y-7151723D01*
X5135386Y-7153074D01*
X5137438Y-7154944D01*
X5137642Y-7155139D01*
X5139020Y-7156517D01*
X5139241Y-7156669D01*
X5139914Y-7157202D01*
X5140825Y-7158032D01*
X5142206Y-7159291D01*
X5142207Y-7159291D01*
X5142207Y-7159292D01*
X5142853Y-7159542D01*
X5145381Y-7160874D01*
X5145952Y-7161266D01*
X5148970Y-7161975D01*
X5149790Y-7162229D01*
X5152683Y-7163350D01*
X5153375Y-7163350D01*
X5156214Y-7163679D01*
X5156888Y-7163838D01*
X5159959Y-7163409D01*
X5160817Y-7163350D01*
X6438002Y-7163350D01*
X6438859Y-7163409D01*
X6440062Y-7163577D01*
X6440062Y-7163577D01*
X6440062Y-7163577D01*
X6444378Y-7163378D01*
X6444837Y-7163357D01*
X6445123Y-7163350D01*
X6447070Y-7163350D01*
X6447070Y-7163350D01*
X6447333Y-7163301D01*
X6448188Y-7163202D01*
X6448310Y-7163196D01*
X6451285Y-7163058D01*
X6451918Y-7162779D01*
X6454649Y-7161933D01*
X6455329Y-7161806D01*
X6457966Y-7160174D01*
X6458725Y-7159773D01*
X6461562Y-7158521D01*
X6462052Y-7158031D01*
X6464293Y-7156256D01*
X6464881Y-7155892D01*
X6466751Y-7153416D01*
X6467312Y-7152770D01*
X6503403Y-7116679D01*
X6509536Y-7113331D01*
X6516505Y-7113829D01*
X6520873Y-7117100D01*
X6521081Y-7116892D01*
X6521945Y-7117755D01*
X6528577Y-7122187D01*
X6528577Y-7122187D01*
X6534425Y-7123350D01*
X6534425Y-7123350D01*
X6534425Y-7123350D01*
X6673375Y-7123350D01*
X6673375Y-7123350D01*
X6674857Y-7123055D01*
X6679223Y-7122187D01*
X6679223Y-7122187D01*
X6679223Y-7122187D01*
X6685855Y-7117755D01*
X6690287Y-7111123D01*
X6690287Y-7111123D01*
X6690287Y-7111123D01*
X6691450Y-7105275D01*
X6691450Y-7105275D01*
X6691450Y-6966325D01*
X6691450Y-6966325D01*
X6690287Y-6960477D01*
X6690287Y-6960477D01*
X6685855Y-6953845D01*
X6679223Y-6949413D01*
X6679223Y-6949413D01*
X6673375Y-6948250D01*
X6673375Y-6948250D01*
X6537759Y-6948250D01*
X6531055Y-6946281D01*
X6527465Y-6942138D01*
X6527270Y-6942272D01*
X6526621Y-6941324D01*
X6526621Y-6941323D01*
X6526131Y-6940834D01*
X6524356Y-6938593D01*
X6523992Y-6938005D01*
X6521517Y-6936136D01*
X6520869Y-6935572D01*
X6258430Y-6673133D01*
X6255081Y-6667000D01*
X6255580Y-6660031D01*
X6256262Y-6658520D01*
X6257023Y-6657095D01*
X6263030Y-6637293D01*
X6265058Y-6616700D01*
X6263030Y-6596107D01*
X6257023Y-6576305D01*
X6247268Y-6558055D01*
X6242313Y-6552016D01*
X6239582Y-6545585D01*
X6240761Y-6538699D01*
X6245476Y-6533543D01*
X6251898Y-6531750D01*
X6321102Y-6531750D01*
X6327806Y-6533718D01*
X6332381Y-6538999D01*
X6333376Y-6545915D01*
X6330687Y-6552016D01*
X6325732Y-6558055D01*
X6315977Y-6576304D01*
X6309970Y-6596107D01*
X6307942Y-6616700D01*
X6309970Y-6637293D01*
X6309970Y-6637293D01*
X6315977Y-6657095D01*
X6325731Y-6675345D01*
X6325732Y-6675345D01*
X6338859Y-6691341D01*
X6348521Y-6699270D01*
X6354855Y-6704468D01*
X6373105Y-6714223D01*
X6392907Y-6720230D01*
X6392906Y-6720230D01*
X6394753Y-6720412D01*
X6413500Y-6722258D01*
X6434093Y-6720230D01*
X6453895Y-6714223D01*
X6472145Y-6704468D01*
X6488141Y-6691341D01*
X6501268Y-6675345D01*
X6511023Y-6657095D01*
X6517030Y-6637293D01*
X6519058Y-6616700D01*
X6517030Y-6596107D01*
X6511023Y-6576305D01*
X6501268Y-6558055D01*
X6491305Y-6545915D01*
X6488141Y-6542059D01*
X6471876Y-6528711D01*
X6467942Y-6522936D01*
X6467755Y-6515952D01*
X6470974Y-6510357D01*
X6642606Y-6338726D01*
X6643253Y-6338162D01*
X6644222Y-6337430D01*
X6644223Y-6337430D01*
X6647446Y-6333895D01*
X6647637Y-6333695D01*
X6649017Y-6332314D01*
X6649168Y-6332094D01*
X6649702Y-6331420D01*
X6649849Y-6331259D01*
X6651792Y-6329128D01*
X6652042Y-6328482D01*
X6653375Y-6325953D01*
X6653766Y-6325383D01*
X6653765Y-6325383D01*
X6653766Y-6325383D01*
X6654476Y-6322364D01*
X6654729Y-6321545D01*
X6655850Y-6318652D01*
X6655850Y-6317959D01*
X6656179Y-6315120D01*
X6656338Y-6314446D01*
X6655909Y-6311376D01*
X6655850Y-6310518D01*
X6655850Y-6213885D01*
X6655850Y-5933957D01*
X6657818Y-5927254D01*
X6663099Y-5922678D01*
X6664649Y-5922092D01*
X6666195Y-5921623D01*
X6684445Y-5911868D01*
X6700441Y-5898741D01*
X6713568Y-5882745D01*
X6723323Y-5864495D01*
X6729330Y-5844693D01*
X6731358Y-5824100D01*
X6729330Y-5803507D01*
X6723323Y-5783705D01*
X6713568Y-5765455D01*
X6704609Y-5754537D01*
X6700441Y-5749459D01*
X6687249Y-5738633D01*
X6684445Y-5736331D01*
X6669537Y-5728363D01*
X6666195Y-5726577D01*
X6664650Y-5726108D01*
X6658807Y-5722278D01*
X6655961Y-5715897D01*
X6655850Y-5714242D01*
X6655850Y-5283958D01*
X6657818Y-5277254D01*
X6663099Y-5272678D01*
X6664649Y-5272092D01*
X6666195Y-5271623D01*
X6684445Y-5261869D01*
X6700441Y-5248741D01*
X6713568Y-5232745D01*
X6723323Y-5214495D01*
X6729330Y-5194693D01*
X6731358Y-5174100D01*
X6729330Y-5153507D01*
X6723323Y-5133705D01*
X6713568Y-5115455D01*
X6708370Y-5109121D01*
X6700441Y-5099459D01*
X6684445Y-5086332D01*
X6684445Y-5086332D01*
X6684445Y-5086332D01*
X6666195Y-5076577D01*
X6646393Y-5070570D01*
X6646393Y-5070570D01*
X6646393Y-5070570D01*
X6625800Y-5068542D01*
X6605207Y-5070570D01*
X6585404Y-5076577D01*
X6574390Y-5082464D01*
X6567155Y-5086332D01*
X6567155Y-5086332D01*
X6567155Y-5086332D01*
X6551159Y-5099459D01*
X6538032Y-5115455D01*
X6528277Y-5133704D01*
X6522270Y-5153507D01*
X6520242Y-5174100D01*
X6522270Y-5194693D01*
X6525066Y-5203912D01*
X6528277Y-5214495D01*
X6538031Y-5232745D01*
X6538032Y-5232745D01*
X6551159Y-5248741D01*
X6560689Y-5256562D01*
X6567155Y-5261869D01*
X6585405Y-5271623D01*
X6586950Y-5272092D01*
X6592793Y-5275921D01*
X6595639Y-5282302D01*
X6595750Y-5283958D01*
X6595750Y-5714242D01*
X6593781Y-5720946D01*
X6588501Y-5725521D01*
X6586950Y-5726108D01*
X6585405Y-5726577D01*
X6572336Y-5733562D01*
X6567155Y-5736331D01*
X6567155Y-5736332D01*
X6567155Y-5736332D01*
X6551159Y-5749459D01*
X6538636Y-5764718D01*
X6538031Y-5765455D01*
X6535830Y-5769574D01*
X6528277Y-5783704D01*
X6522270Y-5803507D01*
X6520242Y-5824100D01*
X6522270Y-5844693D01*
X6525273Y-5854594D01*
X6528277Y-5864495D01*
X6538031Y-5882745D01*
X6538032Y-5882745D01*
X6551159Y-5898741D01*
X6560821Y-5906670D01*
X6567155Y-5911868D01*
X6585405Y-5921623D01*
X6586949Y-5922092D01*
X6592793Y-5925921D01*
X6595639Y-5932302D01*
X6595750Y-5933958D01*
X6595750Y-6295451D01*
X6593781Y-6302155D01*
X6592118Y-6304219D01*
X6538904Y-6357433D01*
X6532772Y-6360782D01*
X6525802Y-6360283D01*
X6520209Y-6356096D01*
X6517796Y-6349881D01*
X6517030Y-6342107D01*
X6511023Y-6322305D01*
X6501268Y-6304055D01*
X6493183Y-6294203D01*
X6488141Y-6288059D01*
X6476368Y-6278397D01*
X6472145Y-6274931D01*
X6453895Y-6265177D01*
X6434093Y-6259170D01*
X6434093Y-6259170D01*
X6434093Y-6259170D01*
X6413500Y-6257142D01*
X6392907Y-6259170D01*
X6374417Y-6264779D01*
X6367430Y-6264841D01*
X6362049Y-6261681D01*
X6080636Y-5980268D01*
X6077288Y-5974136D01*
X6077786Y-5967167D01*
X6081973Y-5961573D01*
X6088520Y-5959132D01*
X6089404Y-5959100D01*
X6150800Y-5959100D01*
X6150800Y-5885330D01*
X6152768Y-5878626D01*
X6158049Y-5874051D01*
X6164965Y-5873056D01*
X6172224Y-5874100D01*
X6172224Y-5874100D01*
X6179376Y-5874100D01*
X6179376Y-5874100D01*
X6186635Y-5873056D01*
X6193551Y-5874051D01*
X6198831Y-5878626D01*
X6200800Y-5885330D01*
X6200800Y-5959100D01*
X6265583Y-5959100D01*
X6265584Y-5959100D01*
X6271537Y-5958460D01*
X6271538Y-5958460D01*
X6285009Y-5953435D01*
X6285009Y-5953435D01*
X6296519Y-5944819D01*
X6296519Y-5944819D01*
X6305135Y-5933309D01*
X6305135Y-5933309D01*
X6310160Y-5919838D01*
X6310160Y-5919837D01*
X6310800Y-5913884D01*
X6310800Y-5913883D01*
X6310800Y-5849100D01*
X6237135Y-5849100D01*
X6230431Y-5847131D01*
X6225855Y-5841851D01*
X6224861Y-5834935D01*
X6225237Y-5833207D01*
X6225800Y-5831289D01*
X6225800Y-5816911D01*
X6225237Y-5814993D01*
X6225237Y-5808006D01*
X6229014Y-5802129D01*
X6235370Y-5799226D01*
X6237135Y-5799100D01*
X6310800Y-5799100D01*
X6310800Y-5734317D01*
X6310800Y-5734315D01*
X6310160Y-5728363D01*
X6310160Y-5728362D01*
X6305135Y-5714891D01*
X6305135Y-5714891D01*
X6296519Y-5703381D01*
X6296519Y-5703381D01*
X6285009Y-5694765D01*
X6285009Y-5694764D01*
X6271538Y-5689740D01*
X6271537Y-5689740D01*
X6265584Y-5689100D01*
X6200800Y-5689100D01*
X6200800Y-5762870D01*
X6198831Y-5769574D01*
X6193551Y-5774149D01*
X6186635Y-5775144D01*
X6179377Y-5774100D01*
X6179376Y-5774100D01*
X6172224Y-5774100D01*
X6172223Y-5774100D01*
X6164964Y-5775144D01*
X6158049Y-5774149D01*
X6152768Y-5769574D01*
X6150800Y-5762870D01*
X6150800Y-5689100D01*
X6086015Y-5689100D01*
X6080063Y-5689740D01*
X6080062Y-5689740D01*
X6066591Y-5694764D01*
X6066591Y-5694765D01*
X6055081Y-5703381D01*
X6055081Y-5703381D01*
X6046465Y-5714891D01*
X6046464Y-5714891D01*
X6041440Y-5728362D01*
X6041440Y-5728363D01*
X6040800Y-5734315D01*
X6040800Y-5799100D01*
X6114465Y-5799100D01*
X6121169Y-5801068D01*
X6125745Y-5806349D01*
X6126739Y-5813265D01*
X6126363Y-5814993D01*
X6125800Y-5816911D01*
X6125800Y-5831289D01*
X6126363Y-5833207D01*
X6126363Y-5840194D01*
X6122585Y-5846071D01*
X6116230Y-5848974D01*
X6114465Y-5849100D01*
X6040800Y-5849100D01*
X6040800Y-5910496D01*
X6038831Y-5917199D01*
X6033551Y-5921775D01*
X6026635Y-5922769D01*
X6020280Y-5919867D01*
X6019632Y-5919264D01*
X5806764Y-5706395D01*
X5805151Y-5704410D01*
X5804644Y-5703633D01*
X5802049Y-5701613D01*
X5801474Y-5701106D01*
X5801231Y-5700862D01*
X5801231Y-5700862D01*
X5801230Y-5700862D01*
X5800585Y-5700401D01*
X5799456Y-5699595D01*
X5795413Y-5696448D01*
X5795412Y-5696448D01*
X5794765Y-5696098D01*
X5794107Y-5695776D01*
X5789195Y-5694314D01*
X5784349Y-5692650D01*
X5783627Y-5692529D01*
X5782895Y-5692438D01*
X5777972Y-5692642D01*
X5777777Y-5692650D01*
X5584307Y-5692650D01*
X5577603Y-5690681D01*
X5573028Y-5685401D01*
X5572033Y-5678485D01*
X5574936Y-5672130D01*
X5579297Y-5668907D01*
X5579407Y-5668858D01*
X5579407Y-5668858D01*
X5580040Y-5668579D01*
X5582771Y-5667733D01*
X5583452Y-5667606D01*
X5586088Y-5665974D01*
X5586847Y-5665573D01*
X5589685Y-5664321D01*
X5590174Y-5663831D01*
X5592415Y-5662056D01*
X5593003Y-5661692D01*
X5594873Y-5659216D01*
X5595435Y-5658570D01*
X5639006Y-5614999D01*
X5639653Y-5614436D01*
X5640622Y-5613704D01*
X5640623Y-5613704D01*
X5643846Y-5610168D01*
X5644037Y-5609968D01*
X5645417Y-5608588D01*
X5645568Y-5608367D01*
X5646102Y-5607693D01*
X5646376Y-5607393D01*
X5648192Y-5605401D01*
X5648442Y-5604756D01*
X5649775Y-5602226D01*
X5650166Y-5601656D01*
X5650876Y-5598637D01*
X5651129Y-5597818D01*
X5652250Y-5594925D01*
X5652250Y-5594233D01*
X5652579Y-5591394D01*
X5652738Y-5590721D01*
X5652738Y-5590720D01*
X5652309Y-5587649D01*
X5652250Y-5586792D01*
X5652250Y-5501603D01*
X5654218Y-5494899D01*
X5655881Y-5492836D01*
X5944806Y-5203911D01*
X5945453Y-5203348D01*
X5946422Y-5202616D01*
X5946423Y-5202616D01*
X5949646Y-5199080D01*
X5949837Y-5198880D01*
X5951217Y-5197500D01*
X5951368Y-5197279D01*
X5951902Y-5196605D01*
X5952391Y-5196069D01*
X5953992Y-5194313D01*
X5954242Y-5193668D01*
X5955575Y-5191138D01*
X5955966Y-5190568D01*
X5956676Y-5187548D01*
X5956929Y-5186730D01*
X5958050Y-5183837D01*
X5958050Y-5183145D01*
X5958379Y-5180306D01*
X5958538Y-5179632D01*
X5958109Y-5176560D01*
X5958050Y-5175705D01*
X5958050Y-5174100D01*
X6040284Y-5174100D01*
X6042343Y-5197632D01*
X6042343Y-5197633D01*
X6048457Y-5220448D01*
X6048457Y-5220449D01*
X6058440Y-5241858D01*
X6058440Y-5241858D01*
X6064307Y-5250237D01*
X6064307Y-5250237D01*
X6114905Y-5199640D01*
X6121037Y-5196291D01*
X6128006Y-5196789D01*
X6133600Y-5200977D01*
X6134104Y-5201703D01*
X6137187Y-5206500D01*
X6137624Y-5207180D01*
X6149160Y-5217176D01*
X6148929Y-5217442D01*
X6152401Y-5221450D01*
X6153393Y-5228366D01*
X6150490Y-5234721D01*
X6149888Y-5235367D01*
X6099662Y-5285593D01*
X6108042Y-5291460D01*
X6129451Y-5301443D01*
X6129452Y-5301443D01*
X6152267Y-5307557D01*
X6152268Y-5307557D01*
X6175800Y-5309616D01*
X6175800Y-5309616D01*
X6199331Y-5307557D01*
X6199333Y-5307557D01*
X6222148Y-5301443D01*
X6222149Y-5301443D01*
X6243558Y-5291460D01*
X6243558Y-5291460D01*
X6251937Y-5285593D01*
X6251937Y-5285593D01*
X6201712Y-5235367D01*
X6198363Y-5229235D01*
X6198861Y-5222266D01*
X6202564Y-5217319D01*
X6202440Y-5217176D01*
X6203110Y-5216595D01*
X6213976Y-5207180D01*
X6217495Y-5201704D01*
X6222775Y-5197128D01*
X6229691Y-5196134D01*
X6236047Y-5199036D01*
X6236695Y-5199640D01*
X6287292Y-5250237D01*
X6287293Y-5250237D01*
X6293160Y-5241858D01*
X6293160Y-5241858D01*
X6303143Y-5220449D01*
X6303143Y-5220448D01*
X6309257Y-5197633D01*
X6309257Y-5197632D01*
X6311316Y-5174100D01*
X6311316Y-5174100D01*
X6309257Y-5150568D01*
X6309257Y-5150567D01*
X6303143Y-5127752D01*
X6303143Y-5127751D01*
X6293160Y-5106342D01*
X6293160Y-5106342D01*
X6287292Y-5097963D01*
X6287292Y-5097963D01*
X6236695Y-5148560D01*
X6230563Y-5151909D01*
X6223593Y-5151410D01*
X6218000Y-5147223D01*
X6217495Y-5146496D01*
X6213976Y-5141020D01*
X6202440Y-5131024D01*
X6202671Y-5130757D01*
X6199200Y-5126753D01*
X6198206Y-5119837D01*
X6201108Y-5113481D01*
X6201712Y-5112833D01*
X6251937Y-5062607D01*
X6251937Y-5062607D01*
X6243558Y-5056740D01*
X6243558Y-5056740D01*
X6222149Y-5046757D01*
X6222148Y-5046757D01*
X6199333Y-5040643D01*
X6199331Y-5040643D01*
X6175800Y-5038584D01*
X6175800Y-5038584D01*
X6152268Y-5040643D01*
X6152267Y-5040643D01*
X6129452Y-5046757D01*
X6129451Y-5046757D01*
X6108042Y-5056740D01*
X6099662Y-5062607D01*
X6149888Y-5112833D01*
X6153237Y-5118965D01*
X6152738Y-5125935D01*
X6149036Y-5130881D01*
X6149160Y-5131024D01*
X6137624Y-5141020D01*
X6134105Y-5146496D01*
X6128824Y-5151072D01*
X6121908Y-5152066D01*
X6115553Y-5149163D01*
X6114905Y-5148560D01*
X6064307Y-5097963D01*
X6058440Y-5106342D01*
X6048457Y-5127751D01*
X6048457Y-5127752D01*
X6042343Y-5150567D01*
X6042343Y-5150568D01*
X6040284Y-5174100D01*
X6040284Y-5174100D01*
X5958050Y-5174100D01*
X5958050Y-4804973D01*
X5960019Y-4798269D01*
X5965299Y-4793693D01*
X5972215Y-4792699D01*
X5975493Y-4793645D01*
X5977085Y-4794353D01*
X5995888Y-4798350D01*
X5995888Y-4798350D01*
X6015112Y-4798350D01*
X6015112Y-4798350D01*
X6033915Y-4794353D01*
X6051477Y-4786534D01*
X6060092Y-4780275D01*
X6164050Y-4780275D01*
X6165213Y-4786123D01*
X6165213Y-4786123D01*
X6169645Y-4792755D01*
X6176277Y-4797187D01*
X6176277Y-4797187D01*
X6182125Y-4798350D01*
X6182125Y-4798350D01*
X6182125Y-4798350D01*
X6328875Y-4798350D01*
X6328875Y-4798350D01*
X6330357Y-4798055D01*
X6334723Y-4797187D01*
X6334723Y-4797187D01*
X6334723Y-4797187D01*
X6341355Y-4792755D01*
X6345787Y-4786123D01*
X6345787Y-4786123D01*
X6345787Y-4786123D01*
X6346950Y-4780275D01*
X6346950Y-4780275D01*
X6346950Y-4633525D01*
X6346950Y-4633525D01*
X6345787Y-4627677D01*
X6345787Y-4627677D01*
X6341355Y-4621045D01*
X6334723Y-4616613D01*
X6334723Y-4616613D01*
X6328875Y-4615450D01*
X6328875Y-4615450D01*
X6182125Y-4615450D01*
X6182125Y-4615450D01*
X6176277Y-4616613D01*
X6176277Y-4616613D01*
X6169645Y-4621045D01*
X6165213Y-4627677D01*
X6165213Y-4627677D01*
X6164050Y-4633525D01*
X6164050Y-4780275D01*
X6060092Y-4780275D01*
X6067029Y-4775235D01*
X6079892Y-4760949D01*
X6089504Y-4744301D01*
X6095444Y-4726018D01*
X6097454Y-4706900D01*
X6095444Y-4687782D01*
X6091577Y-4675880D01*
X6089504Y-4669500D01*
X6089504Y-4669499D01*
X6088815Y-4668306D01*
X6079892Y-4652851D01*
X6073694Y-4645968D01*
X6067029Y-4638566D01*
X6067029Y-4638565D01*
X6067029Y-4638565D01*
X6067029Y-4638565D01*
X6052043Y-4627677D01*
X6051477Y-4627266D01*
X6033916Y-4619447D01*
X6033915Y-4619447D01*
X6019108Y-4616300D01*
X6015112Y-4615450D01*
X5995888Y-4615450D01*
X5992592Y-4616151D01*
X5977085Y-4619447D01*
X5977084Y-4619447D01*
X5959523Y-4627266D01*
X5959523Y-4627266D01*
X5943971Y-4638565D01*
X5931108Y-4652851D01*
X5921496Y-4669499D01*
X5921496Y-4669500D01*
X5917293Y-4682435D01*
X5913349Y-4688202D01*
X5906913Y-4690922D01*
X5900029Y-4689730D01*
X5894881Y-4685006D01*
X5893707Y-4682435D01*
X5889504Y-4669500D01*
X5889504Y-4669500D01*
X5889504Y-4669499D01*
X5879892Y-4652851D01*
X5873694Y-4645968D01*
X5867029Y-4638566D01*
X5867029Y-4638565D01*
X5867029Y-4638565D01*
X5867029Y-4638565D01*
X5852043Y-4627677D01*
X5851477Y-4627266D01*
X5833916Y-4619447D01*
X5833915Y-4619447D01*
X5819108Y-4616300D01*
X5815112Y-4615450D01*
X5795888Y-4615450D01*
X5792592Y-4616151D01*
X5777085Y-4619447D01*
X5777084Y-4619447D01*
X5759523Y-4627266D01*
X5759523Y-4627266D01*
X5743971Y-4638565D01*
X5731108Y-4652851D01*
X5721496Y-4669499D01*
X5721496Y-4669500D01*
X5715556Y-4687781D01*
X5715556Y-4687782D01*
X5713546Y-4706900D01*
X5715556Y-4726018D01*
X5715556Y-4726019D01*
X5721496Y-4744300D01*
X5721496Y-4744301D01*
X5731108Y-4760949D01*
X5734326Y-4764524D01*
X5743970Y-4775234D01*
X5743971Y-4775235D01*
X5743971Y-4775235D01*
X5750908Y-4780275D01*
X5759523Y-4786534D01*
X5777084Y-4794353D01*
X5777085Y-4794353D01*
X5795888Y-4798350D01*
X5795888Y-4798350D01*
X5815112Y-4798350D01*
X5815112Y-4798350D01*
X5833915Y-4794353D01*
X5835506Y-4793645D01*
X5842431Y-4792716D01*
X5848759Y-4795679D01*
X5852480Y-4801592D01*
X5852950Y-4804973D01*
X5852950Y-5141997D01*
X5850981Y-5148701D01*
X5849318Y-5150765D01*
X5636712Y-5363371D01*
X5630580Y-5366719D01*
X5623611Y-5366221D01*
X5619176Y-5363371D01*
X5598100Y-5342295D01*
X5597536Y-5341647D01*
X5596804Y-5340677D01*
X5593271Y-5337456D01*
X5593065Y-5337260D01*
X5591688Y-5335883D01*
X5591467Y-5335731D01*
X5590794Y-5335198D01*
X5588502Y-5333108D01*
X5587855Y-5332858D01*
X5585327Y-5331526D01*
X5584756Y-5331134D01*
X5584756Y-5331134D01*
X5584756Y-5331134D01*
X5581738Y-5330424D01*
X5580918Y-5330170D01*
X5578026Y-5329050D01*
X5577333Y-5329050D01*
X5574494Y-5328721D01*
X5573820Y-5328562D01*
X5570749Y-5328991D01*
X5569892Y-5329050D01*
X5508276Y-5329050D01*
X5507419Y-5328991D01*
X5506216Y-5328823D01*
X5506215Y-5328823D01*
X5503714Y-5328938D01*
X5501441Y-5329043D01*
X5501155Y-5329050D01*
X5499207Y-5329050D01*
X5499207Y-5329050D01*
X5499207Y-5329050D01*
X5498943Y-5329099D01*
X5498090Y-5329198D01*
X5494992Y-5329342D01*
X5494992Y-5329342D01*
X5494358Y-5329622D01*
X5491630Y-5330466D01*
X5490949Y-5330594D01*
X5490948Y-5330594D01*
X5488312Y-5332226D01*
X5487552Y-5332627D01*
X5484816Y-5333835D01*
X5477888Y-5334742D01*
X5471570Y-5331760D01*
X5468189Y-5326825D01*
X5466535Y-5322391D01*
X5466535Y-5322391D01*
X5457919Y-5310881D01*
X5457919Y-5310881D01*
X5446409Y-5302265D01*
X5446409Y-5302265D01*
X5434638Y-5297874D01*
X5429044Y-5293687D01*
X5426602Y-5287141D01*
X5426631Y-5285041D01*
X5427200Y-5279258D01*
X5427200Y-5244100D01*
X5359600Y-5244100D01*
X5352896Y-5242132D01*
X5348321Y-5236851D01*
X5347200Y-5231700D01*
X5347200Y-5206500D01*
X5349169Y-5199796D01*
X5354449Y-5195221D01*
X5359600Y-5194100D01*
X5427200Y-5194100D01*
X5427200Y-5158942D01*
X5425681Y-5143517D01*
X5419677Y-5123723D01*
X5409927Y-5105483D01*
X5409927Y-5105483D01*
X5396806Y-5089494D01*
X5380817Y-5076373D01*
X5380817Y-5076373D01*
X5362576Y-5066623D01*
X5347200Y-5061959D01*
X5347200Y-5148474D01*
X5345232Y-5155177D01*
X5339951Y-5159753D01*
X5333035Y-5160747D01*
X5332381Y-5160635D01*
X5323866Y-5158942D01*
X5322200Y-5158610D01*
X5322200Y-5158610D01*
X5312019Y-5160635D01*
X5305060Y-5160013D01*
X5299542Y-5155726D01*
X5297218Y-5149137D01*
X5297200Y-5148474D01*
X5297200Y-5061959D01*
X5281824Y-5066623D01*
X5263583Y-5076373D01*
X5263583Y-5076373D01*
X5247594Y-5089494D01*
X5234473Y-5105483D01*
X5234473Y-5105483D01*
X5224723Y-5123723D01*
X5218719Y-5143517D01*
X5217200Y-5158942D01*
X5217200Y-5194100D01*
X5284800Y-5194100D01*
X5291504Y-5196069D01*
X5296079Y-5201349D01*
X5297200Y-5206500D01*
X5297200Y-5231700D01*
X5295232Y-5238404D01*
X5289951Y-5242979D01*
X5284800Y-5244100D01*
X5217200Y-5244100D01*
X5217200Y-5279258D01*
X5218719Y-5294683D01*
X5224723Y-5314477D01*
X5225674Y-5316256D01*
X5227098Y-5323096D01*
X5226357Y-5326434D01*
X5222840Y-5335862D01*
X5222840Y-5335863D01*
X5222200Y-5341816D01*
X5222200Y-5346600D01*
X5357300Y-5346600D01*
X5364004Y-5348569D01*
X5368579Y-5353849D01*
X5369700Y-5359000D01*
X5369700Y-5379150D01*
X5367732Y-5385854D01*
X5362451Y-5390429D01*
X5357300Y-5391550D01*
X5270225Y-5391550D01*
X5270021Y-5391570D01*
X5269413Y-5391600D01*
X5222200Y-5391600D01*
X5222200Y-5391650D01*
X5220232Y-5398354D01*
X5214951Y-5402929D01*
X5209800Y-5404050D01*
X5138584Y-5404050D01*
X5137727Y-5403991D01*
X5136524Y-5403823D01*
X5136524Y-5403823D01*
X5134022Y-5403938D01*
X5131749Y-5404043D01*
X5131463Y-5404050D01*
X5129516Y-5404050D01*
X5129421Y-5404068D01*
X5129252Y-5404099D01*
X5128399Y-5404198D01*
X5125480Y-5404333D01*
X5125301Y-5404342D01*
X5124666Y-5404622D01*
X5121938Y-5405467D01*
X5121257Y-5405594D01*
X5121257Y-5405594D01*
X5118621Y-5407226D01*
X5117861Y-5407627D01*
X5115024Y-5408879D01*
X5114534Y-5409369D01*
X5112294Y-5411143D01*
X5111705Y-5411508D01*
X5109836Y-5413983D01*
X5109272Y-5414631D01*
X5037795Y-5486108D01*
X5037146Y-5486672D01*
X5036177Y-5487404D01*
X5032956Y-5490937D01*
X5032759Y-5491144D01*
X5031383Y-5492520D01*
X5031382Y-5492521D01*
X5031231Y-5492742D01*
X5030698Y-5493415D01*
X5028608Y-5495707D01*
X5028608Y-5495707D01*
X5028358Y-5496353D01*
X5027026Y-5498880D01*
X5026635Y-5499452D01*
X5026634Y-5499452D01*
X5025924Y-5502470D01*
X5025670Y-5503291D01*
X5024135Y-5507254D01*
X5023899Y-5507163D01*
X5021472Y-5511935D01*
X5015441Y-5515463D01*
X5008460Y-5515169D01*
X5002746Y-5511148D01*
X5000113Y-5504676D01*
X5000050Y-5503429D01*
X5000050Y-4706900D01*
X5433636Y-4706900D01*
X5435488Y-4728061D01*
X5435488Y-4728062D01*
X5440985Y-4748579D01*
X5440986Y-4748580D01*
X5449963Y-4767832D01*
X5449963Y-4767833D01*
X5453772Y-4773272D01*
X5497270Y-4729775D01*
X5503402Y-4726426D01*
X5510371Y-4726925D01*
X5515733Y-4730812D01*
X5519794Y-4735905D01*
X5523859Y-4741001D01*
X5531053Y-4745906D01*
X5535483Y-4751309D01*
X5536289Y-4758249D01*
X5533215Y-4764524D01*
X5532836Y-4764920D01*
X5489128Y-4808628D01*
X5494568Y-4812437D01*
X5494568Y-4812437D01*
X5513820Y-4821414D01*
X5513821Y-4821415D01*
X5534338Y-4826912D01*
X5534339Y-4826912D01*
X5555500Y-4828764D01*
X5555500Y-4828764D01*
X5576661Y-4826912D01*
X5576662Y-4826912D01*
X5597179Y-4821415D01*
X5597180Y-4821414D01*
X5616431Y-4812437D01*
X5621872Y-4808628D01*
X5578455Y-4765210D01*
X5575106Y-4759078D01*
X5575605Y-4752109D01*
X5579792Y-4746515D01*
X5581475Y-4745493D01*
X5581705Y-4745337D01*
X5581705Y-4745336D01*
X5581705Y-4745336D01*
X5591871Y-4735905D01*
X5594035Y-4732155D01*
X5599092Y-4727333D01*
X5605952Y-4726011D01*
X5612439Y-4728608D01*
X5613542Y-4729587D01*
X5657227Y-4773272D01*
X5661037Y-4767831D01*
X5670014Y-4748580D01*
X5670015Y-4748579D01*
X5675512Y-4728062D01*
X5675512Y-4728061D01*
X5677364Y-4706900D01*
X5677364Y-4706900D01*
X5675512Y-4685739D01*
X5675512Y-4685738D01*
X5670015Y-4665221D01*
X5670014Y-4665220D01*
X5661037Y-4645969D01*
X5661037Y-4645968D01*
X5657227Y-4640528D01*
X5613730Y-4684025D01*
X5607598Y-4687374D01*
X5600629Y-4686875D01*
X5595267Y-4682988D01*
X5591206Y-4677896D01*
X5587141Y-4672799D01*
X5579947Y-4667894D01*
X5575517Y-4662491D01*
X5574711Y-4655551D01*
X5577785Y-4649276D01*
X5578164Y-4648880D01*
X5621872Y-4605172D01*
X5616432Y-4601363D01*
X5616431Y-4601363D01*
X5597180Y-4592386D01*
X5597179Y-4592385D01*
X5576662Y-4586888D01*
X5576661Y-4586888D01*
X5555500Y-4585036D01*
X5555500Y-4585036D01*
X5534339Y-4586888D01*
X5534338Y-4586888D01*
X5513821Y-4592385D01*
X5513820Y-4592386D01*
X5494568Y-4601363D01*
X5494568Y-4601363D01*
X5489128Y-4605172D01*
X5489128Y-4605172D01*
X5532545Y-4648590D01*
X5535894Y-4654722D01*
X5535395Y-4661691D01*
X5531208Y-4667285D01*
X5529525Y-4668306D01*
X5529295Y-4668463D01*
X5519130Y-4677896D01*
X5519129Y-4677896D01*
X5516965Y-4681645D01*
X5511908Y-4686467D01*
X5505047Y-4687789D01*
X5498561Y-4685192D01*
X5497458Y-4684213D01*
X5453772Y-4640528D01*
X5453772Y-4640528D01*
X5449963Y-4645968D01*
X5449963Y-4645968D01*
X5440986Y-4665220D01*
X5440985Y-4665221D01*
X5435488Y-4685738D01*
X5435488Y-4685739D01*
X5433636Y-4706900D01*
X5433636Y-4706900D01*
X5000050Y-4706900D01*
X5000050Y-4406900D01*
X5060671Y-4406900D01*
X5062583Y-4433631D01*
X5068280Y-4459817D01*
X5068280Y-4459817D01*
X5074095Y-4475407D01*
X5077645Y-4484927D01*
X5077645Y-4484927D01*
X5090488Y-4508447D01*
X5090489Y-4508448D01*
X5106548Y-4529901D01*
X5106550Y-4529903D01*
X5125497Y-4548850D01*
X5125499Y-4548852D01*
X5146952Y-4564911D01*
X5146953Y-4564912D01*
X5170473Y-4577755D01*
X5170473Y-4577755D01*
X5170473Y-4577755D01*
X5195583Y-4587120D01*
X5208676Y-4589968D01*
X5221769Y-4592817D01*
X5221769Y-4592817D01*
X5221769Y-4592817D01*
X5245524Y-4594516D01*
X5248500Y-4594729D01*
X5248500Y-4594729D01*
X5248500Y-4594729D01*
X5251178Y-4594537D01*
X5275231Y-4592817D01*
X5301417Y-4587120D01*
X5326527Y-4577755D01*
X5350048Y-4564912D01*
X5371502Y-4548851D01*
X5390451Y-4529902D01*
X5406512Y-4508448D01*
X5419355Y-4484927D01*
X5428720Y-4459817D01*
X5434417Y-4433631D01*
X5436329Y-4406900D01*
X6374671Y-4406900D01*
X6376583Y-4433631D01*
X6382280Y-4459817D01*
X6382280Y-4459817D01*
X6388094Y-4475407D01*
X6391645Y-4484927D01*
X6391645Y-4484927D01*
X6404488Y-4508447D01*
X6404489Y-4508448D01*
X6420548Y-4529901D01*
X6420549Y-4529903D01*
X6439497Y-4548850D01*
X6439499Y-4548852D01*
X6460952Y-4564911D01*
X6460953Y-4564912D01*
X6484473Y-4577755D01*
X6484473Y-4577755D01*
X6484473Y-4577755D01*
X6509583Y-4587120D01*
X6522676Y-4589968D01*
X6535769Y-4592817D01*
X6535769Y-4592817D01*
X6535769Y-4592817D01*
X6559524Y-4594516D01*
X6562500Y-4594729D01*
X6562500Y-4594729D01*
X6562500Y-4594729D01*
X6565178Y-4594537D01*
X6589231Y-4592817D01*
X6615417Y-4587120D01*
X6640527Y-4577755D01*
X6664048Y-4564912D01*
X6685502Y-4548851D01*
X6704451Y-4529902D01*
X6720511Y-4508448D01*
X6733355Y-4484927D01*
X6742720Y-4459817D01*
X6748417Y-4433631D01*
X6750329Y-4406900D01*
X6748417Y-4380169D01*
X6742720Y-4353983D01*
X6733355Y-4328873D01*
X6720511Y-4305352D01*
X6720511Y-4305352D01*
X6704452Y-4283899D01*
X6704450Y-4283897D01*
X6685503Y-4264950D01*
X6685501Y-4264948D01*
X6664048Y-4248889D01*
X6664047Y-4248888D01*
X6640527Y-4236045D01*
X6640527Y-4236045D01*
X6631007Y-4232495D01*
X6615417Y-4226680D01*
X6615417Y-4226680D01*
X6615417Y-4226680D01*
X6589231Y-4220983D01*
X6562500Y-4219071D01*
X6562500Y-4219071D01*
X6535769Y-4220983D01*
X6509583Y-4226680D01*
X6509583Y-4226680D01*
X6509583Y-4226680D01*
X6503512Y-4228944D01*
X6484473Y-4236045D01*
X6484473Y-4236045D01*
X6460953Y-4248888D01*
X6460952Y-4248889D01*
X6439499Y-4264948D01*
X6439497Y-4264950D01*
X6420549Y-4283897D01*
X6420548Y-4283899D01*
X6404489Y-4305352D01*
X6404488Y-4305353D01*
X6391645Y-4328873D01*
X6391645Y-4328873D01*
X6382280Y-4353983D01*
X6376583Y-4380169D01*
X6374671Y-4406900D01*
X6374671Y-4406900D01*
X5436329Y-4406900D01*
X5436329Y-4406900D01*
X5434417Y-4380169D01*
X5428720Y-4353983D01*
X5419355Y-4328873D01*
X5406512Y-4305352D01*
X5406511Y-4305352D01*
X5390452Y-4283899D01*
X5390450Y-4283897D01*
X5371503Y-4264950D01*
X5371501Y-4264948D01*
X5350048Y-4248889D01*
X5350047Y-4248888D01*
X5326527Y-4236045D01*
X5326527Y-4236045D01*
X5317007Y-4232495D01*
X5301417Y-4226680D01*
X5301417Y-4226680D01*
X5301417Y-4226680D01*
X5275231Y-4220983D01*
X5248500Y-4219071D01*
X5248500Y-4219071D01*
X5221769Y-4220983D01*
X5195583Y-4226680D01*
X5195583Y-4226680D01*
X5195583Y-4226680D01*
X5189512Y-4228944D01*
X5170473Y-4236045D01*
X5170473Y-4236045D01*
X5146953Y-4248888D01*
X5146952Y-4248889D01*
X5125499Y-4264948D01*
X5125497Y-4264950D01*
X5106550Y-4283897D01*
X5106548Y-4283899D01*
X5090489Y-4305352D01*
X5090488Y-4305353D01*
X5077645Y-4328873D01*
X5077645Y-4328873D01*
X5068280Y-4353983D01*
X5062583Y-4380169D01*
X5060671Y-4406900D01*
X5060671Y-4406900D01*
X5000050Y-4406900D01*
X5000050Y-4077950D01*
X5002019Y-4071246D01*
X5007299Y-4066671D01*
X5012450Y-4065550D01*
X6787550Y-4065550D01*
X6794254Y-4067518D01*
G37*
%TD.AperFunction*%
%TA.AperFunction,Conductor*%
G36*
X5447720Y-5738633D02*
G01*
X5448368Y-5739236D01*
X5458136Y-5749004D01*
X5459749Y-5750990D01*
X5460256Y-5751767D01*
X5460257Y-5751767D01*
X5462851Y-5753786D01*
X5463427Y-5754295D01*
X5463669Y-5754538D01*
X5465444Y-5755805D01*
X5469487Y-5758952D01*
X5469488Y-5758952D01*
X5469488Y-5758952D01*
X5470133Y-5759301D01*
X5470793Y-5759624D01*
X5470793Y-5759624D01*
X5470793Y-5759624D01*
X5474383Y-5760693D01*
X5475704Y-5761086D01*
X5476916Y-5761502D01*
X5480551Y-5762750D01*
X5480552Y-5762750D01*
X5481275Y-5762871D01*
X5482005Y-5762962D01*
X5487124Y-5762750D01*
X5758846Y-5762750D01*
X5765549Y-5764718D01*
X5767614Y-5766382D01*
X6215117Y-6213885D01*
X6218465Y-6220017D01*
X6217967Y-6226987D01*
X6213780Y-6232580D01*
X6207233Y-6235022D01*
X6203140Y-6234631D01*
X6184500Y-6229636D01*
X6184500Y-6301470D01*
X6182531Y-6308174D01*
X6177251Y-6312749D01*
X6170335Y-6313744D01*
X6163077Y-6312700D01*
X6163076Y-6312700D01*
X6155924Y-6312700D01*
X6155923Y-6312700D01*
X6148664Y-6313744D01*
X6141749Y-6312749D01*
X6136468Y-6308174D01*
X6134500Y-6301470D01*
X6134500Y-6229636D01*
X6113151Y-6235357D01*
X6113151Y-6235357D01*
X6091742Y-6245340D01*
X6091742Y-6245340D01*
X6072393Y-6258889D01*
X6072392Y-6258889D01*
X6055689Y-6275592D01*
X6055689Y-6275592D01*
X6042657Y-6294203D01*
X6037200Y-6298565D01*
X6030250Y-6299285D01*
X6024014Y-6296133D01*
X6022342Y-6294203D01*
X6009311Y-6275592D01*
X6009311Y-6275592D01*
X5992608Y-6258889D01*
X5973258Y-6245340D01*
X5951849Y-6235357D01*
X5951849Y-6235357D01*
X5930500Y-6229636D01*
X5930500Y-6229636D01*
X5930500Y-6301470D01*
X5928531Y-6308174D01*
X5923251Y-6312749D01*
X5916335Y-6313744D01*
X5909076Y-6312700D01*
X5909076Y-6312700D01*
X5901924Y-6312700D01*
X5901923Y-6312700D01*
X5894664Y-6313744D01*
X5887749Y-6312749D01*
X5882468Y-6308174D01*
X5880500Y-6301470D01*
X5880500Y-6229636D01*
X5880500Y-6229636D01*
X5859151Y-6235357D01*
X5859151Y-6235357D01*
X5837742Y-6245340D01*
X5837742Y-6245340D01*
X5818393Y-6258889D01*
X5818392Y-6258889D01*
X5801689Y-6275592D01*
X5801689Y-6275592D01*
X5788657Y-6294203D01*
X5783200Y-6298565D01*
X5776250Y-6299285D01*
X5770014Y-6296133D01*
X5768342Y-6294203D01*
X5755311Y-6275592D01*
X5755311Y-6275592D01*
X5738608Y-6258889D01*
X5719258Y-6245340D01*
X5697849Y-6235357D01*
X5697849Y-6235357D01*
X5676500Y-6229636D01*
X5676500Y-6301470D01*
X5674531Y-6308174D01*
X5669251Y-6312749D01*
X5662335Y-6313744D01*
X5655077Y-6312700D01*
X5655076Y-6312700D01*
X5647924Y-6312700D01*
X5647923Y-6312700D01*
X5640664Y-6313744D01*
X5633749Y-6312749D01*
X5628468Y-6308174D01*
X5626500Y-6301470D01*
X5626500Y-6229636D01*
X5626500Y-6229636D01*
X5605151Y-6235357D01*
X5605151Y-6235357D01*
X5583742Y-6245340D01*
X5583742Y-6245340D01*
X5564393Y-6258889D01*
X5564392Y-6258889D01*
X5547689Y-6275592D01*
X5547689Y-6275592D01*
X5534658Y-6294203D01*
X5529200Y-6298565D01*
X5522250Y-6299285D01*
X5516015Y-6296133D01*
X5514343Y-6294203D01*
X5501311Y-6275592D01*
X5501311Y-6275592D01*
X5484608Y-6258889D01*
X5465258Y-6245340D01*
X5443849Y-6235357D01*
X5443849Y-6235357D01*
X5422500Y-6229636D01*
X5422500Y-6301470D01*
X5420532Y-6308174D01*
X5415251Y-6312749D01*
X5408336Y-6313744D01*
X5401077Y-6312700D01*
X5401076Y-6312700D01*
X5393924Y-6312700D01*
X5393923Y-6312700D01*
X5386665Y-6313744D01*
X5379749Y-6312749D01*
X5374468Y-6308174D01*
X5372500Y-6301470D01*
X5372500Y-6229636D01*
X5372500Y-6229636D01*
X5351151Y-6235357D01*
X5351151Y-6235357D01*
X5329742Y-6245340D01*
X5329742Y-6245340D01*
X5310393Y-6258889D01*
X5310392Y-6258889D01*
X5293689Y-6275592D01*
X5293689Y-6275593D01*
X5280140Y-6294942D01*
X5280140Y-6294942D01*
X5270157Y-6316351D01*
X5270157Y-6316351D01*
X5264436Y-6337700D01*
X5264436Y-6337700D01*
X5336165Y-6337700D01*
X5342869Y-6339668D01*
X5347445Y-6344949D01*
X5348439Y-6351865D01*
X5348063Y-6353593D01*
X5347500Y-6355511D01*
X5347500Y-6369889D01*
X5348063Y-6371807D01*
X5348063Y-6378794D01*
X5344286Y-6384671D01*
X5337930Y-6387574D01*
X5336165Y-6387700D01*
X5264436Y-6387700D01*
X5270157Y-6409049D01*
X5270157Y-6409049D01*
X5280140Y-6430458D01*
X5293689Y-6449808D01*
X5310392Y-6466510D01*
X5329742Y-6480060D01*
X5346795Y-6488012D01*
X5352039Y-6492629D01*
X5353954Y-6499348D01*
X5351932Y-6506036D01*
X5346616Y-6510570D01*
X5341554Y-6511650D01*
X5310525Y-6511650D01*
X5304677Y-6512813D01*
X5304677Y-6512813D01*
X5298045Y-6517245D01*
X5293613Y-6523877D01*
X5293613Y-6523877D01*
X5292450Y-6529725D01*
X5292450Y-6703675D01*
X5293613Y-6709523D01*
X5293613Y-6709523D01*
X5298045Y-6716155D01*
X5304677Y-6720587D01*
X5304677Y-6720587D01*
X5310525Y-6721750D01*
X5310525Y-6721750D01*
X5310525Y-6721750D01*
X5484475Y-6721750D01*
X5484475Y-6721750D01*
X5485957Y-6721455D01*
X5490323Y-6720587D01*
X5490323Y-6720587D01*
X5490323Y-6720587D01*
X5496955Y-6716155D01*
X5501387Y-6709523D01*
X5501387Y-6709523D01*
X5501387Y-6709523D01*
X5502550Y-6703675D01*
X5502550Y-6703675D01*
X5502550Y-6559283D01*
X5504518Y-6552579D01*
X5506182Y-6550515D01*
X5521315Y-6535382D01*
X5527448Y-6532033D01*
X5530084Y-6531750D01*
X5559102Y-6531750D01*
X5565806Y-6533718D01*
X5570381Y-6538999D01*
X5571376Y-6545915D01*
X5568687Y-6552016D01*
X5563732Y-6558055D01*
X5553977Y-6576304D01*
X5547970Y-6596107D01*
X5545942Y-6616700D01*
X5547970Y-6637293D01*
X5547970Y-6637293D01*
X5553977Y-6657095D01*
X5563732Y-6675345D01*
X5563732Y-6675345D01*
X5576859Y-6691341D01*
X5586521Y-6699270D01*
X5592855Y-6704468D01*
X5611105Y-6714223D01*
X5630907Y-6720230D01*
X5630906Y-6720230D01*
X5632935Y-6720430D01*
X5651500Y-6722258D01*
X5672093Y-6720230D01*
X5691895Y-6714223D01*
X5710145Y-6704468D01*
X5726141Y-6691341D01*
X5739268Y-6675345D01*
X5749023Y-6657095D01*
X5755030Y-6637293D01*
X5757058Y-6616700D01*
X5755030Y-6596107D01*
X5749023Y-6576305D01*
X5739268Y-6558055D01*
X5734313Y-6552016D01*
X5731582Y-6545585D01*
X5732761Y-6538699D01*
X5737476Y-6533543D01*
X5743898Y-6531750D01*
X5813102Y-6531750D01*
X5819806Y-6533718D01*
X5824381Y-6538999D01*
X5825376Y-6545915D01*
X5822687Y-6552016D01*
X5817732Y-6558055D01*
X5807977Y-6576304D01*
X5801970Y-6596107D01*
X5799942Y-6616700D01*
X5801970Y-6637293D01*
X5801970Y-6637293D01*
X5807977Y-6657095D01*
X5817731Y-6675345D01*
X5817732Y-6675345D01*
X5830859Y-6691341D01*
X5840521Y-6699270D01*
X5846855Y-6704468D01*
X5865105Y-6714223D01*
X5884907Y-6720230D01*
X5884906Y-6720230D01*
X5886753Y-6720412D01*
X5905500Y-6722258D01*
X5926093Y-6720230D01*
X5945895Y-6714223D01*
X5964145Y-6704468D01*
X5980141Y-6691341D01*
X5993268Y-6675345D01*
X6003023Y-6657095D01*
X6009030Y-6637293D01*
X6011058Y-6616700D01*
X6009030Y-6596107D01*
X6003023Y-6576305D01*
X5993268Y-6558055D01*
X5988313Y-6552016D01*
X5985582Y-6545585D01*
X5986761Y-6538699D01*
X5991476Y-6533543D01*
X5997898Y-6531750D01*
X6067102Y-6531750D01*
X6073806Y-6533718D01*
X6078381Y-6538999D01*
X6079376Y-6545915D01*
X6076687Y-6552016D01*
X6071732Y-6558055D01*
X6061977Y-6576304D01*
X6055970Y-6596107D01*
X6053942Y-6616700D01*
X6055970Y-6637293D01*
X6055970Y-6637293D01*
X6061977Y-6657095D01*
X6071731Y-6675345D01*
X6071732Y-6675345D01*
X6084859Y-6691341D01*
X6094521Y-6699270D01*
X6100855Y-6704468D01*
X6119105Y-6714223D01*
X6138907Y-6720230D01*
X6138906Y-6720230D01*
X6140753Y-6720412D01*
X6159500Y-6722258D01*
X6180093Y-6720230D01*
X6199895Y-6714223D01*
X6201319Y-6713462D01*
X6208159Y-6712038D01*
X6214684Y-6714538D01*
X6215933Y-6715630D01*
X6428522Y-6928219D01*
X6431870Y-6934351D01*
X6431372Y-6941320D01*
X6427184Y-6946913D01*
X6420638Y-6949355D01*
X6417176Y-6949116D01*
X6413102Y-6948250D01*
X6394698Y-6948250D01*
X6376697Y-6952076D01*
X6376696Y-6952076D01*
X6374778Y-6952930D01*
X6367853Y-6953858D01*
X6361526Y-6950895D01*
X6360967Y-6950370D01*
X6360082Y-6949485D01*
X6356733Y-6943353D01*
X6356450Y-6940717D01*
X6356450Y-6934351D01*
X6356450Y-6923162D01*
X6356510Y-6922306D01*
X6356677Y-6921104D01*
X6356677Y-6921104D01*
X6356457Y-6916329D01*
X6356450Y-6916043D01*
X6356450Y-6914096D01*
X6356450Y-6914095D01*
X6356401Y-6913833D01*
X6356302Y-6912978D01*
X6356159Y-6909881D01*
X6355879Y-6909248D01*
X6355033Y-6906517D01*
X6354906Y-6905837D01*
X6353274Y-6903200D01*
X6352874Y-6902441D01*
X6351621Y-6899604D01*
X6351131Y-6899114D01*
X6349356Y-6896873D01*
X6348992Y-6896285D01*
X6346517Y-6894416D01*
X6345869Y-6893852D01*
X6283412Y-6831395D01*
X6282848Y-6830746D01*
X6282116Y-6829777D01*
X6278582Y-6826556D01*
X6278377Y-6826360D01*
X6277000Y-6824983D01*
X6276779Y-6824831D01*
X6276105Y-6824298D01*
X6273813Y-6822208D01*
X6273167Y-6821958D01*
X6270639Y-6820626D01*
X6270068Y-6820234D01*
X6270068Y-6820234D01*
X6270068Y-6820234D01*
X6267050Y-6819524D01*
X6266229Y-6819270D01*
X6263337Y-6818150D01*
X6262645Y-6818150D01*
X6259806Y-6817821D01*
X6259132Y-6817662D01*
X6256061Y-6818090D01*
X6255203Y-6818150D01*
X5233903Y-6818150D01*
X5227199Y-6816181D01*
X5225135Y-6814518D01*
X5199682Y-6789065D01*
X5196333Y-6782932D01*
X5196050Y-6780297D01*
X5196050Y-5863547D01*
X5198019Y-5856843D01*
X5203299Y-5852268D01*
X5210215Y-5851273D01*
X5216570Y-5854176D01*
X5220316Y-5859948D01*
X5224723Y-5874477D01*
X5234473Y-5892717D01*
X5234473Y-5892717D01*
X5247594Y-5908705D01*
X5263583Y-5921827D01*
X5263583Y-5921827D01*
X5281823Y-5931577D01*
X5297200Y-5936241D01*
X5297200Y-5849726D01*
X5299169Y-5843022D01*
X5304449Y-5838447D01*
X5311365Y-5837453D01*
X5312019Y-5837565D01*
X5322200Y-5839590D01*
X5322200Y-5839590D01*
X5322200Y-5839590D01*
X5332381Y-5837565D01*
X5339340Y-5838187D01*
X5344858Y-5842474D01*
X5347182Y-5849063D01*
X5347200Y-5849726D01*
X5347200Y-5936241D01*
X5362577Y-5931577D01*
X5380817Y-5921827D01*
X5380817Y-5921827D01*
X5396806Y-5908705D01*
X5409927Y-5892717D01*
X5409927Y-5892717D01*
X5419677Y-5874477D01*
X5425681Y-5854683D01*
X5427200Y-5839258D01*
X5427200Y-5804100D01*
X5359600Y-5804100D01*
X5352896Y-5802131D01*
X5348321Y-5796851D01*
X5347200Y-5791700D01*
X5347200Y-5766500D01*
X5349169Y-5759796D01*
X5354449Y-5755221D01*
X5359600Y-5754100D01*
X5427200Y-5754100D01*
X5427200Y-5748004D01*
X5429169Y-5741300D01*
X5434449Y-5736725D01*
X5441365Y-5735731D01*
X5447720Y-5738633D01*
G37*
%TD.AperFunction*%
%TA.AperFunction,Conductor*%
G36*
X5596869Y-6339668D02*
G01*
X5601445Y-6344949D01*
X5602439Y-6351865D01*
X5602063Y-6353593D01*
X5601500Y-6355511D01*
X5601500Y-6369889D01*
X5602063Y-6371807D01*
X5602063Y-6378794D01*
X5598285Y-6384671D01*
X5591930Y-6387574D01*
X5590165Y-6387700D01*
X5458835Y-6387700D01*
X5452131Y-6385731D01*
X5447555Y-6380451D01*
X5446561Y-6373535D01*
X5446937Y-6371807D01*
X5447500Y-6369889D01*
X5447500Y-6355511D01*
X5446937Y-6353593D01*
X5446937Y-6346606D01*
X5450715Y-6340729D01*
X5457070Y-6337826D01*
X5458835Y-6337700D01*
X5590165Y-6337700D01*
X5596869Y-6339668D01*
G37*
%TD.AperFunction*%
%TA.AperFunction,Conductor*%
G36*
X5850869Y-6339668D02*
G01*
X5855445Y-6344949D01*
X5856439Y-6351865D01*
X5856063Y-6353593D01*
X5855500Y-6355511D01*
X5855500Y-6369889D01*
X5856063Y-6371807D01*
X5856063Y-6378794D01*
X5852285Y-6384671D01*
X5845930Y-6387574D01*
X5844165Y-6387700D01*
X5712835Y-6387700D01*
X5706131Y-6385731D01*
X5701555Y-6380451D01*
X5700561Y-6373535D01*
X5700937Y-6371807D01*
X5701500Y-6369889D01*
X5701500Y-6355511D01*
X5700937Y-6353593D01*
X5700937Y-6346606D01*
X5704714Y-6340729D01*
X5711070Y-6337826D01*
X5712835Y-6337700D01*
X5844165Y-6337700D01*
X5850869Y-6339668D01*
G37*
%TD.AperFunction*%
%TA.AperFunction,Conductor*%
G36*
X6104869Y-6339668D02*
G01*
X6109445Y-6344949D01*
X6110439Y-6351865D01*
X6110063Y-6353593D01*
X6109500Y-6355511D01*
X6109500Y-6369889D01*
X6110063Y-6371807D01*
X6110063Y-6378794D01*
X6106285Y-6384671D01*
X6099930Y-6387574D01*
X6098165Y-6387700D01*
X5966835Y-6387700D01*
X5960131Y-6385731D01*
X5955555Y-6380451D01*
X5954561Y-6373535D01*
X5954937Y-6371807D01*
X5955500Y-6369889D01*
X5955500Y-6355511D01*
X5954937Y-6353593D01*
X5954937Y-6346606D01*
X5958714Y-6340729D01*
X5965070Y-6337826D01*
X5966835Y-6337700D01*
X6098165Y-6337700D01*
X6104869Y-6339668D01*
G37*
%TD.AperFunction*%
M02*
