%TF.GenerationSoftware,KiCad,Pcbnew,7.0.7*%
%TF.CreationDate,2023-09-15T20:16:18+02:00*%
%TF.ProjectId,DreameBreakout,44726561-6d65-4427-9265-616b6f75742e,rev?*%
%TF.SameCoordinates,Original*%
%TF.FileFunction,Copper,L2,Bot*%
%TF.FilePolarity,Positive*%
%FSLAX45Y45*%
G04 Gerber Fmt 4.5, Leading zero omitted, Abs format (unit mm)*
G04 Created by KiCad (PCBNEW 7.0.7) date 2023-09-15 20:16:18*
%MOMM*%
%LPD*%
G01*
G04 APERTURE LIST*
%TA.AperFunction,Profile*%
%ADD10C,0.100000*%
%TD*%
%ADD11C,0.250000*%
%TA.AperFunction,NonConductor*%
%ADD12C,0.250000*%
%TD*%
%TA.AperFunction,ComponentPad*%
%ADD13R,1.700000X1.700000*%
%TD*%
%TA.AperFunction,ComponentPad*%
%ADD14O,1.700000X1.700000*%
%TD*%
%TA.AperFunction,ComponentPad*%
%ADD15R,1.428000X1.428000*%
%TD*%
%TA.AperFunction,ComponentPad*%
%ADD16C,1.428000*%
%TD*%
%TA.AperFunction,ComponentPad*%
%ADD17C,3.346000*%
%TD*%
%TA.AperFunction,ComponentPad*%
%ADD18R,1.350000X1.350000*%
%TD*%
%TA.AperFunction,ComponentPad*%
%ADD19O,1.350000X1.350000*%
%TD*%
%TA.AperFunction,ComponentPad*%
%ADD20O,1.100000X2.200000*%
%TD*%
%TA.AperFunction,ComponentPad*%
%ADD21C,1.700000*%
%TD*%
%TA.AperFunction,ViaPad*%
%ADD22C,1.000000*%
%TD*%
%TA.AperFunction,Conductor*%
%ADD23C,0.500000*%
%TD*%
%TA.AperFunction,Conductor*%
%ADD24C,0.200000*%
%TD*%
G04 APERTURE END LIST*
D10*
X5000000Y-4065500D02*
X6800000Y-4065500D01*
X6800000Y-7332600D01*
X5000000Y-7332600D01*
X5000000Y-4065500D01*
D11*
D12*
X8448652Y-4121662D02*
X8448652Y-4054995D01*
X8448652Y-4064519D02*
X8443890Y-4059757D01*
X8443890Y-4059757D02*
X8434367Y-4054995D01*
X8434367Y-4054995D02*
X8420081Y-4054995D01*
X8420081Y-4054995D02*
X8410557Y-4059757D01*
X8410557Y-4059757D02*
X8405795Y-4069281D01*
X8405795Y-4069281D02*
X8405795Y-4121662D01*
X8405795Y-4069281D02*
X8401033Y-4059757D01*
X8401033Y-4059757D02*
X8391509Y-4054995D01*
X8391509Y-4054995D02*
X8377224Y-4054995D01*
X8377224Y-4054995D02*
X8367700Y-4059757D01*
X8367700Y-4059757D02*
X8362938Y-4069281D01*
X8362938Y-4069281D02*
X8362938Y-4121662D01*
X8301033Y-4121662D02*
X8310557Y-4116900D01*
X8310557Y-4116900D02*
X8315319Y-4112138D01*
X8315319Y-4112138D02*
X8320081Y-4102614D01*
X8320081Y-4102614D02*
X8320081Y-4074043D01*
X8320081Y-4074043D02*
X8315319Y-4064519D01*
X8315319Y-4064519D02*
X8310557Y-4059757D01*
X8310557Y-4059757D02*
X8301033Y-4054995D01*
X8301033Y-4054995D02*
X8286747Y-4054995D01*
X8286747Y-4054995D02*
X8277224Y-4059757D01*
X8277224Y-4059757D02*
X8272462Y-4064519D01*
X8272462Y-4064519D02*
X8267700Y-4074043D01*
X8267700Y-4074043D02*
X8267700Y-4102614D01*
X8267700Y-4102614D02*
X8272462Y-4112138D01*
X8272462Y-4112138D02*
X8277224Y-4116900D01*
X8277224Y-4116900D02*
X8286747Y-4121662D01*
X8286747Y-4121662D02*
X8301033Y-4121662D01*
X8224843Y-4121662D02*
X8224843Y-4054995D01*
X8224843Y-4021662D02*
X8229605Y-4026424D01*
X8229605Y-4026424D02*
X8224843Y-4031186D01*
X8224843Y-4031186D02*
X8220081Y-4026424D01*
X8220081Y-4026424D02*
X8224843Y-4021662D01*
X8224843Y-4021662D02*
X8224843Y-4031186D01*
X8177224Y-4054995D02*
X8177224Y-4121662D01*
X8177224Y-4064519D02*
X8172462Y-4059757D01*
X8172462Y-4059757D02*
X8162938Y-4054995D01*
X8162938Y-4054995D02*
X8148652Y-4054995D01*
X8148652Y-4054995D02*
X8139128Y-4059757D01*
X8139128Y-4059757D02*
X8134367Y-4069281D01*
X8134367Y-4069281D02*
X8134367Y-4121662D01*
X8086747Y-4112138D02*
X8081986Y-4116900D01*
X8081986Y-4116900D02*
X8086747Y-4121662D01*
X8086747Y-4121662D02*
X8091509Y-4116900D01*
X8091509Y-4116900D02*
X8086747Y-4112138D01*
X8086747Y-4112138D02*
X8086747Y-4121662D01*
D13*
X5397500Y-6616700D03*
D14*
X5397500Y-6362700D03*
X5651500Y-6616700D03*
X5651500Y-6362700D03*
X5905500Y-6616700D03*
X5905500Y-6362700D03*
X6159500Y-6616700D03*
X6159500Y-6362700D03*
X6413500Y-6616700D03*
X6413500Y-6362700D03*
D15*
X6255500Y-4706900D03*
D16*
X6005500Y-4706900D03*
X5805500Y-4706900D03*
X5555500Y-4706900D03*
D17*
X6562500Y-4406900D03*
X5248500Y-4406900D03*
D18*
X6603900Y-7035800D03*
D19*
X6403900Y-7035800D03*
X6203900Y-7035800D03*
X6003900Y-7035800D03*
X5803900Y-7035800D03*
X5603900Y-7035800D03*
X5403900Y-7035800D03*
X5203900Y-7035800D03*
D20*
X5322200Y-5779100D03*
X5322200Y-5219100D03*
X5537200Y-5499100D03*
D13*
X6175800Y-5824100D03*
D21*
X6175800Y-5174100D03*
X6625800Y-5824100D03*
X6625800Y-5174100D03*
D22*
X6625000Y-4775000D03*
X6537790Y-5984410D03*
X6718300Y-6045200D03*
D23*
X6603900Y-6184800D02*
X6603900Y-6807100D01*
X6603900Y-7035800D02*
X6603900Y-6807100D01*
X6603900Y-6807100D02*
X6413500Y-6616700D01*
X6438900Y-5171048D02*
X6438900Y-6019800D01*
X6438900Y-6019800D02*
X6603900Y-6184800D01*
X6255500Y-4706900D02*
X6255500Y-4987648D01*
X6255500Y-4987648D02*
X6438900Y-5171048D01*
D24*
X5603900Y-6918300D02*
X5603900Y-7035800D01*
X5905500Y-6616700D02*
X5603900Y-6918300D01*
X5403900Y-6864300D02*
X5403900Y-7035800D01*
X5651500Y-6616700D02*
X5403900Y-6864300D01*
X5203900Y-6810300D02*
X5203900Y-7035800D01*
X5397500Y-6616700D02*
X5203900Y-6810300D01*
X6159500Y-6616700D02*
X6003900Y-6772300D01*
X6003900Y-6772300D02*
X6003900Y-7035800D01*
D23*
X5691400Y-7148300D02*
X5103600Y-7148300D01*
X5080000Y-7124700D02*
X5080000Y-6413500D01*
X6718300Y-7146400D02*
X6718300Y-6045200D01*
X6755800Y-6007700D02*
X6755800Y-4974400D01*
X5080000Y-6413500D02*
X5130800Y-6362700D01*
X5103600Y-7148300D02*
X5080000Y-7124700D01*
X5130800Y-6362700D02*
X5397500Y-6362700D01*
X6755800Y-4905800D02*
X6625000Y-4775000D01*
X5691400Y-7148300D02*
X6453400Y-7148300D01*
X6159500Y-6362700D02*
X5397500Y-6362700D01*
X5537200Y-5499100D02*
X5537200Y-5434100D01*
X6159500Y-6362700D02*
X6159500Y-5840400D01*
X6464300Y-7137400D02*
X6475200Y-7148300D01*
X5803900Y-7035800D02*
X5691400Y-7148300D01*
X6718300Y-6045200D02*
X6598580Y-6045200D01*
X6716400Y-7148300D02*
X6718300Y-7146400D01*
X5537200Y-5434100D02*
X5322200Y-5219100D01*
X6453400Y-7148300D02*
X6464300Y-7137400D01*
X6755800Y-4974400D02*
X6755800Y-4905800D01*
X6175800Y-5174100D02*
X6175800Y-5824100D01*
X5322200Y-5219100D02*
X5322200Y-5779100D01*
X6598580Y-6045200D02*
X6537790Y-5984410D01*
X6475200Y-7148300D02*
X6716400Y-7148300D01*
X6159500Y-5840400D02*
X6175800Y-5824100D01*
X6718300Y-6045200D02*
X6755800Y-6007700D01*
%TA.AperFunction,Conductor*%
G36*
X6040985Y-6429267D02*
G01*
X6042657Y-6431197D01*
X6055689Y-6449808D01*
X6072392Y-6466510D01*
X6091742Y-6480060D01*
X6113151Y-6490043D01*
X6113152Y-6490043D01*
X6125365Y-6493316D01*
X6131331Y-6496952D01*
X6134384Y-6503237D01*
X6133554Y-6510174D01*
X6129106Y-6515562D01*
X6125755Y-6517159D01*
X6119105Y-6519177D01*
X6110311Y-6523877D01*
X6100855Y-6528931D01*
X6100855Y-6528932D01*
X6100855Y-6528932D01*
X6084859Y-6542059D01*
X6071732Y-6558055D01*
X6061977Y-6576304D01*
X6055970Y-6596107D01*
X6053942Y-6616700D01*
X6055970Y-6637293D01*
X6061977Y-6657096D01*
X6062738Y-6658519D01*
X6064162Y-6665360D01*
X6061662Y-6671884D01*
X6060570Y-6673133D01*
X5987095Y-6746608D01*
X5986446Y-6747172D01*
X5985477Y-6747904D01*
X5982256Y-6751437D01*
X5982058Y-6751644D01*
X5980683Y-6753020D01*
X5980682Y-6753021D01*
X5980531Y-6753242D01*
X5979998Y-6753915D01*
X5977908Y-6756207D01*
X5977908Y-6756207D01*
X5977658Y-6756853D01*
X5976326Y-6759380D01*
X5975934Y-6759951D01*
X5975934Y-6759952D01*
X5975224Y-6762970D01*
X5974970Y-6763791D01*
X5973850Y-6766683D01*
X5973850Y-6767375D01*
X5973521Y-6770214D01*
X5973362Y-6770888D01*
X5973362Y-6770888D01*
X5973790Y-6773959D01*
X5973850Y-6774816D01*
X5973850Y-6945291D01*
X5971881Y-6951995D01*
X5966601Y-6956570D01*
X5966493Y-6956619D01*
X5959884Y-6959562D01*
X5944995Y-6970379D01*
X5944995Y-6970379D01*
X5932680Y-6984056D01*
X5932680Y-6984056D01*
X5931724Y-6985713D01*
X5926667Y-6990534D01*
X5919806Y-6991856D01*
X5913320Y-6989259D01*
X5909885Y-6985040D01*
X5904228Y-6973679D01*
X5891105Y-6956301D01*
X5875013Y-6941631D01*
X5856499Y-6930168D01*
X5856498Y-6930168D01*
X5836193Y-6922301D01*
X5836192Y-6922301D01*
X5828900Y-6920938D01*
X5828900Y-6920938D01*
X5828900Y-6984742D01*
X5826931Y-6991446D01*
X5821651Y-6996022D01*
X5814735Y-6997016D01*
X5814560Y-6996990D01*
X5807049Y-6995800D01*
X5807048Y-6995800D01*
X5800752Y-6995800D01*
X5800751Y-6995800D01*
X5793240Y-6996990D01*
X5786310Y-6996094D01*
X5780965Y-6991595D01*
X5778901Y-6984919D01*
X5778900Y-6984742D01*
X5778900Y-6920938D01*
X5778900Y-6920938D01*
X5771608Y-6922301D01*
X5771607Y-6922301D01*
X5751301Y-6930168D01*
X5751301Y-6930168D01*
X5732787Y-6941631D01*
X5732787Y-6941631D01*
X5716694Y-6956301D01*
X5703571Y-6973679D01*
X5697915Y-6985040D01*
X5693164Y-6990163D01*
X5686398Y-6991905D01*
X5679764Y-6989713D01*
X5676076Y-6985712D01*
X5675119Y-6984056D01*
X5662805Y-6970379D01*
X5662805Y-6970379D01*
X5647916Y-6959562D01*
X5647916Y-6959562D01*
X5647916Y-6959562D01*
X5641306Y-6956619D01*
X5635983Y-6952094D01*
X5633950Y-6945409D01*
X5633950Y-6945291D01*
X5633950Y-6942554D01*
X5633950Y-6935883D01*
X5635918Y-6929179D01*
X5637581Y-6927116D01*
X5849067Y-6715630D01*
X5855199Y-6712281D01*
X5862169Y-6712780D01*
X5863680Y-6713462D01*
X5864549Y-6713926D01*
X5865105Y-6714223D01*
X5884907Y-6720230D01*
X5884906Y-6720230D01*
X5886753Y-6720412D01*
X5905500Y-6722258D01*
X5926093Y-6720230D01*
X5945895Y-6714223D01*
X5964145Y-6704468D01*
X5980141Y-6691341D01*
X5993268Y-6675345D01*
X6003023Y-6657095D01*
X6009030Y-6637293D01*
X6011058Y-6616700D01*
X6009030Y-6596107D01*
X6003023Y-6576305D01*
X5993268Y-6558055D01*
X5988070Y-6551721D01*
X5980141Y-6542059D01*
X5965112Y-6529725D01*
X5964145Y-6528931D01*
X5945895Y-6519177D01*
X5939245Y-6517159D01*
X5933401Y-6513330D01*
X5930555Y-6506948D01*
X5931611Y-6500042D01*
X5936234Y-6494802D01*
X5939635Y-6493316D01*
X5951848Y-6490043D01*
X5951849Y-6490043D01*
X5973258Y-6480060D01*
X5992608Y-6466510D01*
X6009310Y-6449808D01*
X6022342Y-6431197D01*
X6027800Y-6426834D01*
X6034750Y-6426115D01*
X6040985Y-6429267D01*
G37*
%TD.AperFunction*%
%TA.AperFunction,Conductor*%
G36*
X5596869Y-6339668D02*
G01*
X5601445Y-6344949D01*
X5602439Y-6351865D01*
X5602063Y-6353593D01*
X5601500Y-6355511D01*
X5601500Y-6369889D01*
X5602063Y-6371807D01*
X5602063Y-6378794D01*
X5598285Y-6384671D01*
X5591930Y-6387574D01*
X5590165Y-6387700D01*
X5458835Y-6387700D01*
X5452131Y-6385731D01*
X5447555Y-6380451D01*
X5446561Y-6373535D01*
X5446937Y-6371807D01*
X5447500Y-6369889D01*
X5447500Y-6355511D01*
X5446937Y-6353593D01*
X5446937Y-6346606D01*
X5450715Y-6340729D01*
X5457070Y-6337826D01*
X5458835Y-6337700D01*
X5590165Y-6337700D01*
X5596869Y-6339668D01*
G37*
%TD.AperFunction*%
%TA.AperFunction,Conductor*%
G36*
X5850869Y-6339668D02*
G01*
X5855445Y-6344949D01*
X5856439Y-6351865D01*
X5856063Y-6353593D01*
X5855500Y-6355511D01*
X5855500Y-6369889D01*
X5856063Y-6371807D01*
X5856063Y-6378794D01*
X5852285Y-6384671D01*
X5845930Y-6387574D01*
X5844165Y-6387700D01*
X5712835Y-6387700D01*
X5706131Y-6385731D01*
X5701555Y-6380451D01*
X5700561Y-6373535D01*
X5700937Y-6371807D01*
X5701500Y-6369889D01*
X5701500Y-6355511D01*
X5700937Y-6353593D01*
X5700937Y-6346606D01*
X5704714Y-6340729D01*
X5711070Y-6337826D01*
X5712835Y-6337700D01*
X5844165Y-6337700D01*
X5850869Y-6339668D01*
G37*
%TD.AperFunction*%
%TA.AperFunction,Conductor*%
G36*
X6104869Y-6339668D02*
G01*
X6109445Y-6344949D01*
X6110439Y-6351865D01*
X6110063Y-6353593D01*
X6109500Y-6355511D01*
X6109500Y-6369889D01*
X6110063Y-6371807D01*
X6110063Y-6378794D01*
X6106285Y-6384671D01*
X6099930Y-6387574D01*
X6098165Y-6387700D01*
X5966835Y-6387700D01*
X5960131Y-6385731D01*
X5955555Y-6380451D01*
X5954561Y-6373535D01*
X5954937Y-6371807D01*
X5955500Y-6369889D01*
X5955500Y-6355511D01*
X5954937Y-6353593D01*
X5954937Y-6346606D01*
X5958714Y-6340729D01*
X5965070Y-6337826D01*
X5966835Y-6337700D01*
X6098165Y-6337700D01*
X6104869Y-6339668D01*
G37*
%TD.AperFunction*%
%TA.AperFunction,Conductor*%
G36*
X6794254Y-4067518D02*
G01*
X6798829Y-4072799D01*
X6799950Y-4077950D01*
X6799950Y-7317617D01*
X6797981Y-7324321D01*
X6792701Y-7328896D01*
X6787567Y-7330017D01*
X5012467Y-7332483D01*
X5005761Y-7330523D01*
X5001178Y-7325249D01*
X5000050Y-7320083D01*
X5000050Y-7035800D01*
X5115868Y-7035800D01*
X5117792Y-7054103D01*
X5117792Y-7054103D01*
X5123478Y-7071605D01*
X5123479Y-7071606D01*
X5132681Y-7087544D01*
X5142024Y-7097921D01*
X5144995Y-7101221D01*
X5144995Y-7101221D01*
X5159883Y-7112038D01*
X5159884Y-7112038D01*
X5159884Y-7112038D01*
X5172725Y-7117755D01*
X5176696Y-7119523D01*
X5176697Y-7119524D01*
X5194698Y-7123350D01*
X5213102Y-7123350D01*
X5231103Y-7119524D01*
X5247916Y-7112038D01*
X5262805Y-7101221D01*
X5275120Y-7087544D01*
X5284321Y-7071606D01*
X5290009Y-7054103D01*
X5291568Y-7039265D01*
X5292986Y-7035818D01*
X5291702Y-7033269D01*
X5291568Y-7032334D01*
X5291482Y-7031514D01*
X5290009Y-7017497D01*
X5286306Y-7006102D01*
X5284322Y-6999995D01*
X5284321Y-6999994D01*
X5282587Y-6996990D01*
X5275120Y-6984056D01*
X5262805Y-6970379D01*
X5262805Y-6970379D01*
X5247916Y-6959562D01*
X5241306Y-6956619D01*
X5235983Y-6952094D01*
X5233951Y-6945409D01*
X5233950Y-6945291D01*
X5233950Y-6827883D01*
X5235919Y-6821179D01*
X5237581Y-6819116D01*
X5331315Y-6725382D01*
X5337448Y-6722033D01*
X5340083Y-6721750D01*
X5474017Y-6721750D01*
X5480721Y-6723718D01*
X5485296Y-6728999D01*
X5486290Y-6735915D01*
X5483388Y-6742270D01*
X5482785Y-6742918D01*
X5387095Y-6838608D01*
X5386446Y-6839172D01*
X5385477Y-6839904D01*
X5382256Y-6843437D01*
X5382059Y-6843644D01*
X5380683Y-6845020D01*
X5380682Y-6845021D01*
X5380531Y-6845242D01*
X5379998Y-6845915D01*
X5377908Y-6848207D01*
X5377908Y-6848207D01*
X5377658Y-6848853D01*
X5376326Y-6851380D01*
X5375935Y-6851951D01*
X5375934Y-6851952D01*
X5375224Y-6854970D01*
X5374970Y-6855791D01*
X5373850Y-6858683D01*
X5373850Y-6859375D01*
X5373521Y-6862214D01*
X5373362Y-6862888D01*
X5373362Y-6862888D01*
X5373791Y-6865959D01*
X5373850Y-6866817D01*
X5373850Y-6945291D01*
X5371882Y-6951995D01*
X5366601Y-6956570D01*
X5366494Y-6956619D01*
X5359884Y-6959562D01*
X5344995Y-6970379D01*
X5344995Y-6970379D01*
X5332680Y-6984056D01*
X5323479Y-6999994D01*
X5323478Y-6999995D01*
X5317792Y-7017497D01*
X5317792Y-7017497D01*
X5317183Y-7023285D01*
X5316232Y-7032334D01*
X5314814Y-7035781D01*
X5316098Y-7038331D01*
X5316232Y-7039265D01*
X5317792Y-7054103D01*
X5317792Y-7054103D01*
X5323478Y-7071605D01*
X5323479Y-7071606D01*
X5332681Y-7087544D01*
X5342024Y-7097921D01*
X5344995Y-7101221D01*
X5344995Y-7101221D01*
X5359883Y-7112038D01*
X5359884Y-7112038D01*
X5359884Y-7112038D01*
X5372725Y-7117755D01*
X5376696Y-7119523D01*
X5376697Y-7119524D01*
X5394698Y-7123350D01*
X5413102Y-7123350D01*
X5431103Y-7119524D01*
X5447916Y-7112038D01*
X5462805Y-7101221D01*
X5475120Y-7087544D01*
X5484321Y-7071606D01*
X5490009Y-7054103D01*
X5491568Y-7039265D01*
X5492986Y-7035818D01*
X5491702Y-7033269D01*
X5491568Y-7032334D01*
X5491482Y-7031514D01*
X5490009Y-7017497D01*
X5486306Y-7006102D01*
X5484322Y-6999995D01*
X5484321Y-6999994D01*
X5482587Y-6996990D01*
X5475120Y-6984056D01*
X5462805Y-6970379D01*
X5462805Y-6970379D01*
X5447916Y-6959562D01*
X5441306Y-6956619D01*
X5435983Y-6952094D01*
X5433951Y-6945409D01*
X5433950Y-6945291D01*
X5433950Y-6881883D01*
X5435919Y-6875179D01*
X5437581Y-6873116D01*
X5595067Y-6715630D01*
X5601199Y-6712281D01*
X5608169Y-6712780D01*
X5609680Y-6713462D01*
X5610549Y-6713926D01*
X5611105Y-6714223D01*
X5630907Y-6720230D01*
X5630906Y-6720230D01*
X5632935Y-6720430D01*
X5651500Y-6722258D01*
X5672093Y-6720230D01*
X5691895Y-6714223D01*
X5710145Y-6704468D01*
X5726141Y-6691341D01*
X5739268Y-6675345D01*
X5749023Y-6657095D01*
X5755030Y-6637293D01*
X5757058Y-6616700D01*
X5755030Y-6596107D01*
X5749023Y-6576305D01*
X5739268Y-6558055D01*
X5734070Y-6551721D01*
X5726141Y-6542059D01*
X5711112Y-6529725D01*
X5710145Y-6528931D01*
X5691895Y-6519177D01*
X5685245Y-6517159D01*
X5679401Y-6513330D01*
X5676555Y-6506948D01*
X5677611Y-6500042D01*
X5682234Y-6494802D01*
X5685635Y-6493316D01*
X5697848Y-6490043D01*
X5697849Y-6490043D01*
X5719258Y-6480060D01*
X5738608Y-6466510D01*
X5755310Y-6449808D01*
X5768342Y-6431197D01*
X5773800Y-6426834D01*
X5780750Y-6426115D01*
X5786985Y-6429267D01*
X5788657Y-6431197D01*
X5801689Y-6449808D01*
X5818392Y-6466510D01*
X5837742Y-6480060D01*
X5859151Y-6490043D01*
X5859152Y-6490043D01*
X5871365Y-6493316D01*
X5877331Y-6496952D01*
X5880384Y-6503237D01*
X5879554Y-6510174D01*
X5875106Y-6515562D01*
X5871755Y-6517159D01*
X5865105Y-6519177D01*
X5856311Y-6523877D01*
X5846855Y-6528931D01*
X5846855Y-6528932D01*
X5846855Y-6528932D01*
X5830859Y-6542059D01*
X5817732Y-6558055D01*
X5807977Y-6576304D01*
X5801970Y-6596107D01*
X5799942Y-6616700D01*
X5801970Y-6637293D01*
X5807977Y-6657096D01*
X5808738Y-6658519D01*
X5810162Y-6665360D01*
X5807662Y-6671884D01*
X5806570Y-6673133D01*
X5587095Y-6892608D01*
X5586446Y-6893172D01*
X5585477Y-6893904D01*
X5582256Y-6897437D01*
X5582059Y-6897644D01*
X5580683Y-6899020D01*
X5580682Y-6899021D01*
X5580531Y-6899242D01*
X5579998Y-6899915D01*
X5577908Y-6902207D01*
X5577908Y-6902207D01*
X5577658Y-6902853D01*
X5576326Y-6905380D01*
X5575935Y-6905951D01*
X5575934Y-6905952D01*
X5575224Y-6908970D01*
X5574970Y-6909791D01*
X5573850Y-6912683D01*
X5573850Y-6913375D01*
X5573521Y-6916214D01*
X5573362Y-6916888D01*
X5573362Y-6916888D01*
X5573790Y-6919959D01*
X5573850Y-6920817D01*
X5573850Y-6945291D01*
X5571882Y-6951995D01*
X5566601Y-6956570D01*
X5566494Y-6956619D01*
X5559884Y-6959562D01*
X5544995Y-6970379D01*
X5544995Y-6970379D01*
X5532680Y-6984056D01*
X5523479Y-6999994D01*
X5523478Y-6999995D01*
X5517792Y-7017497D01*
X5517792Y-7017497D01*
X5517183Y-7023285D01*
X5516232Y-7032334D01*
X5514814Y-7035781D01*
X5516098Y-7038331D01*
X5516232Y-7039265D01*
X5517792Y-7054103D01*
X5517792Y-7054103D01*
X5523478Y-7071605D01*
X5523479Y-7071606D01*
X5532681Y-7087544D01*
X5542024Y-7097921D01*
X5544995Y-7101221D01*
X5544995Y-7101221D01*
X5559883Y-7112038D01*
X5559884Y-7112038D01*
X5559884Y-7112038D01*
X5572725Y-7117755D01*
X5576696Y-7119523D01*
X5576697Y-7119524D01*
X5594698Y-7123350D01*
X5613102Y-7123350D01*
X5631103Y-7119524D01*
X5647916Y-7112038D01*
X5662805Y-7101221D01*
X5675119Y-7087544D01*
X5676076Y-7085887D01*
X5681132Y-7081066D01*
X5687993Y-7079743D01*
X5694479Y-7082340D01*
X5697915Y-7086560D01*
X5703571Y-7097921D01*
X5716694Y-7115298D01*
X5732787Y-7129968D01*
X5751301Y-7141432D01*
X5751302Y-7141433D01*
X5771606Y-7149298D01*
X5778900Y-7150662D01*
X5778900Y-7086857D01*
X5780868Y-7080154D01*
X5786149Y-7075578D01*
X5793065Y-7074584D01*
X5793233Y-7074609D01*
X5796470Y-7075122D01*
X5800751Y-7075800D01*
X5800752Y-7075800D01*
X5807048Y-7075800D01*
X5811330Y-7075122D01*
X5814560Y-7074610D01*
X5821489Y-7075506D01*
X5826835Y-7080005D01*
X5828899Y-7086680D01*
X5828900Y-7086857D01*
X5828900Y-7150662D01*
X5836194Y-7149298D01*
X5856498Y-7141433D01*
X5856499Y-7141432D01*
X5875013Y-7129968D01*
X5875013Y-7129968D01*
X5891105Y-7115298D01*
X5904228Y-7097921D01*
X5909885Y-7086560D01*
X5914635Y-7081437D01*
X5921402Y-7079694D01*
X5928036Y-7081887D01*
X5931724Y-7085887D01*
X5932680Y-7087544D01*
X5944995Y-7101221D01*
X5944995Y-7101221D01*
X5959883Y-7112038D01*
X5959883Y-7112038D01*
X5959884Y-7112038D01*
X5972725Y-7117755D01*
X5976696Y-7119523D01*
X5976697Y-7119524D01*
X5994698Y-7123350D01*
X6013102Y-7123350D01*
X6031103Y-7119524D01*
X6047916Y-7112038D01*
X6062805Y-7101221D01*
X6075119Y-7087544D01*
X6084321Y-7071606D01*
X6090008Y-7054103D01*
X6091568Y-7039265D01*
X6092986Y-7035818D01*
X6092968Y-7035781D01*
X6114814Y-7035781D01*
X6116098Y-7038331D01*
X6116232Y-7039265D01*
X6117791Y-7054103D01*
X6117792Y-7054103D01*
X6123478Y-7071605D01*
X6123479Y-7071606D01*
X6132680Y-7087544D01*
X6142024Y-7097921D01*
X6144995Y-7101221D01*
X6144995Y-7101221D01*
X6159883Y-7112038D01*
X6159883Y-7112038D01*
X6159884Y-7112038D01*
X6172725Y-7117755D01*
X6176696Y-7119523D01*
X6176697Y-7119524D01*
X6194698Y-7123350D01*
X6213102Y-7123350D01*
X6231103Y-7119524D01*
X6247916Y-7112038D01*
X6262805Y-7101221D01*
X6275119Y-7087544D01*
X6284321Y-7071606D01*
X6290008Y-7054103D01*
X6291568Y-7039265D01*
X6292986Y-7035818D01*
X6292968Y-7035781D01*
X6314814Y-7035781D01*
X6316098Y-7038331D01*
X6316232Y-7039265D01*
X6317791Y-7054103D01*
X6317792Y-7054103D01*
X6323478Y-7071605D01*
X6323479Y-7071606D01*
X6332680Y-7087544D01*
X6342024Y-7097921D01*
X6344995Y-7101221D01*
X6344995Y-7101221D01*
X6359883Y-7112038D01*
X6359883Y-7112038D01*
X6359884Y-7112038D01*
X6372725Y-7117755D01*
X6376696Y-7119523D01*
X6376697Y-7119524D01*
X6394698Y-7123350D01*
X6413102Y-7123350D01*
X6431103Y-7119524D01*
X6447916Y-7112038D01*
X6462805Y-7101221D01*
X6475119Y-7087544D01*
X6484321Y-7071606D01*
X6490008Y-7054103D01*
X6491618Y-7038790D01*
X6492736Y-7036072D01*
X6492052Y-7035007D01*
X6491618Y-7032810D01*
X6491482Y-7031514D01*
X6490008Y-7017497D01*
X6486306Y-7006102D01*
X6484322Y-6999995D01*
X6484321Y-6999994D01*
X6482587Y-6996990D01*
X6475119Y-6984056D01*
X6462805Y-6970379D01*
X6462805Y-6970379D01*
X6447916Y-6959562D01*
X6447916Y-6959562D01*
X6447916Y-6959562D01*
X6440593Y-6956301D01*
X6431104Y-6952076D01*
X6431103Y-6952076D01*
X6413102Y-6948250D01*
X6394698Y-6948250D01*
X6376697Y-6952076D01*
X6376696Y-6952076D01*
X6359884Y-6959562D01*
X6359883Y-6959562D01*
X6344995Y-6970379D01*
X6344995Y-6970379D01*
X6332680Y-6984056D01*
X6323479Y-6999994D01*
X6323478Y-6999995D01*
X6317792Y-7017497D01*
X6317791Y-7017497D01*
X6317183Y-7023285D01*
X6316232Y-7032334D01*
X6314814Y-7035781D01*
X6292968Y-7035781D01*
X6291702Y-7033269D01*
X6291568Y-7032334D01*
X6291482Y-7031514D01*
X6290008Y-7017497D01*
X6286306Y-7006102D01*
X6284322Y-6999995D01*
X6284321Y-6999994D01*
X6282587Y-6996990D01*
X6275119Y-6984056D01*
X6262805Y-6970379D01*
X6262805Y-6970379D01*
X6247916Y-6959562D01*
X6247916Y-6959562D01*
X6247916Y-6959562D01*
X6240593Y-6956301D01*
X6231104Y-6952076D01*
X6231103Y-6952076D01*
X6213102Y-6948250D01*
X6194698Y-6948250D01*
X6176697Y-6952076D01*
X6176696Y-6952076D01*
X6159884Y-6959562D01*
X6159883Y-6959562D01*
X6144995Y-6970379D01*
X6144995Y-6970379D01*
X6132680Y-6984056D01*
X6123479Y-6999994D01*
X6123478Y-6999995D01*
X6117792Y-7017497D01*
X6117791Y-7017497D01*
X6117183Y-7023285D01*
X6116232Y-7032334D01*
X6114814Y-7035781D01*
X6092968Y-7035781D01*
X6091702Y-7033269D01*
X6091568Y-7032334D01*
X6091482Y-7031514D01*
X6090008Y-7017497D01*
X6086306Y-7006102D01*
X6084322Y-6999995D01*
X6084321Y-6999994D01*
X6082587Y-6996990D01*
X6075119Y-6984056D01*
X6062805Y-6970379D01*
X6062805Y-6970379D01*
X6047916Y-6959562D01*
X6041306Y-6956619D01*
X6035983Y-6952094D01*
X6033951Y-6945409D01*
X6033950Y-6945291D01*
X6033950Y-6789883D01*
X6035918Y-6783179D01*
X6037581Y-6781115D01*
X6103067Y-6715630D01*
X6109199Y-6712281D01*
X6116169Y-6712780D01*
X6117680Y-6713462D01*
X6119105Y-6714223D01*
X6138907Y-6720230D01*
X6138906Y-6720230D01*
X6140753Y-6720412D01*
X6159500Y-6722258D01*
X6180093Y-6720230D01*
X6199895Y-6714223D01*
X6218145Y-6704468D01*
X6234141Y-6691341D01*
X6247268Y-6675345D01*
X6257023Y-6657095D01*
X6263030Y-6637293D01*
X6265058Y-6616700D01*
X6263030Y-6596107D01*
X6257023Y-6576305D01*
X6247268Y-6558055D01*
X6242070Y-6551721D01*
X6234141Y-6542059D01*
X6219112Y-6529725D01*
X6218145Y-6528931D01*
X6199895Y-6519177D01*
X6193245Y-6517159D01*
X6187401Y-6513330D01*
X6184555Y-6506948D01*
X6185611Y-6500042D01*
X6190234Y-6494802D01*
X6193635Y-6493316D01*
X6205848Y-6490043D01*
X6205849Y-6490043D01*
X6227258Y-6480060D01*
X6246608Y-6466510D01*
X6263310Y-6449808D01*
X6276860Y-6430458D01*
X6286843Y-6409049D01*
X6286843Y-6409048D01*
X6290116Y-6396835D01*
X6293752Y-6390869D01*
X6300037Y-6387816D01*
X6306974Y-6388645D01*
X6312362Y-6393094D01*
X6313959Y-6396445D01*
X6315977Y-6403095D01*
X6325731Y-6421345D01*
X6325732Y-6421345D01*
X6338859Y-6437341D01*
X6348521Y-6445270D01*
X6354855Y-6450468D01*
X6373105Y-6460223D01*
X6392907Y-6466230D01*
X6392906Y-6466230D01*
X6394753Y-6466412D01*
X6413500Y-6468258D01*
X6434093Y-6466230D01*
X6453895Y-6460223D01*
X6472145Y-6450468D01*
X6488141Y-6437341D01*
X6501268Y-6421345D01*
X6511023Y-6403095D01*
X6517030Y-6383293D01*
X6519058Y-6362700D01*
X6517030Y-6342107D01*
X6511023Y-6322305D01*
X6501268Y-6304055D01*
X6493183Y-6294203D01*
X6488141Y-6288059D01*
X6476368Y-6278397D01*
X6472145Y-6274931D01*
X6453895Y-6265177D01*
X6434093Y-6259170D01*
X6434093Y-6259170D01*
X6434093Y-6259170D01*
X6413500Y-6257142D01*
X6392907Y-6259170D01*
X6373104Y-6265177D01*
X6362090Y-6271064D01*
X6354855Y-6274931D01*
X6354855Y-6274932D01*
X6354855Y-6274932D01*
X6338859Y-6288059D01*
X6325732Y-6304055D01*
X6325731Y-6304055D01*
X6323530Y-6308174D01*
X6315977Y-6322305D01*
X6313959Y-6328955D01*
X6310130Y-6334799D01*
X6303748Y-6337645D01*
X6296842Y-6336589D01*
X6291602Y-6331966D01*
X6290116Y-6328565D01*
X6286843Y-6316352D01*
X6286843Y-6316351D01*
X6276860Y-6294942D01*
X6276860Y-6294942D01*
X6263311Y-6275593D01*
X6263311Y-6275592D01*
X6246608Y-6258889D01*
X6227258Y-6245340D01*
X6205849Y-6235357D01*
X6205849Y-6235357D01*
X6184500Y-6229636D01*
X6184500Y-6301470D01*
X6182531Y-6308174D01*
X6177251Y-6312749D01*
X6170335Y-6313744D01*
X6163077Y-6312700D01*
X6163076Y-6312700D01*
X6155924Y-6312700D01*
X6155923Y-6312700D01*
X6148664Y-6313744D01*
X6141749Y-6312749D01*
X6136468Y-6308174D01*
X6134500Y-6301470D01*
X6134500Y-6229636D01*
X6113151Y-6235357D01*
X6113151Y-6235357D01*
X6091742Y-6245340D01*
X6091742Y-6245340D01*
X6072393Y-6258889D01*
X6072392Y-6258889D01*
X6055689Y-6275592D01*
X6055689Y-6275592D01*
X6042657Y-6294203D01*
X6037200Y-6298565D01*
X6030250Y-6299285D01*
X6024014Y-6296133D01*
X6022342Y-6294203D01*
X6009311Y-6275592D01*
X6009311Y-6275592D01*
X5992608Y-6258889D01*
X5973258Y-6245340D01*
X5951849Y-6235357D01*
X5951849Y-6235357D01*
X5930500Y-6229636D01*
X5930500Y-6229636D01*
X5930500Y-6301470D01*
X5928531Y-6308174D01*
X5923251Y-6312749D01*
X5916335Y-6313744D01*
X5909076Y-6312700D01*
X5909076Y-6312700D01*
X5901924Y-6312700D01*
X5901923Y-6312700D01*
X5894664Y-6313744D01*
X5887749Y-6312749D01*
X5882468Y-6308174D01*
X5880500Y-6301470D01*
X5880500Y-6229636D01*
X5880500Y-6229636D01*
X5859151Y-6235357D01*
X5859151Y-6235357D01*
X5837742Y-6245340D01*
X5837742Y-6245340D01*
X5818393Y-6258889D01*
X5818392Y-6258889D01*
X5801689Y-6275592D01*
X5801689Y-6275592D01*
X5788657Y-6294203D01*
X5783200Y-6298565D01*
X5776250Y-6299285D01*
X5770014Y-6296133D01*
X5768342Y-6294203D01*
X5755311Y-6275592D01*
X5755311Y-6275592D01*
X5738608Y-6258889D01*
X5719258Y-6245340D01*
X5697849Y-6235357D01*
X5697849Y-6235357D01*
X5676500Y-6229636D01*
X5676500Y-6301470D01*
X5674531Y-6308174D01*
X5669251Y-6312749D01*
X5662335Y-6313744D01*
X5655077Y-6312700D01*
X5655076Y-6312700D01*
X5647924Y-6312700D01*
X5647923Y-6312700D01*
X5640664Y-6313744D01*
X5633749Y-6312749D01*
X5628468Y-6308174D01*
X5626500Y-6301470D01*
X5626500Y-6229636D01*
X5626500Y-6229636D01*
X5605151Y-6235357D01*
X5605151Y-6235357D01*
X5583742Y-6245340D01*
X5583742Y-6245340D01*
X5564393Y-6258889D01*
X5564392Y-6258889D01*
X5547689Y-6275592D01*
X5547689Y-6275592D01*
X5534658Y-6294203D01*
X5529200Y-6298565D01*
X5522250Y-6299285D01*
X5516015Y-6296133D01*
X5514343Y-6294203D01*
X5501311Y-6275592D01*
X5501311Y-6275592D01*
X5484608Y-6258889D01*
X5465258Y-6245340D01*
X5443849Y-6235357D01*
X5443849Y-6235357D01*
X5422500Y-6229636D01*
X5422500Y-6301470D01*
X5420532Y-6308174D01*
X5415251Y-6312749D01*
X5408336Y-6313744D01*
X5401077Y-6312700D01*
X5401076Y-6312700D01*
X5393924Y-6312700D01*
X5393923Y-6312700D01*
X5386665Y-6313744D01*
X5379749Y-6312749D01*
X5374468Y-6308174D01*
X5372500Y-6301470D01*
X5372500Y-6229636D01*
X5372500Y-6229636D01*
X5351151Y-6235357D01*
X5351151Y-6235357D01*
X5329742Y-6245340D01*
X5329742Y-6245340D01*
X5310393Y-6258889D01*
X5310392Y-6258889D01*
X5293689Y-6275592D01*
X5293689Y-6275593D01*
X5280140Y-6294942D01*
X5280140Y-6294942D01*
X5270157Y-6316351D01*
X5270157Y-6316351D01*
X5264436Y-6337700D01*
X5264436Y-6337700D01*
X5336165Y-6337700D01*
X5342869Y-6339668D01*
X5347445Y-6344949D01*
X5348439Y-6351865D01*
X5348063Y-6353593D01*
X5347500Y-6355511D01*
X5347500Y-6369889D01*
X5348063Y-6371807D01*
X5348063Y-6378794D01*
X5344286Y-6384671D01*
X5337930Y-6387574D01*
X5336165Y-6387700D01*
X5264436Y-6387700D01*
X5270157Y-6409049D01*
X5270157Y-6409049D01*
X5280140Y-6430458D01*
X5293689Y-6449808D01*
X5310392Y-6466510D01*
X5329742Y-6480060D01*
X5346795Y-6488012D01*
X5352039Y-6492629D01*
X5353954Y-6499348D01*
X5351932Y-6506036D01*
X5346616Y-6510570D01*
X5341554Y-6511650D01*
X5310525Y-6511650D01*
X5304677Y-6512813D01*
X5304677Y-6512813D01*
X5298045Y-6517245D01*
X5293613Y-6523877D01*
X5293613Y-6523877D01*
X5292450Y-6529725D01*
X5292450Y-6674117D01*
X5290482Y-6680820D01*
X5288818Y-6682885D01*
X5187095Y-6784608D01*
X5186446Y-6785172D01*
X5185477Y-6785904D01*
X5182256Y-6789437D01*
X5182059Y-6789644D01*
X5180683Y-6791020D01*
X5180682Y-6791021D01*
X5180531Y-6791242D01*
X5179998Y-6791915D01*
X5177908Y-6794207D01*
X5177908Y-6794207D01*
X5177658Y-6794853D01*
X5176326Y-6797380D01*
X5175935Y-6797951D01*
X5175934Y-6797952D01*
X5175224Y-6800970D01*
X5174970Y-6801791D01*
X5173850Y-6804683D01*
X5173850Y-6805375D01*
X5173521Y-6808214D01*
X5173362Y-6808888D01*
X5173362Y-6808888D01*
X5173791Y-6811959D01*
X5173850Y-6812817D01*
X5173850Y-6945291D01*
X5171882Y-6951995D01*
X5166601Y-6956570D01*
X5166494Y-6956619D01*
X5159884Y-6959562D01*
X5144995Y-6970379D01*
X5144995Y-6970379D01*
X5132680Y-6984056D01*
X5123479Y-6999994D01*
X5123478Y-6999995D01*
X5117792Y-7017497D01*
X5117792Y-7017497D01*
X5115868Y-7035800D01*
X5000050Y-7035800D01*
X5000050Y-5754100D01*
X5217200Y-5754100D01*
X5284800Y-5754100D01*
X5291504Y-5756068D01*
X5296079Y-5761349D01*
X5297200Y-5766500D01*
X5297200Y-5791700D01*
X5295232Y-5798404D01*
X5289951Y-5802979D01*
X5284800Y-5804100D01*
X5217200Y-5804100D01*
X5217200Y-5839258D01*
X5218719Y-5854683D01*
X5224723Y-5874477D01*
X5234473Y-5892717D01*
X5234473Y-5892717D01*
X5247594Y-5908705D01*
X5263583Y-5921827D01*
X5263583Y-5921827D01*
X5281823Y-5931577D01*
X5297200Y-5936241D01*
X5297200Y-5849726D01*
X5299169Y-5843022D01*
X5304449Y-5838447D01*
X5311365Y-5837453D01*
X5312019Y-5837565D01*
X5322200Y-5839590D01*
X5322200Y-5839590D01*
X5322200Y-5839590D01*
X5332381Y-5837565D01*
X5339340Y-5838187D01*
X5344858Y-5842474D01*
X5347182Y-5849063D01*
X5347200Y-5849726D01*
X5347200Y-5936241D01*
X5362577Y-5931577D01*
X5380817Y-5921827D01*
X5380817Y-5921827D01*
X5390495Y-5913884D01*
X6040800Y-5913884D01*
X6041440Y-5919837D01*
X6041440Y-5919838D01*
X6046464Y-5933309D01*
X6046465Y-5933309D01*
X6055081Y-5944819D01*
X6055081Y-5944819D01*
X6066591Y-5953435D01*
X6066591Y-5953435D01*
X6080062Y-5958460D01*
X6080063Y-5958460D01*
X6086015Y-5959100D01*
X6086017Y-5959100D01*
X6150800Y-5959100D01*
X6150800Y-5885330D01*
X6152768Y-5878626D01*
X6158049Y-5874051D01*
X6164965Y-5873056D01*
X6172224Y-5874100D01*
X6172224Y-5874100D01*
X6179376Y-5874100D01*
X6179376Y-5874100D01*
X6186635Y-5873056D01*
X6193551Y-5874051D01*
X6198831Y-5878626D01*
X6200800Y-5885330D01*
X6200800Y-5959100D01*
X6265583Y-5959100D01*
X6265584Y-5959100D01*
X6271537Y-5958460D01*
X6271538Y-5958460D01*
X6285009Y-5953435D01*
X6285009Y-5953435D01*
X6296519Y-5944819D01*
X6296519Y-5944819D01*
X6305135Y-5933309D01*
X6305135Y-5933309D01*
X6310160Y-5919838D01*
X6310160Y-5919837D01*
X6310800Y-5913884D01*
X6310800Y-5913883D01*
X6310800Y-5849100D01*
X6237135Y-5849100D01*
X6230431Y-5847131D01*
X6225855Y-5841851D01*
X6224861Y-5834935D01*
X6225237Y-5833207D01*
X6225800Y-5831289D01*
X6225800Y-5816911D01*
X6225237Y-5814993D01*
X6225237Y-5808006D01*
X6229014Y-5802129D01*
X6235370Y-5799226D01*
X6237135Y-5799100D01*
X6310800Y-5799100D01*
X6310800Y-5734317D01*
X6310800Y-5734315D01*
X6310160Y-5728363D01*
X6310160Y-5728362D01*
X6305135Y-5714891D01*
X6305135Y-5714891D01*
X6296519Y-5703381D01*
X6296519Y-5703381D01*
X6285009Y-5694765D01*
X6285009Y-5694764D01*
X6271538Y-5689740D01*
X6271537Y-5689740D01*
X6265584Y-5689100D01*
X6200800Y-5689100D01*
X6200800Y-5762870D01*
X6198831Y-5769574D01*
X6193551Y-5774149D01*
X6186635Y-5775144D01*
X6179377Y-5774100D01*
X6179376Y-5774100D01*
X6172224Y-5774100D01*
X6172223Y-5774100D01*
X6164964Y-5775144D01*
X6158049Y-5774149D01*
X6152768Y-5769574D01*
X6150800Y-5762870D01*
X6150800Y-5689100D01*
X6086015Y-5689100D01*
X6080063Y-5689740D01*
X6080062Y-5689740D01*
X6066591Y-5694764D01*
X6066591Y-5694765D01*
X6055081Y-5703381D01*
X6055081Y-5703381D01*
X6046465Y-5714891D01*
X6046464Y-5714891D01*
X6041440Y-5728362D01*
X6041440Y-5728363D01*
X6040800Y-5734315D01*
X6040800Y-5799100D01*
X6114465Y-5799100D01*
X6121169Y-5801068D01*
X6125745Y-5806349D01*
X6126739Y-5813265D01*
X6126363Y-5814993D01*
X6125800Y-5816911D01*
X6125800Y-5831289D01*
X6126363Y-5833207D01*
X6126363Y-5840194D01*
X6122585Y-5846071D01*
X6116230Y-5848974D01*
X6114465Y-5849100D01*
X6040800Y-5849100D01*
X6040800Y-5913884D01*
X5390495Y-5913884D01*
X5396806Y-5908705D01*
X5409927Y-5892717D01*
X5409927Y-5892717D01*
X5419677Y-5874477D01*
X5425681Y-5854683D01*
X5427200Y-5839258D01*
X5427200Y-5804100D01*
X5359600Y-5804100D01*
X5352896Y-5802131D01*
X5348321Y-5796851D01*
X5347200Y-5791700D01*
X5347200Y-5766500D01*
X5349169Y-5759796D01*
X5354449Y-5755221D01*
X5359600Y-5754100D01*
X5427200Y-5754100D01*
X5427200Y-5718941D01*
X5425681Y-5703516D01*
X5419677Y-5683723D01*
X5409927Y-5665483D01*
X5409927Y-5665483D01*
X5396806Y-5649494D01*
X5380817Y-5636373D01*
X5380817Y-5636373D01*
X5362576Y-5626623D01*
X5347200Y-5621959D01*
X5347200Y-5708473D01*
X5345232Y-5715177D01*
X5339951Y-5719753D01*
X5333035Y-5720747D01*
X5332381Y-5720635D01*
X5323866Y-5718941D01*
X5322200Y-5718610D01*
X5322200Y-5718610D01*
X5312019Y-5720635D01*
X5305060Y-5720012D01*
X5299542Y-5715726D01*
X5297218Y-5709137D01*
X5297200Y-5708473D01*
X5297200Y-5621959D01*
X5281824Y-5626623D01*
X5263583Y-5636373D01*
X5263583Y-5636373D01*
X5247594Y-5649494D01*
X5234473Y-5665483D01*
X5234473Y-5665483D01*
X5224723Y-5683723D01*
X5218719Y-5703516D01*
X5217200Y-5718941D01*
X5217200Y-5754100D01*
X5000050Y-5754100D01*
X5000050Y-5559258D01*
X5432200Y-5559258D01*
X5433719Y-5574683D01*
X5439723Y-5594477D01*
X5449473Y-5612717D01*
X5449473Y-5612717D01*
X5462594Y-5628705D01*
X5478583Y-5641827D01*
X5478583Y-5641827D01*
X5496823Y-5651577D01*
X5512200Y-5656241D01*
X5512200Y-5656241D01*
X5512200Y-5589726D01*
X5514168Y-5583023D01*
X5519449Y-5578447D01*
X5526365Y-5577453D01*
X5527019Y-5577565D01*
X5537200Y-5579590D01*
X5537200Y-5579590D01*
X5537200Y-5579590D01*
X5547381Y-5577565D01*
X5554340Y-5578187D01*
X5559858Y-5582474D01*
X5562182Y-5589063D01*
X5562200Y-5589726D01*
X5562200Y-5656241D01*
X5577577Y-5651577D01*
X5595817Y-5641827D01*
X5595817Y-5641827D01*
X5611805Y-5628705D01*
X5624927Y-5612717D01*
X5624927Y-5612717D01*
X5634677Y-5594477D01*
X5640681Y-5574683D01*
X5642200Y-5559258D01*
X5642200Y-5524100D01*
X5574600Y-5524100D01*
X5567896Y-5522132D01*
X5563321Y-5516851D01*
X5562200Y-5511700D01*
X5562200Y-5486500D01*
X5564169Y-5479796D01*
X5569449Y-5475221D01*
X5574600Y-5474100D01*
X5642200Y-5474100D01*
X5642200Y-5438942D01*
X5640681Y-5423517D01*
X5634677Y-5403723D01*
X5624927Y-5385483D01*
X5624927Y-5385483D01*
X5611805Y-5369494D01*
X5595817Y-5356373D01*
X5595817Y-5356373D01*
X5577576Y-5346623D01*
X5562200Y-5341959D01*
X5562200Y-5408474D01*
X5560232Y-5415177D01*
X5554951Y-5419753D01*
X5548035Y-5420747D01*
X5547381Y-5420635D01*
X5542743Y-5419713D01*
X5537200Y-5418610D01*
X5537200Y-5418610D01*
X5527019Y-5420635D01*
X5520060Y-5420012D01*
X5514542Y-5415726D01*
X5512218Y-5409137D01*
X5512200Y-5408474D01*
X5512200Y-5341959D01*
X5496824Y-5346623D01*
X5478583Y-5356373D01*
X5478583Y-5356373D01*
X5462594Y-5369494D01*
X5449473Y-5385483D01*
X5449473Y-5385483D01*
X5439723Y-5403723D01*
X5433719Y-5423517D01*
X5432200Y-5438942D01*
X5432200Y-5474100D01*
X5499800Y-5474100D01*
X5506504Y-5476069D01*
X5511079Y-5481349D01*
X5512200Y-5486500D01*
X5512200Y-5511700D01*
X5510232Y-5518404D01*
X5504951Y-5522979D01*
X5499800Y-5524100D01*
X5432200Y-5524100D01*
X5432200Y-5559258D01*
X5000050Y-5559258D01*
X5000050Y-5194100D01*
X5217200Y-5194100D01*
X5284800Y-5194100D01*
X5291504Y-5196069D01*
X5296079Y-5201349D01*
X5297200Y-5206500D01*
X5297200Y-5231700D01*
X5295232Y-5238404D01*
X5289951Y-5242979D01*
X5284800Y-5244100D01*
X5217200Y-5244100D01*
X5217200Y-5279258D01*
X5218719Y-5294683D01*
X5224723Y-5314477D01*
X5234473Y-5332717D01*
X5234473Y-5332717D01*
X5247594Y-5348706D01*
X5263583Y-5361827D01*
X5263583Y-5361827D01*
X5281823Y-5371577D01*
X5297200Y-5376241D01*
X5297200Y-5289726D01*
X5299169Y-5283023D01*
X5304449Y-5278447D01*
X5311365Y-5277453D01*
X5312019Y-5277565D01*
X5322200Y-5279590D01*
X5322200Y-5279590D01*
X5322200Y-5279590D01*
X5332381Y-5277565D01*
X5339340Y-5278187D01*
X5344858Y-5282474D01*
X5347182Y-5289063D01*
X5347200Y-5289726D01*
X5347200Y-5376241D01*
X5362577Y-5371577D01*
X5380817Y-5361827D01*
X5380817Y-5361827D01*
X5396806Y-5348706D01*
X5409927Y-5332717D01*
X5409927Y-5332717D01*
X5419677Y-5314477D01*
X5425681Y-5294683D01*
X5427200Y-5279258D01*
X5427200Y-5244100D01*
X5359600Y-5244100D01*
X5352896Y-5242132D01*
X5348321Y-5236851D01*
X5347200Y-5231700D01*
X5347200Y-5206500D01*
X5349169Y-5199796D01*
X5354449Y-5195221D01*
X5359600Y-5194100D01*
X5427200Y-5194100D01*
X5427200Y-5174100D01*
X6040284Y-5174100D01*
X6042343Y-5197632D01*
X6042343Y-5197633D01*
X6048457Y-5220448D01*
X6048457Y-5220449D01*
X6058440Y-5241858D01*
X6058440Y-5241858D01*
X6064307Y-5250237D01*
X6064307Y-5250237D01*
X6114905Y-5199640D01*
X6121037Y-5196291D01*
X6128006Y-5196789D01*
X6133600Y-5200977D01*
X6134104Y-5201703D01*
X6134105Y-5201704D01*
X6137624Y-5207180D01*
X6149160Y-5217176D01*
X6148929Y-5217442D01*
X6152401Y-5221450D01*
X6153393Y-5228366D01*
X6150490Y-5234721D01*
X6149888Y-5235367D01*
X6099662Y-5285593D01*
X6108042Y-5291460D01*
X6129451Y-5301443D01*
X6129452Y-5301443D01*
X6152267Y-5307557D01*
X6152268Y-5307557D01*
X6175800Y-5309616D01*
X6175800Y-5309616D01*
X6199331Y-5307557D01*
X6199333Y-5307557D01*
X6222148Y-5301443D01*
X6222149Y-5301443D01*
X6243558Y-5291460D01*
X6243558Y-5291460D01*
X6251937Y-5285593D01*
X6251937Y-5285593D01*
X6201712Y-5235367D01*
X6198363Y-5229235D01*
X6198861Y-5222266D01*
X6202564Y-5217319D01*
X6202440Y-5217176D01*
X6203110Y-5216595D01*
X6213976Y-5207180D01*
X6217495Y-5201704D01*
X6222775Y-5197128D01*
X6229691Y-5196134D01*
X6236047Y-5199036D01*
X6236695Y-5199640D01*
X6287292Y-5250237D01*
X6287293Y-5250237D01*
X6293160Y-5241858D01*
X6293160Y-5241858D01*
X6303143Y-5220449D01*
X6303143Y-5220448D01*
X6309257Y-5197633D01*
X6309257Y-5197632D01*
X6311316Y-5174100D01*
X6311316Y-5174100D01*
X6309257Y-5150568D01*
X6309257Y-5150568D01*
X6304597Y-5133179D01*
X6304764Y-5126194D01*
X6308680Y-5120407D01*
X6315103Y-5117657D01*
X6321993Y-5118816D01*
X6325343Y-5121201D01*
X6390218Y-5186076D01*
X6393567Y-5192209D01*
X6393850Y-5194844D01*
X6393850Y-6016922D01*
X6393811Y-6017615D01*
X6393672Y-6018845D01*
X6393373Y-6021503D01*
X6394479Y-6027348D01*
X6395365Y-6033229D01*
X6395616Y-6034043D01*
X6395898Y-6034847D01*
X6398678Y-6040107D01*
X6401258Y-6045464D01*
X6401736Y-6046166D01*
X6402243Y-6046853D01*
X6402243Y-6046854D01*
X6402244Y-6046854D01*
X6406450Y-6051060D01*
X6410495Y-6055420D01*
X6411221Y-6055999D01*
X6411169Y-6056064D01*
X6412393Y-6057003D01*
X6555218Y-6199828D01*
X6558566Y-6205961D01*
X6558850Y-6208597D01*
X6558850Y-6668403D01*
X6556881Y-6675107D01*
X6551601Y-6679683D01*
X6544685Y-6680677D01*
X6538330Y-6677775D01*
X6537682Y-6677171D01*
X6517811Y-6657300D01*
X6514462Y-6651168D01*
X6514712Y-6644933D01*
X6517030Y-6637293D01*
X6519058Y-6616700D01*
X6517030Y-6596107D01*
X6511023Y-6576305D01*
X6501268Y-6558055D01*
X6496070Y-6551721D01*
X6488141Y-6542059D01*
X6473112Y-6529725D01*
X6472145Y-6528931D01*
X6453895Y-6519177D01*
X6434093Y-6513170D01*
X6434093Y-6513170D01*
X6434093Y-6513170D01*
X6413500Y-6511142D01*
X6392907Y-6513170D01*
X6379474Y-6517245D01*
X6373105Y-6519177D01*
X6373104Y-6519177D01*
X6364311Y-6523877D01*
X6354855Y-6528931D01*
X6354855Y-6528932D01*
X6354855Y-6528932D01*
X6338859Y-6542059D01*
X6325732Y-6558055D01*
X6315977Y-6576304D01*
X6309970Y-6596107D01*
X6307942Y-6616700D01*
X6309970Y-6637293D01*
X6309970Y-6637293D01*
X6315977Y-6657095D01*
X6325731Y-6675345D01*
X6325732Y-6675345D01*
X6338859Y-6691341D01*
X6347387Y-6698340D01*
X6354855Y-6704468D01*
X6373105Y-6714223D01*
X6392907Y-6720230D01*
X6392906Y-6720230D01*
X6394753Y-6720412D01*
X6413500Y-6722258D01*
X6434093Y-6720230D01*
X6441732Y-6717913D01*
X6448719Y-6717850D01*
X6454100Y-6721011D01*
X6555218Y-6822128D01*
X6558567Y-6828261D01*
X6558850Y-6830896D01*
X6558850Y-6935850D01*
X6556881Y-6942554D01*
X6551601Y-6947129D01*
X6546450Y-6948250D01*
X6534425Y-6948250D01*
X6528577Y-6949413D01*
X6528577Y-6949413D01*
X6521945Y-6953845D01*
X6517513Y-6960477D01*
X6517513Y-6960477D01*
X6516350Y-6966325D01*
X6516350Y-7031514D01*
X6515099Y-7035773D01*
X6516148Y-7037855D01*
X6516350Y-7040086D01*
X6516350Y-7105275D01*
X6517513Y-7111123D01*
X6517513Y-7111123D01*
X6521945Y-7117755D01*
X6528577Y-7122187D01*
X6528577Y-7122187D01*
X6534425Y-7123350D01*
X6534425Y-7123350D01*
X6534425Y-7123350D01*
X6673375Y-7123350D01*
X6673375Y-7123350D01*
X6674857Y-7123055D01*
X6679223Y-7122187D01*
X6679223Y-7122187D01*
X6679223Y-7122187D01*
X6685855Y-7117755D01*
X6690287Y-7111123D01*
X6690287Y-7111123D01*
X6690287Y-7111123D01*
X6691450Y-7105275D01*
X6691450Y-7105275D01*
X6691450Y-6966325D01*
X6691450Y-6966325D01*
X6690287Y-6960477D01*
X6690287Y-6960477D01*
X6685855Y-6953845D01*
X6679223Y-6949413D01*
X6679223Y-6949413D01*
X6673375Y-6948250D01*
X6673375Y-6948250D01*
X6661350Y-6948250D01*
X6654646Y-6946281D01*
X6650071Y-6941001D01*
X6648950Y-6935850D01*
X6648950Y-6809978D01*
X6648989Y-6809283D01*
X6649033Y-6808888D01*
X6649427Y-6805396D01*
X6649166Y-6804018D01*
X6648950Y-6801712D01*
X6648950Y-6496952D01*
X6648950Y-6187676D01*
X6648989Y-6186986D01*
X6649427Y-6183096D01*
X6648321Y-6177252D01*
X6647435Y-6171371D01*
X6647435Y-6171371D01*
X6647184Y-6170557D01*
X6646902Y-6169753D01*
X6646902Y-6169753D01*
X6644123Y-6164494D01*
X6641542Y-6159136D01*
X6641542Y-6159135D01*
X6641542Y-6159135D01*
X6641064Y-6158434D01*
X6640557Y-6157747D01*
X6640556Y-6157746D01*
X6636352Y-6153541D01*
X6632305Y-6149181D01*
X6631579Y-6148601D01*
X6631631Y-6148536D01*
X6630407Y-6147596D01*
X6487582Y-6004771D01*
X6484233Y-5998639D01*
X6483950Y-5996004D01*
X6483950Y-5824100D01*
X6520242Y-5824100D01*
X6522270Y-5844693D01*
X6522270Y-5844693D01*
X6528277Y-5864495D01*
X6538031Y-5882745D01*
X6538032Y-5882745D01*
X6551159Y-5898741D01*
X6560821Y-5906670D01*
X6567155Y-5911868D01*
X6585405Y-5921623D01*
X6605207Y-5927630D01*
X6605206Y-5927630D01*
X6607235Y-5927830D01*
X6625800Y-5929658D01*
X6646393Y-5927630D01*
X6666195Y-5921623D01*
X6684445Y-5911868D01*
X6700441Y-5898741D01*
X6713568Y-5882745D01*
X6723323Y-5864495D01*
X6729330Y-5844693D01*
X6731358Y-5824100D01*
X6729330Y-5803507D01*
X6723323Y-5783705D01*
X6713568Y-5765455D01*
X6708370Y-5759121D01*
X6700441Y-5749459D01*
X6684445Y-5736332D01*
X6684445Y-5736332D01*
X6684445Y-5736331D01*
X6666195Y-5726577D01*
X6646393Y-5720570D01*
X6646393Y-5720570D01*
X6646393Y-5720570D01*
X6627646Y-5718723D01*
X6625800Y-5718542D01*
X6625800Y-5718542D01*
X6605207Y-5720570D01*
X6585404Y-5726577D01*
X6582063Y-5728363D01*
X6567155Y-5736331D01*
X6567155Y-5736332D01*
X6567155Y-5736332D01*
X6551159Y-5749459D01*
X6538032Y-5765455D01*
X6538031Y-5765455D01*
X6535830Y-5769574D01*
X6528277Y-5783704D01*
X6522270Y-5803507D01*
X6520242Y-5824100D01*
X6483950Y-5824100D01*
X6483950Y-5174100D01*
X6520242Y-5174100D01*
X6522270Y-5194693D01*
X6524176Y-5200977D01*
X6528277Y-5214495D01*
X6538031Y-5232745D01*
X6538032Y-5232745D01*
X6551159Y-5248741D01*
X6560689Y-5256562D01*
X6567155Y-5261869D01*
X6585405Y-5271623D01*
X6605207Y-5277630D01*
X6605206Y-5277630D01*
X6607235Y-5277830D01*
X6625800Y-5279658D01*
X6646393Y-5277630D01*
X6666195Y-5271623D01*
X6684445Y-5261869D01*
X6700441Y-5248741D01*
X6713568Y-5232745D01*
X6723323Y-5214495D01*
X6729330Y-5194693D01*
X6731358Y-5174100D01*
X6729330Y-5153507D01*
X6723323Y-5133705D01*
X6713568Y-5115455D01*
X6705384Y-5105483D01*
X6700441Y-5099459D01*
X6684445Y-5086332D01*
X6684445Y-5086332D01*
X6684445Y-5086332D01*
X6666195Y-5076577D01*
X6646393Y-5070570D01*
X6646393Y-5070570D01*
X6646393Y-5070570D01*
X6625800Y-5068542D01*
X6605207Y-5070570D01*
X6585404Y-5076577D01*
X6574390Y-5082464D01*
X6567155Y-5086332D01*
X6567155Y-5086332D01*
X6567155Y-5086332D01*
X6551159Y-5099459D01*
X6538032Y-5115455D01*
X6528277Y-5133704D01*
X6522270Y-5153507D01*
X6520242Y-5174100D01*
X6483950Y-5174100D01*
X6483950Y-5173926D01*
X6483989Y-5173232D01*
X6484427Y-5169344D01*
X6483321Y-5163499D01*
X6482435Y-5157619D01*
X6482435Y-5157619D01*
X6482435Y-5157619D01*
X6482183Y-5156803D01*
X6481902Y-5156001D01*
X6481467Y-5155177D01*
X6479122Y-5150740D01*
X6476542Y-5145384D01*
X6476542Y-5145383D01*
X6476542Y-5145383D01*
X6476064Y-5144682D01*
X6475557Y-5143994D01*
X6475557Y-5143994D01*
X6471352Y-5139789D01*
X6467305Y-5135428D01*
X6466579Y-5134849D01*
X6466631Y-5134784D01*
X6465407Y-5133844D01*
X6304182Y-4972619D01*
X6300833Y-4966487D01*
X6300550Y-4963851D01*
X6300550Y-4810750D01*
X6302518Y-4804046D01*
X6307799Y-4799471D01*
X6312950Y-4798350D01*
X6328875Y-4798350D01*
X6328875Y-4798350D01*
X6330357Y-4798055D01*
X6334723Y-4797187D01*
X6334723Y-4797187D01*
X6334723Y-4797187D01*
X6341355Y-4792755D01*
X6345787Y-4786123D01*
X6345787Y-4786123D01*
X6345787Y-4786123D01*
X6346950Y-4780275D01*
X6346950Y-4780275D01*
X6346950Y-4633525D01*
X6346950Y-4633525D01*
X6345787Y-4627677D01*
X6345787Y-4627677D01*
X6341355Y-4621045D01*
X6334723Y-4616613D01*
X6334723Y-4616613D01*
X6328875Y-4615450D01*
X6328875Y-4615450D01*
X6182125Y-4615450D01*
X6182125Y-4615450D01*
X6176277Y-4616613D01*
X6176277Y-4616613D01*
X6169645Y-4621045D01*
X6165213Y-4627677D01*
X6165213Y-4627677D01*
X6164050Y-4633525D01*
X6164050Y-4780275D01*
X6165213Y-4786123D01*
X6165213Y-4786123D01*
X6169645Y-4792755D01*
X6176277Y-4797187D01*
X6176277Y-4797187D01*
X6182125Y-4798350D01*
X6182125Y-4798350D01*
X6182125Y-4798350D01*
X6198050Y-4798350D01*
X6204754Y-4800319D01*
X6209329Y-4805599D01*
X6210450Y-4810750D01*
X6210450Y-4984770D01*
X6210411Y-4985463D01*
X6210272Y-4986693D01*
X6209973Y-4989351D01*
X6211079Y-4995196D01*
X6211965Y-5001077D01*
X6212216Y-5001891D01*
X6212498Y-5002695D01*
X6215278Y-5007955D01*
X6217858Y-5013312D01*
X6218336Y-5014014D01*
X6218843Y-5014701D01*
X6218843Y-5014702D01*
X6223049Y-5018908D01*
X6227094Y-5023267D01*
X6227095Y-5023267D01*
X6227493Y-5023585D01*
X6231507Y-5029304D01*
X6231792Y-5036285D01*
X6228258Y-5042312D01*
X6222026Y-5045471D01*
X6216552Y-5045257D01*
X6199333Y-5040643D01*
X6199331Y-5040643D01*
X6175800Y-5038584D01*
X6175800Y-5038584D01*
X6152268Y-5040643D01*
X6152267Y-5040643D01*
X6129452Y-5046757D01*
X6129451Y-5046757D01*
X6108042Y-5056740D01*
X6099662Y-5062607D01*
X6149888Y-5112833D01*
X6153237Y-5118965D01*
X6152738Y-5125935D01*
X6149036Y-5130881D01*
X6149160Y-5131024D01*
X6137624Y-5141020D01*
X6134105Y-5146496D01*
X6128824Y-5151072D01*
X6121908Y-5152066D01*
X6115553Y-5149163D01*
X6114905Y-5148560D01*
X6064307Y-5097963D01*
X6058440Y-5106342D01*
X6048457Y-5127751D01*
X6048457Y-5127752D01*
X6042343Y-5150567D01*
X6042343Y-5150568D01*
X6040284Y-5174100D01*
X6040284Y-5174100D01*
X5427200Y-5174100D01*
X5427200Y-5158942D01*
X5425681Y-5143517D01*
X5419677Y-5123723D01*
X5409927Y-5105483D01*
X5409927Y-5105483D01*
X5396806Y-5089494D01*
X5380817Y-5076373D01*
X5380817Y-5076373D01*
X5362576Y-5066623D01*
X5347200Y-5061959D01*
X5347200Y-5148474D01*
X5345232Y-5155177D01*
X5339951Y-5159753D01*
X5333035Y-5160747D01*
X5332381Y-5160635D01*
X5323866Y-5158942D01*
X5322200Y-5158610D01*
X5322200Y-5158610D01*
X5312019Y-5160635D01*
X5305060Y-5160013D01*
X5299542Y-5155726D01*
X5297218Y-5149137D01*
X5297200Y-5148474D01*
X5297200Y-5061959D01*
X5281824Y-5066623D01*
X5263583Y-5076373D01*
X5263583Y-5076373D01*
X5247594Y-5089494D01*
X5234473Y-5105483D01*
X5234473Y-5105483D01*
X5224723Y-5123723D01*
X5218719Y-5143517D01*
X5217200Y-5158942D01*
X5217200Y-5194100D01*
X5000050Y-5194100D01*
X5000050Y-4706900D01*
X5433636Y-4706900D01*
X5435488Y-4728061D01*
X5435488Y-4728062D01*
X5440985Y-4748579D01*
X5440986Y-4748580D01*
X5449963Y-4767832D01*
X5449963Y-4767833D01*
X5453772Y-4773272D01*
X5497270Y-4729775D01*
X5503402Y-4726426D01*
X5510371Y-4726925D01*
X5515733Y-4730812D01*
X5519794Y-4735905D01*
X5523859Y-4741001D01*
X5531053Y-4745906D01*
X5535483Y-4751309D01*
X5536289Y-4758249D01*
X5533215Y-4764524D01*
X5532836Y-4764920D01*
X5489128Y-4808628D01*
X5494568Y-4812437D01*
X5494568Y-4812437D01*
X5513820Y-4821414D01*
X5513821Y-4821415D01*
X5534338Y-4826912D01*
X5534339Y-4826912D01*
X5555500Y-4828764D01*
X5555500Y-4828764D01*
X5576661Y-4826912D01*
X5576662Y-4826912D01*
X5597179Y-4821415D01*
X5597180Y-4821414D01*
X5616431Y-4812437D01*
X5621872Y-4808628D01*
X5578455Y-4765210D01*
X5575106Y-4759078D01*
X5575605Y-4752109D01*
X5579792Y-4746515D01*
X5581475Y-4745493D01*
X5581705Y-4745337D01*
X5581705Y-4745336D01*
X5581705Y-4745336D01*
X5591871Y-4735905D01*
X5594035Y-4732155D01*
X5599092Y-4727333D01*
X5605952Y-4726011D01*
X5612439Y-4728608D01*
X5613542Y-4729587D01*
X5657227Y-4773272D01*
X5661037Y-4767831D01*
X5670014Y-4748580D01*
X5670015Y-4748579D01*
X5675512Y-4728062D01*
X5675512Y-4728061D01*
X5677364Y-4706900D01*
X5713546Y-4706900D01*
X5715556Y-4726018D01*
X5715556Y-4726019D01*
X5721496Y-4744300D01*
X5721496Y-4744301D01*
X5731108Y-4760949D01*
X5734326Y-4764524D01*
X5743970Y-4775234D01*
X5743971Y-4775235D01*
X5743971Y-4775235D01*
X5750908Y-4780275D01*
X5759523Y-4786534D01*
X5777084Y-4794353D01*
X5777085Y-4794353D01*
X5795888Y-4798350D01*
X5795888Y-4798350D01*
X5815112Y-4798350D01*
X5815112Y-4798350D01*
X5833915Y-4794353D01*
X5851477Y-4786534D01*
X5867029Y-4775235D01*
X5879892Y-4760949D01*
X5889504Y-4744301D01*
X5893707Y-4731365D01*
X5897651Y-4725598D01*
X5904086Y-4722878D01*
X5910971Y-4724069D01*
X5916119Y-4728794D01*
X5917293Y-4731365D01*
X5921496Y-4744300D01*
X5921496Y-4744301D01*
X5931108Y-4760949D01*
X5934326Y-4764524D01*
X5943970Y-4775234D01*
X5943971Y-4775235D01*
X5943971Y-4775235D01*
X5950908Y-4780275D01*
X5959523Y-4786534D01*
X5977084Y-4794353D01*
X5977085Y-4794353D01*
X5995888Y-4798350D01*
X5995888Y-4798350D01*
X6015112Y-4798350D01*
X6015112Y-4798350D01*
X6033915Y-4794353D01*
X6051477Y-4786534D01*
X6067029Y-4775235D01*
X6079892Y-4760949D01*
X6089504Y-4744301D01*
X6095444Y-4726018D01*
X6097454Y-4706900D01*
X6095444Y-4687782D01*
X6091577Y-4675880D01*
X6089504Y-4669500D01*
X6089504Y-4669499D01*
X6088815Y-4668306D01*
X6079892Y-4652851D01*
X6073694Y-4645968D01*
X6067029Y-4638566D01*
X6067029Y-4638565D01*
X6067029Y-4638565D01*
X6067029Y-4638565D01*
X6052043Y-4627677D01*
X6051477Y-4627266D01*
X6033916Y-4619447D01*
X6033915Y-4619447D01*
X6019108Y-4616300D01*
X6015112Y-4615450D01*
X5995888Y-4615450D01*
X5992592Y-4616151D01*
X5977085Y-4619447D01*
X5977084Y-4619447D01*
X5959523Y-4627266D01*
X5959523Y-4627266D01*
X5943971Y-4638565D01*
X5931108Y-4652851D01*
X5921496Y-4669499D01*
X5921496Y-4669500D01*
X5917293Y-4682435D01*
X5913349Y-4688202D01*
X5906913Y-4690922D01*
X5900029Y-4689730D01*
X5894881Y-4685006D01*
X5893707Y-4682435D01*
X5889504Y-4669500D01*
X5889504Y-4669500D01*
X5889504Y-4669499D01*
X5879892Y-4652851D01*
X5873694Y-4645968D01*
X5867029Y-4638566D01*
X5867029Y-4638565D01*
X5867029Y-4638565D01*
X5867029Y-4638565D01*
X5852043Y-4627677D01*
X5851477Y-4627266D01*
X5833916Y-4619447D01*
X5833915Y-4619447D01*
X5819108Y-4616300D01*
X5815112Y-4615450D01*
X5795888Y-4615450D01*
X5792592Y-4616151D01*
X5777085Y-4619447D01*
X5777084Y-4619447D01*
X5759523Y-4627266D01*
X5759523Y-4627266D01*
X5743971Y-4638565D01*
X5731108Y-4652851D01*
X5721496Y-4669499D01*
X5721496Y-4669500D01*
X5715556Y-4687781D01*
X5715556Y-4687782D01*
X5713546Y-4706900D01*
X5677364Y-4706900D01*
X5677364Y-4706900D01*
X5675512Y-4685739D01*
X5675512Y-4685738D01*
X5670015Y-4665221D01*
X5670014Y-4665220D01*
X5661037Y-4645969D01*
X5661037Y-4645968D01*
X5657227Y-4640528D01*
X5613730Y-4684025D01*
X5607598Y-4687374D01*
X5600629Y-4686875D01*
X5595267Y-4682988D01*
X5591206Y-4677896D01*
X5587141Y-4672799D01*
X5579947Y-4667894D01*
X5575517Y-4662491D01*
X5574711Y-4655551D01*
X5577785Y-4649276D01*
X5578164Y-4648880D01*
X5621872Y-4605172D01*
X5616432Y-4601363D01*
X5616431Y-4601363D01*
X5597180Y-4592386D01*
X5597179Y-4592385D01*
X5576662Y-4586888D01*
X5576661Y-4586888D01*
X5555500Y-4585036D01*
X5555500Y-4585036D01*
X5534339Y-4586888D01*
X5534338Y-4586888D01*
X5513821Y-4592385D01*
X5513820Y-4592386D01*
X5494568Y-4601363D01*
X5494568Y-4601363D01*
X5489128Y-4605172D01*
X5489128Y-4605172D01*
X5532545Y-4648590D01*
X5535894Y-4654722D01*
X5535395Y-4661691D01*
X5531208Y-4667285D01*
X5529525Y-4668306D01*
X5529295Y-4668463D01*
X5519130Y-4677896D01*
X5519129Y-4677896D01*
X5516965Y-4681645D01*
X5511908Y-4686467D01*
X5505047Y-4687789D01*
X5498561Y-4685192D01*
X5497458Y-4684213D01*
X5453772Y-4640528D01*
X5453772Y-4640528D01*
X5449963Y-4645968D01*
X5449963Y-4645968D01*
X5440986Y-4665220D01*
X5440985Y-4665221D01*
X5435488Y-4685738D01*
X5435488Y-4685739D01*
X5433636Y-4706900D01*
X5433636Y-4706900D01*
X5000050Y-4706900D01*
X5000050Y-4406900D01*
X5060671Y-4406900D01*
X5062583Y-4433631D01*
X5068280Y-4459817D01*
X5068280Y-4459817D01*
X5074095Y-4475407D01*
X5077645Y-4484927D01*
X5077645Y-4484927D01*
X5090488Y-4508447D01*
X5090489Y-4508448D01*
X5106548Y-4529901D01*
X5106550Y-4529903D01*
X5125497Y-4548850D01*
X5125499Y-4548852D01*
X5146952Y-4564911D01*
X5146953Y-4564912D01*
X5170473Y-4577755D01*
X5170473Y-4577755D01*
X5170473Y-4577755D01*
X5195583Y-4587120D01*
X5208676Y-4589968D01*
X5221769Y-4592817D01*
X5221769Y-4592817D01*
X5221769Y-4592817D01*
X5245524Y-4594516D01*
X5248500Y-4594729D01*
X5248500Y-4594729D01*
X5248500Y-4594729D01*
X5251178Y-4594537D01*
X5275231Y-4592817D01*
X5301417Y-4587120D01*
X5326527Y-4577755D01*
X5350048Y-4564912D01*
X5371502Y-4548851D01*
X5390451Y-4529902D01*
X5406512Y-4508448D01*
X5419355Y-4484927D01*
X5428720Y-4459817D01*
X5434417Y-4433631D01*
X5436329Y-4406900D01*
X6374671Y-4406900D01*
X6376583Y-4433631D01*
X6382280Y-4459817D01*
X6382280Y-4459817D01*
X6388094Y-4475407D01*
X6391645Y-4484927D01*
X6391645Y-4484927D01*
X6404488Y-4508447D01*
X6404489Y-4508448D01*
X6420548Y-4529901D01*
X6420549Y-4529903D01*
X6439497Y-4548850D01*
X6439499Y-4548852D01*
X6460952Y-4564911D01*
X6460953Y-4564912D01*
X6484473Y-4577755D01*
X6484473Y-4577755D01*
X6484473Y-4577755D01*
X6509583Y-4587120D01*
X6522676Y-4589968D01*
X6535769Y-4592817D01*
X6535769Y-4592817D01*
X6535769Y-4592817D01*
X6559524Y-4594516D01*
X6562500Y-4594729D01*
X6562500Y-4594729D01*
X6562500Y-4594729D01*
X6565178Y-4594537D01*
X6589231Y-4592817D01*
X6615417Y-4587120D01*
X6640527Y-4577755D01*
X6664048Y-4564912D01*
X6685502Y-4548851D01*
X6704451Y-4529902D01*
X6720511Y-4508448D01*
X6733355Y-4484927D01*
X6742720Y-4459817D01*
X6748417Y-4433631D01*
X6750329Y-4406900D01*
X6748417Y-4380169D01*
X6742720Y-4353983D01*
X6733355Y-4328873D01*
X6720511Y-4305352D01*
X6720511Y-4305352D01*
X6704452Y-4283899D01*
X6704450Y-4283897D01*
X6685503Y-4264950D01*
X6685501Y-4264948D01*
X6664048Y-4248889D01*
X6664047Y-4248888D01*
X6640527Y-4236045D01*
X6640527Y-4236045D01*
X6631007Y-4232495D01*
X6615417Y-4226680D01*
X6615417Y-4226680D01*
X6615417Y-4226680D01*
X6589231Y-4220983D01*
X6562500Y-4219071D01*
X6562500Y-4219071D01*
X6535769Y-4220983D01*
X6509583Y-4226680D01*
X6509583Y-4226680D01*
X6509583Y-4226680D01*
X6503512Y-4228944D01*
X6484473Y-4236045D01*
X6484473Y-4236045D01*
X6460953Y-4248888D01*
X6460952Y-4248889D01*
X6439499Y-4264948D01*
X6439497Y-4264950D01*
X6420549Y-4283897D01*
X6420548Y-4283899D01*
X6404489Y-4305352D01*
X6404488Y-4305353D01*
X6391645Y-4328873D01*
X6391645Y-4328873D01*
X6382280Y-4353983D01*
X6376583Y-4380169D01*
X6374671Y-4406900D01*
X6374671Y-4406900D01*
X5436329Y-4406900D01*
X5436329Y-4406900D01*
X5434417Y-4380169D01*
X5428720Y-4353983D01*
X5419355Y-4328873D01*
X5406512Y-4305352D01*
X5406511Y-4305352D01*
X5390452Y-4283899D01*
X5390450Y-4283897D01*
X5371503Y-4264950D01*
X5371501Y-4264948D01*
X5350048Y-4248889D01*
X5350047Y-4248888D01*
X5326527Y-4236045D01*
X5326527Y-4236045D01*
X5317007Y-4232495D01*
X5301417Y-4226680D01*
X5301417Y-4226680D01*
X5301417Y-4226680D01*
X5275231Y-4220983D01*
X5248500Y-4219071D01*
X5248500Y-4219071D01*
X5221769Y-4220983D01*
X5195583Y-4226680D01*
X5195583Y-4226680D01*
X5195583Y-4226680D01*
X5189512Y-4228944D01*
X5170473Y-4236045D01*
X5170473Y-4236045D01*
X5146953Y-4248888D01*
X5146952Y-4248889D01*
X5125499Y-4264948D01*
X5125497Y-4264950D01*
X5106550Y-4283897D01*
X5106548Y-4283899D01*
X5090489Y-4305352D01*
X5090488Y-4305353D01*
X5077645Y-4328873D01*
X5077645Y-4328873D01*
X5068280Y-4353983D01*
X5062583Y-4380169D01*
X5060671Y-4406900D01*
X5060671Y-4406900D01*
X5000050Y-4406900D01*
X5000050Y-4077950D01*
X5002019Y-4071246D01*
X5007299Y-4066671D01*
X5012450Y-4065550D01*
X6787550Y-4065550D01*
X6794254Y-4067518D01*
G37*
%TD.AperFunction*%
M02*
