%TF.GenerationSoftware,KiCad,Pcbnew,7.0.7*%
%TF.CreationDate,2023-09-15T20:16:18+02:00*%
%TF.ProjectId,DreameBreakout,44726561-6d65-4427-9265-616b6f75742e,rev?*%
%TF.SameCoordinates,Original*%
%TF.FileFunction,Legend,Bot*%
%TF.FilePolarity,Positive*%
%FSLAX45Y45*%
G04 Gerber Fmt 4.5, Leading zero omitted, Abs format (unit mm)*
G04 Created by KiCad (PCBNEW 7.0.7) date 2023-09-15 20:16:18*
%MOMM*%
%LPD*%
G01*
G04 APERTURE LIST*
%TA.AperFunction,Profile*%
%ADD10C,0.100000*%
%TD*%
%ADD11C,0.150000*%
%ADD12C,0.175000*%
%ADD13R,1.700000X1.700000*%
%ADD14O,1.700000X1.700000*%
%ADD15R,1.428000X1.428000*%
%ADD16C,1.428000*%
%ADD17C,3.346000*%
%ADD18R,1.350000X1.350000*%
%ADD19O,1.350000X1.350000*%
%ADD20O,1.252400X2.352400*%
%ADD21C,1.700000*%
G04 APERTURE END LIST*
D10*
X5000000Y-4065500D02*
X6800000Y-4065500D01*
X6800000Y-7332600D01*
X5000000Y-7332600D01*
X5000000Y-4065500D01*
D11*
X8694800Y-9131300D02*
X9694800Y-9131300D01*
X9694800Y-9381300D01*
X8694800Y-9381300D01*
X8694800Y-9131300D01*
G36*
X8694800Y-9131300D02*
G01*
X9694800Y-9131300D01*
X9694800Y-9381300D01*
X8694800Y-9381300D01*
X8694800Y-9131300D01*
G37*
X10248043Y-8613682D02*
X10248043Y-8513682D01*
X10248043Y-8513682D02*
X10224233Y-8513682D01*
X10224233Y-8513682D02*
X10209948Y-8518444D01*
X10209948Y-8518444D02*
X10200424Y-8527968D01*
X10200424Y-8527968D02*
X10195662Y-8537491D01*
X10195662Y-8537491D02*
X10190900Y-8556539D01*
X10190900Y-8556539D02*
X10190900Y-8570825D01*
X10190900Y-8570825D02*
X10195662Y-8589872D01*
X10195662Y-8589872D02*
X10200424Y-8599396D01*
X10200424Y-8599396D02*
X10209948Y-8608920D01*
X10209948Y-8608920D02*
X10224233Y-8613682D01*
X10224233Y-8613682D02*
X10248043Y-8613682D01*
X10148043Y-8613682D02*
X10148043Y-8547015D01*
X10148043Y-8566063D02*
X10143281Y-8556539D01*
X10143281Y-8556539D02*
X10138519Y-8551777D01*
X10138519Y-8551777D02*
X10128995Y-8547015D01*
X10128995Y-8547015D02*
X10119471Y-8547015D01*
X10048043Y-8608920D02*
X10057567Y-8613682D01*
X10057567Y-8613682D02*
X10076614Y-8613682D01*
X10076614Y-8613682D02*
X10086138Y-8608920D01*
X10086138Y-8608920D02*
X10090900Y-8599396D01*
X10090900Y-8599396D02*
X10090900Y-8561301D01*
X10090900Y-8561301D02*
X10086138Y-8551777D01*
X10086138Y-8551777D02*
X10076614Y-8547015D01*
X10076614Y-8547015D02*
X10057567Y-8547015D01*
X10057567Y-8547015D02*
X10048043Y-8551777D01*
X10048043Y-8551777D02*
X10043281Y-8561301D01*
X10043281Y-8561301D02*
X10043281Y-8570825D01*
X10043281Y-8570825D02*
X10090900Y-8580349D01*
X9957567Y-8613682D02*
X9957567Y-8561301D01*
X9957567Y-8561301D02*
X9962329Y-8551777D01*
X9962329Y-8551777D02*
X9971852Y-8547015D01*
X9971852Y-8547015D02*
X9990900Y-8547015D01*
X9990900Y-8547015D02*
X10000424Y-8551777D01*
X9957567Y-8608920D02*
X9967090Y-8613682D01*
X9967090Y-8613682D02*
X9990900Y-8613682D01*
X9990900Y-8613682D02*
X10000424Y-8608920D01*
X10000424Y-8608920D02*
X10005186Y-8599396D01*
X10005186Y-8599396D02*
X10005186Y-8589872D01*
X10005186Y-8589872D02*
X10000424Y-8580349D01*
X10000424Y-8580349D02*
X9990900Y-8575587D01*
X9990900Y-8575587D02*
X9967090Y-8575587D01*
X9967090Y-8575587D02*
X9957567Y-8570825D01*
X9909948Y-8613682D02*
X9909948Y-8547015D01*
X9909948Y-8556539D02*
X9905186Y-8551777D01*
X9905186Y-8551777D02*
X9895662Y-8547015D01*
X9895662Y-8547015D02*
X9881376Y-8547015D01*
X9881376Y-8547015D02*
X9871852Y-8551777D01*
X9871852Y-8551777D02*
X9867090Y-8561301D01*
X9867090Y-8561301D02*
X9867090Y-8613682D01*
X9867090Y-8561301D02*
X9862329Y-8551777D01*
X9862329Y-8551777D02*
X9852805Y-8547015D01*
X9852805Y-8547015D02*
X9838519Y-8547015D01*
X9838519Y-8547015D02*
X9828995Y-8551777D01*
X9828995Y-8551777D02*
X9824233Y-8561301D01*
X9824233Y-8561301D02*
X9824233Y-8613682D01*
X9738519Y-8608920D02*
X9748043Y-8613682D01*
X9748043Y-8613682D02*
X9767090Y-8613682D01*
X9767090Y-8613682D02*
X9776614Y-8608920D01*
X9776614Y-8608920D02*
X9781376Y-8599396D01*
X9781376Y-8599396D02*
X9781376Y-8561301D01*
X9781376Y-8561301D02*
X9776614Y-8551777D01*
X9776614Y-8551777D02*
X9767090Y-8547015D01*
X9767090Y-8547015D02*
X9748043Y-8547015D01*
X9748043Y-8547015D02*
X9738519Y-8551777D01*
X9738519Y-8551777D02*
X9733757Y-8561301D01*
X9733757Y-8561301D02*
X9733757Y-8570825D01*
X9733757Y-8570825D02*
X9781376Y-8580349D01*
X9557567Y-8613682D02*
X9590900Y-8566063D01*
X9614709Y-8613682D02*
X9614709Y-8513682D01*
X9614709Y-8513682D02*
X9576614Y-8513682D01*
X9576614Y-8513682D02*
X9567090Y-8518444D01*
X9567090Y-8518444D02*
X9562329Y-8523206D01*
X9562329Y-8523206D02*
X9557567Y-8532730D01*
X9557567Y-8532730D02*
X9557567Y-8547015D01*
X9557567Y-8547015D02*
X9562329Y-8556539D01*
X9562329Y-8556539D02*
X9567090Y-8561301D01*
X9567090Y-8561301D02*
X9576614Y-8566063D01*
X9576614Y-8566063D02*
X9614709Y-8566063D01*
X9500424Y-8613682D02*
X9509948Y-8608920D01*
X9509948Y-8608920D02*
X9514709Y-8604158D01*
X9514709Y-8604158D02*
X9519471Y-8594634D01*
X9519471Y-8594634D02*
X9519471Y-8566063D01*
X9519471Y-8566063D02*
X9514709Y-8556539D01*
X9514709Y-8556539D02*
X9509948Y-8551777D01*
X9509948Y-8551777D02*
X9500424Y-8547015D01*
X9500424Y-8547015D02*
X9486138Y-8547015D01*
X9486138Y-8547015D02*
X9476614Y-8551777D01*
X9476614Y-8551777D02*
X9471852Y-8556539D01*
X9471852Y-8556539D02*
X9467090Y-8566063D01*
X9467090Y-8566063D02*
X9467090Y-8594634D01*
X9467090Y-8594634D02*
X9471852Y-8604158D01*
X9471852Y-8604158D02*
X9476614Y-8608920D01*
X9476614Y-8608920D02*
X9486138Y-8613682D01*
X9486138Y-8613682D02*
X9500424Y-8613682D01*
X9424233Y-8613682D02*
X9424233Y-8513682D01*
X9424233Y-8551777D02*
X9414709Y-8547015D01*
X9414709Y-8547015D02*
X9395662Y-8547015D01*
X9395662Y-8547015D02*
X9386138Y-8551777D01*
X9386138Y-8551777D02*
X9381376Y-8556539D01*
X9381376Y-8556539D02*
X9376614Y-8566063D01*
X9376614Y-8566063D02*
X9376614Y-8594634D01*
X9376614Y-8594634D02*
X9381376Y-8604158D01*
X9381376Y-8604158D02*
X9386138Y-8608920D01*
X9386138Y-8608920D02*
X9395662Y-8613682D01*
X9395662Y-8613682D02*
X9414709Y-8613682D01*
X9414709Y-8613682D02*
X9424233Y-8608920D01*
X9319471Y-8613682D02*
X9328995Y-8608920D01*
X9328995Y-8608920D02*
X9333757Y-8604158D01*
X9333757Y-8604158D02*
X9338519Y-8594634D01*
X9338519Y-8594634D02*
X9338519Y-8566063D01*
X9338519Y-8566063D02*
X9333757Y-8556539D01*
X9333757Y-8556539D02*
X9328995Y-8551777D01*
X9328995Y-8551777D02*
X9319471Y-8547015D01*
X9319471Y-8547015D02*
X9305186Y-8547015D01*
X9305186Y-8547015D02*
X9295662Y-8551777D01*
X9295662Y-8551777D02*
X9290900Y-8556539D01*
X9290900Y-8556539D02*
X9286138Y-8566063D01*
X9286138Y-8566063D02*
X9286138Y-8594634D01*
X9286138Y-8594634D02*
X9290900Y-8604158D01*
X9290900Y-8604158D02*
X9295662Y-8608920D01*
X9295662Y-8608920D02*
X9305186Y-8613682D01*
X9305186Y-8613682D02*
X9319471Y-8613682D01*
X9257567Y-8547015D02*
X9219471Y-8547015D01*
X9243281Y-8513682D02*
X9243281Y-8599396D01*
X9243281Y-8599396D02*
X9238519Y-8608920D01*
X9238519Y-8608920D02*
X9228995Y-8613682D01*
X9228995Y-8613682D02*
X9219471Y-8613682D01*
X10312329Y-8774682D02*
X10312329Y-8674682D01*
X10312329Y-8674682D02*
X10288519Y-8674682D01*
X10288519Y-8674682D02*
X10274233Y-8679444D01*
X10274233Y-8679444D02*
X10264710Y-8688968D01*
X10264710Y-8688968D02*
X10259948Y-8698491D01*
X10259948Y-8698491D02*
X10255186Y-8717539D01*
X10255186Y-8717539D02*
X10255186Y-8731825D01*
X10255186Y-8731825D02*
X10259948Y-8750872D01*
X10259948Y-8750872D02*
X10264710Y-8760396D01*
X10264710Y-8760396D02*
X10274233Y-8769920D01*
X10274233Y-8769920D02*
X10288519Y-8774682D01*
X10288519Y-8774682D02*
X10312329Y-8774682D01*
X10174233Y-8769920D02*
X10183757Y-8774682D01*
X10183757Y-8774682D02*
X10202805Y-8774682D01*
X10202805Y-8774682D02*
X10212329Y-8769920D01*
X10212329Y-8769920D02*
X10217091Y-8760396D01*
X10217091Y-8760396D02*
X10217091Y-8722301D01*
X10217091Y-8722301D02*
X10212329Y-8712777D01*
X10212329Y-8712777D02*
X10202805Y-8708015D01*
X10202805Y-8708015D02*
X10183757Y-8708015D01*
X10183757Y-8708015D02*
X10174233Y-8712777D01*
X10174233Y-8712777D02*
X10169472Y-8722301D01*
X10169472Y-8722301D02*
X10169472Y-8731825D01*
X10169472Y-8731825D02*
X10217091Y-8741349D01*
X10126614Y-8774682D02*
X10126614Y-8674682D01*
X10126614Y-8712777D02*
X10117091Y-8708015D01*
X10117091Y-8708015D02*
X10098043Y-8708015D01*
X10098043Y-8708015D02*
X10088519Y-8712777D01*
X10088519Y-8712777D02*
X10083757Y-8717539D01*
X10083757Y-8717539D02*
X10078995Y-8727063D01*
X10078995Y-8727063D02*
X10078995Y-8755634D01*
X10078995Y-8755634D02*
X10083757Y-8765158D01*
X10083757Y-8765158D02*
X10088519Y-8769920D01*
X10088519Y-8769920D02*
X10098043Y-8774682D01*
X10098043Y-8774682D02*
X10117091Y-8774682D01*
X10117091Y-8774682D02*
X10126614Y-8769920D01*
X9993281Y-8708015D02*
X9993281Y-8774682D01*
X10036138Y-8708015D02*
X10036138Y-8760396D01*
X10036138Y-8760396D02*
X10031376Y-8769920D01*
X10031376Y-8769920D02*
X10021852Y-8774682D01*
X10021852Y-8774682D02*
X10007567Y-8774682D01*
X10007567Y-8774682D02*
X9998043Y-8769920D01*
X9998043Y-8769920D02*
X9993281Y-8765158D01*
X9902805Y-8708015D02*
X9902805Y-8788968D01*
X9902805Y-8788968D02*
X9907567Y-8798491D01*
X9907567Y-8798491D02*
X9912329Y-8803253D01*
X9912329Y-8803253D02*
X9921852Y-8808015D01*
X9921852Y-8808015D02*
X9936138Y-8808015D01*
X9936138Y-8808015D02*
X9945662Y-8803253D01*
X9902805Y-8769920D02*
X9912329Y-8774682D01*
X9912329Y-8774682D02*
X9931376Y-8774682D01*
X9931376Y-8774682D02*
X9940900Y-8769920D01*
X9940900Y-8769920D02*
X9945662Y-8765158D01*
X9945662Y-8765158D02*
X9950424Y-8755634D01*
X9950424Y-8755634D02*
X9950424Y-8727063D01*
X9950424Y-8727063D02*
X9945662Y-8717539D01*
X9945662Y-8717539D02*
X9940900Y-8712777D01*
X9940900Y-8712777D02*
X9931376Y-8708015D01*
X9931376Y-8708015D02*
X9912329Y-8708015D01*
X9912329Y-8708015D02*
X9902805Y-8712777D01*
X9745662Y-8722301D02*
X9731376Y-8727063D01*
X9731376Y-8727063D02*
X9726614Y-8731825D01*
X9726614Y-8731825D02*
X9721852Y-8741349D01*
X9721852Y-8741349D02*
X9721852Y-8755634D01*
X9721852Y-8755634D02*
X9726614Y-8765158D01*
X9726614Y-8765158D02*
X9731376Y-8769920D01*
X9731376Y-8769920D02*
X9740900Y-8774682D01*
X9740900Y-8774682D02*
X9778995Y-8774682D01*
X9778995Y-8774682D02*
X9778995Y-8674682D01*
X9778995Y-8674682D02*
X9745662Y-8674682D01*
X9745662Y-8674682D02*
X9736138Y-8679444D01*
X9736138Y-8679444D02*
X9731376Y-8684206D01*
X9731376Y-8684206D02*
X9726614Y-8693730D01*
X9726614Y-8693730D02*
X9726614Y-8703253D01*
X9726614Y-8703253D02*
X9731376Y-8712777D01*
X9731376Y-8712777D02*
X9736138Y-8717539D01*
X9736138Y-8717539D02*
X9745662Y-8722301D01*
X9745662Y-8722301D02*
X9778995Y-8722301D01*
X9678995Y-8774682D02*
X9678995Y-8708015D01*
X9678995Y-8727063D02*
X9674233Y-8717539D01*
X9674233Y-8717539D02*
X9669471Y-8712777D01*
X9669471Y-8712777D02*
X9659948Y-8708015D01*
X9659948Y-8708015D02*
X9650424Y-8708015D01*
X9578995Y-8769920D02*
X9588519Y-8774682D01*
X9588519Y-8774682D02*
X9607567Y-8774682D01*
X9607567Y-8774682D02*
X9617090Y-8769920D01*
X9617090Y-8769920D02*
X9621852Y-8760396D01*
X9621852Y-8760396D02*
X9621852Y-8722301D01*
X9621852Y-8722301D02*
X9617090Y-8712777D01*
X9617090Y-8712777D02*
X9607567Y-8708015D01*
X9607567Y-8708015D02*
X9588519Y-8708015D01*
X9588519Y-8708015D02*
X9578995Y-8712777D01*
X9578995Y-8712777D02*
X9574233Y-8722301D01*
X9574233Y-8722301D02*
X9574233Y-8731825D01*
X9574233Y-8731825D02*
X9621852Y-8741349D01*
X9488519Y-8774682D02*
X9488519Y-8722301D01*
X9488519Y-8722301D02*
X9493281Y-8712777D01*
X9493281Y-8712777D02*
X9502805Y-8708015D01*
X9502805Y-8708015D02*
X9521852Y-8708015D01*
X9521852Y-8708015D02*
X9531376Y-8712777D01*
X9488519Y-8769920D02*
X9498043Y-8774682D01*
X9498043Y-8774682D02*
X9521852Y-8774682D01*
X9521852Y-8774682D02*
X9531376Y-8769920D01*
X9531376Y-8769920D02*
X9536138Y-8760396D01*
X9536138Y-8760396D02*
X9536138Y-8750872D01*
X9536138Y-8750872D02*
X9531376Y-8741349D01*
X9531376Y-8741349D02*
X9521852Y-8736587D01*
X9521852Y-8736587D02*
X9498043Y-8736587D01*
X9498043Y-8736587D02*
X9488519Y-8731825D01*
X9440900Y-8774682D02*
X9440900Y-8674682D01*
X9431376Y-8736587D02*
X9402805Y-8774682D01*
X9402805Y-8708015D02*
X9440900Y-8746110D01*
X9345662Y-8774682D02*
X9355186Y-8769920D01*
X9355186Y-8769920D02*
X9359948Y-8765158D01*
X9359948Y-8765158D02*
X9364709Y-8755634D01*
X9364709Y-8755634D02*
X9364709Y-8727063D01*
X9364709Y-8727063D02*
X9359948Y-8717539D01*
X9359948Y-8717539D02*
X9355186Y-8712777D01*
X9355186Y-8712777D02*
X9345662Y-8708015D01*
X9345662Y-8708015D02*
X9331376Y-8708015D01*
X9331376Y-8708015D02*
X9321852Y-8712777D01*
X9321852Y-8712777D02*
X9317090Y-8717539D01*
X9317090Y-8717539D02*
X9312329Y-8727063D01*
X9312329Y-8727063D02*
X9312329Y-8755634D01*
X9312329Y-8755634D02*
X9317090Y-8765158D01*
X9317090Y-8765158D02*
X9321852Y-8769920D01*
X9321852Y-8769920D02*
X9331376Y-8774682D01*
X9331376Y-8774682D02*
X9345662Y-8774682D01*
X9226614Y-8708015D02*
X9226614Y-8774682D01*
X9269471Y-8708015D02*
X9269471Y-8760396D01*
X9269471Y-8760396D02*
X9264709Y-8769920D01*
X9264709Y-8769920D02*
X9255186Y-8774682D01*
X9255186Y-8774682D02*
X9240900Y-8774682D01*
X9240900Y-8774682D02*
X9231376Y-8769920D01*
X9231376Y-8769920D02*
X9226614Y-8765158D01*
X9193281Y-8708015D02*
X9155186Y-8708015D01*
X9178995Y-8674682D02*
X9178995Y-8760396D01*
X9178995Y-8760396D02*
X9174233Y-8769920D01*
X9174233Y-8769920D02*
X9164709Y-8774682D01*
X9164709Y-8774682D02*
X9155186Y-8774682D01*
D12*
X9090613Y-6244697D02*
X9041116Y-6195199D01*
X9088256Y-6242340D02*
X9095327Y-6239983D01*
X9095327Y-6239983D02*
X9104755Y-6230554D01*
X9104755Y-6230554D02*
X9107112Y-6223483D01*
X9107112Y-6223483D02*
X9107112Y-6218769D01*
X9107112Y-6218769D02*
X9104755Y-6211698D01*
X9104755Y-6211698D02*
X9090613Y-6197556D01*
X9090613Y-6197556D02*
X9083542Y-6195199D01*
X9083542Y-6195199D02*
X9078828Y-6195199D01*
X9078828Y-6195199D02*
X9071757Y-6197556D01*
X9071757Y-6197556D02*
X9062329Y-6206984D01*
X9062329Y-6206984D02*
X9059972Y-6214055D01*
X9059972Y-6275338D02*
X9062329Y-6268267D01*
X9062329Y-6268267D02*
X9062329Y-6263553D01*
X9062329Y-6263553D02*
X9059972Y-6256482D01*
X9059972Y-6256482D02*
X9045830Y-6242340D01*
X9045830Y-6242340D02*
X9038759Y-6239983D01*
X9038759Y-6239983D02*
X9034045Y-6239983D01*
X9034045Y-6239983D02*
X9026974Y-6242340D01*
X9026974Y-6242340D02*
X9019903Y-6249411D01*
X9019903Y-6249411D02*
X9017546Y-6256482D01*
X9017546Y-6256482D02*
X9017546Y-6261196D01*
X9017546Y-6261196D02*
X9019903Y-6268267D01*
X9019903Y-6268267D02*
X9034045Y-6282409D01*
X9034045Y-6282409D02*
X9041116Y-6284766D01*
X9041116Y-6284766D02*
X9045830Y-6284766D01*
X9045830Y-6284766D02*
X9052901Y-6282409D01*
X9052901Y-6282409D02*
X9059972Y-6275338D01*
X8989261Y-6280052D02*
X9022260Y-6313050D01*
X8993975Y-6284766D02*
X8989261Y-6284766D01*
X8989261Y-6284766D02*
X8982190Y-6287123D01*
X8982190Y-6287123D02*
X8975119Y-6294194D01*
X8975119Y-6294194D02*
X8972762Y-6301265D01*
X8972762Y-6301265D02*
X8975119Y-6308336D01*
X8975119Y-6308336D02*
X9001047Y-6334263D01*
X8951549Y-6317764D02*
X8932693Y-6336620D01*
X8927979Y-6308336D02*
X8970405Y-6350763D01*
X8970405Y-6350763D02*
X8972762Y-6357834D01*
X8972762Y-6357834D02*
X8970405Y-6364905D01*
X8970405Y-6364905D02*
X8965691Y-6369619D01*
X8920908Y-6348406D02*
X8942121Y-6393189D01*
X8942121Y-6393189D02*
X8897338Y-6371976D01*
X8890267Y-6445043D02*
X8864339Y-6419116D01*
X8864339Y-6419116D02*
X8861982Y-6412045D01*
X8861982Y-6412045D02*
X8864339Y-6404974D01*
X8864339Y-6404974D02*
X8873767Y-6395546D01*
X8873767Y-6395546D02*
X8880838Y-6393189D01*
X8887909Y-6442686D02*
X8894981Y-6440329D01*
X8894981Y-6440329D02*
X8906766Y-6428544D01*
X8906766Y-6428544D02*
X8909123Y-6421473D01*
X8909123Y-6421473D02*
X8906766Y-6414402D01*
X8906766Y-6414402D02*
X8902052Y-6409688D01*
X8902052Y-6409688D02*
X8894981Y-6407331D01*
X8894981Y-6407331D02*
X8887909Y-6409688D01*
X8887909Y-6409688D02*
X8876124Y-6421473D01*
X8876124Y-6421473D02*
X8869053Y-6423830D01*
X8843126Y-6487470D02*
X8850197Y-6485113D01*
X8850197Y-6485113D02*
X8859625Y-6475685D01*
X8859625Y-6475685D02*
X8861982Y-6468614D01*
X8861982Y-6468614D02*
X8861982Y-6463900D01*
X8861982Y-6463900D02*
X8859625Y-6456829D01*
X8859625Y-6456829D02*
X8845483Y-6442686D01*
X8845483Y-6442686D02*
X8838412Y-6440329D01*
X8838412Y-6440329D02*
X8833698Y-6440329D01*
X8833698Y-6440329D02*
X8826627Y-6442686D01*
X8826627Y-6442686D02*
X8817199Y-6452114D01*
X8817199Y-6452114D02*
X8814842Y-6459186D01*
X8770058Y-6499255D02*
X8803057Y-6532253D01*
X8791272Y-6478042D02*
X8817199Y-6503969D01*
X8817199Y-6503969D02*
X8819556Y-6511040D01*
X8819556Y-6511040D02*
X8817199Y-6518111D01*
X8817199Y-6518111D02*
X8810128Y-6525182D01*
X8810128Y-6525182D02*
X8803057Y-6527539D01*
X8803057Y-6527539D02*
X8798343Y-6527539D01*
X8725275Y-6544038D02*
X8758273Y-6577037D01*
X8746488Y-6522825D02*
X8772415Y-6548752D01*
X8772415Y-6548752D02*
X8774772Y-6555823D01*
X8774772Y-6555823D02*
X8772415Y-6562894D01*
X8772415Y-6562894D02*
X8765344Y-6569966D01*
X8765344Y-6569966D02*
X8758273Y-6572323D01*
X8758273Y-6572323D02*
X8753559Y-6572323D01*
X8734703Y-6600607D02*
X8701705Y-6567609D01*
X8706419Y-6572323D02*
X8701705Y-6572323D01*
X8701705Y-6572323D02*
X8694634Y-6574680D01*
X8694634Y-6574680D02*
X8687563Y-6581751D01*
X8687563Y-6581751D02*
X8685206Y-6588822D01*
X8685206Y-6588822D02*
X8687563Y-6595893D01*
X8687563Y-6595893D02*
X8713490Y-6621820D01*
X8687563Y-6595893D02*
X8680492Y-6593536D01*
X8680492Y-6593536D02*
X8673420Y-6595893D01*
X8673420Y-6595893D02*
X8666349Y-6602964D01*
X8666349Y-6602964D02*
X8663992Y-6610035D01*
X8663992Y-6610035D02*
X8666349Y-6617106D01*
X8666349Y-6617106D02*
X8692277Y-6643033D01*
X8663992Y-6661889D02*
X8663992Y-6666603D01*
X8663992Y-6666603D02*
X8668706Y-6666603D01*
X8668706Y-6666603D02*
X8668706Y-6661889D01*
X8668706Y-6661889D02*
X8663992Y-6661889D01*
X8663992Y-6661889D02*
X8668706Y-6666603D01*
X8645136Y-6690174D02*
X8612138Y-6657175D01*
X8616852Y-6661889D02*
X8612138Y-6661889D01*
X8612138Y-6661889D02*
X8605067Y-6664246D01*
X8605067Y-6664246D02*
X8597996Y-6671317D01*
X8597996Y-6671317D02*
X8595639Y-6678389D01*
X8595639Y-6678389D02*
X8597996Y-6685460D01*
X8597996Y-6685460D02*
X8623923Y-6711387D01*
X8597996Y-6685460D02*
X8590925Y-6683103D01*
X8590925Y-6683103D02*
X8583854Y-6685460D01*
X8583854Y-6685460D02*
X8576783Y-6692531D01*
X8576783Y-6692531D02*
X8574426Y-6699602D01*
X8574426Y-6699602D02*
X8576783Y-6706673D01*
X8576783Y-6706673D02*
X8602710Y-6732600D01*
X8557926Y-6772669D02*
X8564998Y-6770312D01*
X8564998Y-6770312D02*
X8574426Y-6760884D01*
X8574426Y-6760884D02*
X8576783Y-6753813D01*
X8576783Y-6753813D02*
X8574426Y-6746742D01*
X8574426Y-6746742D02*
X8555569Y-6727886D01*
X8555569Y-6727886D02*
X8548498Y-6725529D01*
X8548498Y-6725529D02*
X8541427Y-6727886D01*
X8541427Y-6727886D02*
X8531999Y-6737314D01*
X8531999Y-6737314D02*
X8529642Y-6744385D01*
X8529642Y-6744385D02*
X8531999Y-6751456D01*
X8531999Y-6751456D02*
X8536713Y-6756170D01*
X8536713Y-6756170D02*
X8564998Y-6737314D01*
X9115865Y-6403449D02*
X9137078Y-6448232D01*
X9137078Y-6448232D02*
X9092294Y-6427019D01*
X9085223Y-6500087D02*
X9059296Y-6474159D01*
X9059296Y-6474159D02*
X9056939Y-6467088D01*
X9056939Y-6467088D02*
X9059296Y-6460017D01*
X9059296Y-6460017D02*
X9068724Y-6450589D01*
X9068724Y-6450589D02*
X9075795Y-6448232D01*
X9082866Y-6497730D02*
X9089937Y-6495373D01*
X9089937Y-6495373D02*
X9101722Y-6483587D01*
X9101722Y-6483587D02*
X9104080Y-6476516D01*
X9104080Y-6476516D02*
X9101722Y-6469445D01*
X9101722Y-6469445D02*
X9097008Y-6464731D01*
X9097008Y-6464731D02*
X9089937Y-6462374D01*
X9089937Y-6462374D02*
X9082866Y-6464731D01*
X9082866Y-6464731D02*
X9071081Y-6476516D01*
X9071081Y-6476516D02*
X9064010Y-6478873D01*
X9054582Y-6530728D02*
X9056939Y-6523657D01*
X9056939Y-6523657D02*
X9054582Y-6516586D01*
X9054582Y-6516586D02*
X9012156Y-6474159D01*
X9014513Y-6566083D02*
X9021584Y-6563726D01*
X9021584Y-6563726D02*
X9031012Y-6554298D01*
X9031012Y-6554298D02*
X9033369Y-6547227D01*
X9033369Y-6547227D02*
X9031012Y-6540156D01*
X9031012Y-6540156D02*
X9012156Y-6521300D01*
X9012156Y-6521300D02*
X9005085Y-6518943D01*
X9005085Y-6518943D02*
X8998013Y-6521300D01*
X8998013Y-6521300D02*
X8988585Y-6530728D01*
X8988585Y-6530728D02*
X8986228Y-6537799D01*
X8986228Y-6537799D02*
X8988585Y-6544870D01*
X8988585Y-6544870D02*
X8993299Y-6549584D01*
X8993299Y-6549584D02*
X9021584Y-6530728D01*
X8967372Y-6551941D02*
X8948516Y-6570797D01*
X8943802Y-6542513D02*
X8986228Y-6584939D01*
X8986228Y-6584939D02*
X8988585Y-6592010D01*
X8988585Y-6592010D02*
X8986228Y-6599082D01*
X8986228Y-6599082D02*
X8981514Y-6603796D01*
X8910804Y-6608510D02*
X8943802Y-6641508D01*
X8932017Y-6587296D02*
X8957944Y-6613224D01*
X8957944Y-6613224D02*
X8960301Y-6620295D01*
X8960301Y-6620295D02*
X8957944Y-6627366D01*
X8957944Y-6627366D02*
X8950873Y-6634437D01*
X8950873Y-6634437D02*
X8943802Y-6636794D01*
X8943802Y-6636794D02*
X8939088Y-6636794D01*
X8899019Y-6686291D02*
X8849521Y-6636794D01*
X8896662Y-6683934D02*
X8903733Y-6681577D01*
X8903733Y-6681577D02*
X8913161Y-6672149D01*
X8913161Y-6672149D02*
X8915518Y-6665078D01*
X8915518Y-6665078D02*
X8915518Y-6660364D01*
X8915518Y-6660364D02*
X8913161Y-6653293D01*
X8913161Y-6653293D02*
X8899019Y-6639151D01*
X8899019Y-6639151D02*
X8891947Y-6636794D01*
X8891947Y-6636794D02*
X8887233Y-6636794D01*
X8887233Y-6636794D02*
X8880162Y-6639151D01*
X8880162Y-6639151D02*
X8870734Y-6648579D01*
X8870734Y-6648579D02*
X8868377Y-6655650D01*
X8868377Y-6716933D02*
X8870734Y-6709862D01*
X8870734Y-6709862D02*
X8870734Y-6705148D01*
X8870734Y-6705148D02*
X8868377Y-6698076D01*
X8868377Y-6698076D02*
X8854235Y-6683934D01*
X8854235Y-6683934D02*
X8847164Y-6681577D01*
X8847164Y-6681577D02*
X8842450Y-6681577D01*
X8842450Y-6681577D02*
X8835379Y-6683934D01*
X8835379Y-6683934D02*
X8828308Y-6691005D01*
X8828308Y-6691005D02*
X8825951Y-6698076D01*
X8825951Y-6698076D02*
X8825951Y-6702790D01*
X8825951Y-6702790D02*
X8828308Y-6709862D01*
X8828308Y-6709862D02*
X8842450Y-6724004D01*
X8842450Y-6724004D02*
X8849521Y-6726361D01*
X8849521Y-6726361D02*
X8854235Y-6726361D01*
X8854235Y-6726361D02*
X8861306Y-6724004D01*
X8861306Y-6724004D02*
X8868377Y-6716933D01*
X8825951Y-6749931D02*
X8825951Y-6754645D01*
X8825951Y-6754645D02*
X8830665Y-6754645D01*
X8830665Y-6754645D02*
X8830665Y-6749931D01*
X8830665Y-6749931D02*
X8825951Y-6749931D01*
X8825951Y-6749931D02*
X8830665Y-6754645D01*
X8783525Y-6797071D02*
X8790596Y-6794714D01*
X8790596Y-6794714D02*
X8800024Y-6785286D01*
X8800024Y-6785286D02*
X8802381Y-6778215D01*
X8802381Y-6778215D02*
X8802381Y-6773501D01*
X8802381Y-6773501D02*
X8800024Y-6766430D01*
X8800024Y-6766430D02*
X8785882Y-6752288D01*
X8785882Y-6752288D02*
X8778810Y-6749931D01*
X8778810Y-6749931D02*
X8774096Y-6749931D01*
X8774096Y-6749931D02*
X8767025Y-6752288D01*
X8767025Y-6752288D02*
X8757597Y-6761716D01*
X8757597Y-6761716D02*
X8755240Y-6768787D01*
X8757597Y-6827713D02*
X8759954Y-6820642D01*
X8759954Y-6820642D02*
X8757597Y-6813571D01*
X8757597Y-6813571D02*
X8715171Y-6771144D01*
X8731670Y-6853640D02*
X8734027Y-6846569D01*
X8734027Y-6846569D02*
X8734027Y-6841855D01*
X8734027Y-6841855D02*
X8731670Y-6834784D01*
X8731670Y-6834784D02*
X8717528Y-6820642D01*
X8717528Y-6820642D02*
X8710457Y-6818285D01*
X8710457Y-6818285D02*
X8705743Y-6818285D01*
X8705743Y-6818285D02*
X8698672Y-6820642D01*
X8698672Y-6820642D02*
X8691601Y-6827713D01*
X8691601Y-6827713D02*
X8689244Y-6834784D01*
X8689244Y-6834784D02*
X8689244Y-6839498D01*
X8689244Y-6839498D02*
X8691601Y-6846569D01*
X8691601Y-6846569D02*
X8705743Y-6860711D01*
X8705743Y-6860711D02*
X8712814Y-6863068D01*
X8712814Y-6863068D02*
X8717528Y-6863068D01*
X8717528Y-6863068D02*
X8724599Y-6860711D01*
X8724599Y-6860711D02*
X8731670Y-6853640D01*
X8639746Y-6879567D02*
X8672744Y-6912565D01*
X8660959Y-6858354D02*
X8686887Y-6884281D01*
X8686887Y-6884281D02*
X8689244Y-6891352D01*
X8689244Y-6891352D02*
X8686887Y-6898423D01*
X8686887Y-6898423D02*
X8679816Y-6905494D01*
X8679816Y-6905494D02*
X8672744Y-6907851D01*
X8672744Y-6907851D02*
X8668030Y-6907851D01*
X8627961Y-6957349D02*
X8578464Y-6907851D01*
X8625604Y-6954992D02*
X8632675Y-6952635D01*
X8632675Y-6952635D02*
X8642103Y-6943207D01*
X8642103Y-6943207D02*
X8644460Y-6936136D01*
X8644460Y-6936136D02*
X8644460Y-6931422D01*
X8644460Y-6931422D02*
X8642103Y-6924351D01*
X8642103Y-6924351D02*
X8627961Y-6910208D01*
X8627961Y-6910208D02*
X8620890Y-6907851D01*
X8620890Y-6907851D02*
X8616176Y-6907851D01*
X8616176Y-6907851D02*
X8609105Y-6910208D01*
X8609105Y-6910208D02*
X8599677Y-6919636D01*
X8599677Y-6919636D02*
X8597320Y-6926708D01*
D11*
X9564643Y-9019620D02*
X9550357Y-9024382D01*
X9550357Y-9024382D02*
X9526548Y-9024382D01*
X9526548Y-9024382D02*
X9517024Y-9019620D01*
X9517024Y-9019620D02*
X9512262Y-9014858D01*
X9512262Y-9014858D02*
X9507500Y-9005334D01*
X9507500Y-9005334D02*
X9507500Y-8995810D01*
X9507500Y-8995810D02*
X9512262Y-8986287D01*
X9512262Y-8986287D02*
X9517024Y-8981525D01*
X9517024Y-8981525D02*
X9526548Y-8976763D01*
X9526548Y-8976763D02*
X9545595Y-8972001D01*
X9545595Y-8972001D02*
X9555119Y-8967239D01*
X9555119Y-8967239D02*
X9559881Y-8962477D01*
X9559881Y-8962477D02*
X9564643Y-8952953D01*
X9564643Y-8952953D02*
X9564643Y-8943430D01*
X9564643Y-8943430D02*
X9559881Y-8933906D01*
X9559881Y-8933906D02*
X9555119Y-8929144D01*
X9555119Y-8929144D02*
X9545595Y-8924382D01*
X9545595Y-8924382D02*
X9521786Y-8924382D01*
X9521786Y-8924382D02*
X9507500Y-8929144D01*
X9426548Y-9019620D02*
X9436071Y-9024382D01*
X9436071Y-9024382D02*
X9455119Y-9024382D01*
X9455119Y-9024382D02*
X9464643Y-9019620D01*
X9464643Y-9019620D02*
X9469405Y-9010096D01*
X9469405Y-9010096D02*
X9469405Y-8972001D01*
X9469405Y-8972001D02*
X9464643Y-8962477D01*
X9464643Y-8962477D02*
X9455119Y-8957715D01*
X9455119Y-8957715D02*
X9436071Y-8957715D01*
X9436071Y-8957715D02*
X9426548Y-8962477D01*
X9426548Y-8962477D02*
X9421786Y-8972001D01*
X9421786Y-8972001D02*
X9421786Y-8981525D01*
X9421786Y-8981525D02*
X9469405Y-8991049D01*
X9378929Y-9024382D02*
X9378929Y-8957715D01*
X9378929Y-8976763D02*
X9374167Y-8967239D01*
X9374167Y-8967239D02*
X9369405Y-8962477D01*
X9369405Y-8962477D02*
X9359881Y-8957715D01*
X9359881Y-8957715D02*
X9350357Y-8957715D01*
X9317024Y-9024382D02*
X9317024Y-8957715D01*
X9317024Y-8924382D02*
X9321786Y-8929144D01*
X9321786Y-8929144D02*
X9317024Y-8933906D01*
X9317024Y-8933906D02*
X9312262Y-8929144D01*
X9312262Y-8929144D02*
X9317024Y-8924382D01*
X9317024Y-8924382D02*
X9317024Y-8933906D01*
X9226548Y-9024382D02*
X9226548Y-8972001D01*
X9226548Y-8972001D02*
X9231310Y-8962477D01*
X9231310Y-8962477D02*
X9240833Y-8957715D01*
X9240833Y-8957715D02*
X9259881Y-8957715D01*
X9259881Y-8957715D02*
X9269405Y-8962477D01*
X9226548Y-9019620D02*
X9236071Y-9024382D01*
X9236071Y-9024382D02*
X9259881Y-9024382D01*
X9259881Y-9024382D02*
X9269405Y-9019620D01*
X9269405Y-9019620D02*
X9274167Y-9010096D01*
X9274167Y-9010096D02*
X9274167Y-9000572D01*
X9274167Y-9000572D02*
X9269405Y-8991049D01*
X9269405Y-8991049D02*
X9259881Y-8986287D01*
X9259881Y-8986287D02*
X9236071Y-8986287D01*
X9236071Y-8986287D02*
X9226548Y-8981525D01*
X9164643Y-9024382D02*
X9174167Y-9019620D01*
X9174167Y-9019620D02*
X9178929Y-9010096D01*
X9178929Y-9010096D02*
X9178929Y-8924382D01*
X9050357Y-9024382D02*
X9050357Y-8924382D01*
X9050357Y-8924382D02*
X8993214Y-9024382D01*
X8993214Y-9024382D02*
X8993214Y-8924382D01*
X8931309Y-9024382D02*
X8940833Y-9019620D01*
X8940833Y-9019620D02*
X8945595Y-9014858D01*
X8945595Y-9014858D02*
X8950357Y-9005334D01*
X8950357Y-9005334D02*
X8950357Y-8976763D01*
X8950357Y-8976763D02*
X8945595Y-8967239D01*
X8945595Y-8967239D02*
X8940833Y-8962477D01*
X8940833Y-8962477D02*
X8931309Y-8957715D01*
X8931309Y-8957715D02*
X8917024Y-8957715D01*
X8917024Y-8957715D02*
X8907500Y-8962477D01*
X8907500Y-8962477D02*
X8902738Y-8967239D01*
X8902738Y-8967239D02*
X8897976Y-8976763D01*
X8897976Y-8976763D02*
X8897976Y-9005334D01*
X8897976Y-9005334D02*
X8902738Y-9014858D01*
X8902738Y-9014858D02*
X8907500Y-9019620D01*
X8907500Y-9019620D02*
X8917024Y-9024382D01*
X8917024Y-9024382D02*
X8931309Y-9024382D01*
X8855119Y-9014858D02*
X8850357Y-9019620D01*
X8850357Y-9019620D02*
X8855119Y-9024382D01*
X8855119Y-9024382D02*
X8859881Y-9019620D01*
X8859881Y-9019620D02*
X8855119Y-9014858D01*
X8855119Y-9014858D02*
X8855119Y-9024382D01*
X6095976Y-4426982D02*
X6095976Y-4374601D01*
X6095976Y-4374601D02*
X6100738Y-4365077D01*
X6100738Y-4365077D02*
X6110262Y-4360315D01*
X6110262Y-4360315D02*
X6129309Y-4360315D01*
X6129309Y-4360315D02*
X6138833Y-4365077D01*
X6095976Y-4422220D02*
X6105500Y-4426982D01*
X6105500Y-4426982D02*
X6129309Y-4426982D01*
X6129309Y-4426982D02*
X6138833Y-4422220D01*
X6138833Y-4422220D02*
X6143595Y-4412696D01*
X6143595Y-4412696D02*
X6143595Y-4403172D01*
X6143595Y-4403172D02*
X6138833Y-4393649D01*
X6138833Y-4393649D02*
X6129309Y-4388887D01*
X6129309Y-4388887D02*
X6105500Y-4388887D01*
X6105500Y-4388887D02*
X6095976Y-4384125D01*
X6010262Y-4422220D02*
X6019786Y-4426982D01*
X6019786Y-4426982D02*
X6038833Y-4426982D01*
X6038833Y-4426982D02*
X6048357Y-4422220D01*
X6048357Y-4422220D02*
X6053119Y-4412696D01*
X6053119Y-4412696D02*
X6053119Y-4374601D01*
X6053119Y-4374601D02*
X6048357Y-4365077D01*
X6048357Y-4365077D02*
X6038833Y-4360315D01*
X6038833Y-4360315D02*
X6019786Y-4360315D01*
X6019786Y-4360315D02*
X6010262Y-4365077D01*
X6010262Y-4365077D02*
X6005500Y-4374601D01*
X6005500Y-4374601D02*
X6005500Y-4384125D01*
X6005500Y-4384125D02*
X6053119Y-4393649D01*
X5962643Y-4360315D02*
X5962643Y-4460315D01*
X5962643Y-4365077D02*
X5953119Y-4360315D01*
X5953119Y-4360315D02*
X5934071Y-4360315D01*
X5934071Y-4360315D02*
X5924548Y-4365077D01*
X5924548Y-4365077D02*
X5919786Y-4369839D01*
X5919786Y-4369839D02*
X5915024Y-4379363D01*
X5915024Y-4379363D02*
X5915024Y-4407934D01*
X5915024Y-4407934D02*
X5919786Y-4417458D01*
X5919786Y-4417458D02*
X5924548Y-4422220D01*
X5924548Y-4422220D02*
X5934071Y-4426982D01*
X5934071Y-4426982D02*
X5953119Y-4426982D01*
X5953119Y-4426982D02*
X5962643Y-4422220D01*
X5805500Y-4360315D02*
X5781690Y-4426982D01*
X5781690Y-4426982D02*
X5757881Y-4360315D01*
X5667405Y-4426982D02*
X5724547Y-4426982D01*
X5695976Y-4426982D02*
X5695976Y-4326982D01*
X5695976Y-4326982D02*
X5705500Y-4341268D01*
X5705500Y-4341268D02*
X5715024Y-4350791D01*
X5715024Y-4350791D02*
X5724547Y-4355553D01*
%LPC*%
D13*
X5397500Y-6616700D03*
D14*
X5397500Y-6362700D03*
X5651500Y-6616700D03*
X5651500Y-6362700D03*
X5905500Y-6616700D03*
X5905500Y-6362700D03*
X6159500Y-6616700D03*
X6159500Y-6362700D03*
X6413500Y-6616700D03*
X6413500Y-6362700D03*
D15*
X6255500Y-4706900D03*
D16*
X6005500Y-4706900D03*
X5805500Y-4706900D03*
X5555500Y-4706900D03*
D17*
X6562500Y-4406900D03*
X5248500Y-4406900D03*
D18*
X6603900Y-7035800D03*
D19*
X6403900Y-7035800D03*
X6203900Y-7035800D03*
X6003900Y-7035800D03*
X5803900Y-7035800D03*
X5603900Y-7035800D03*
X5403900Y-7035800D03*
X5203900Y-7035800D03*
D20*
X5322200Y-5779100D03*
X5322200Y-5219100D03*
X5537200Y-5499100D03*
D13*
X6175800Y-5824100D03*
D21*
X6175800Y-5174100D03*
X6625800Y-5824100D03*
X6625800Y-5174100D03*
%LPD*%
M02*
