%TF.GenerationSoftware,KiCad,Pcbnew,7.0.7*%
%TF.CreationDate,2023-09-15T20:16:18+02:00*%
%TF.ProjectId,DreameBreakout,44726561-6d65-4427-9265-616b6f75742e,rev?*%
%TF.SameCoordinates,Original*%
%TF.FileFunction,Other,User*%
%FSLAX45Y45*%
G04 Gerber Fmt 4.5, Leading zero omitted, Abs format (unit mm)*
G04 Created by KiCad (PCBNEW 7.0.7) date 2023-09-15 20:16:18*
%MOMM*%
%LPD*%
G01*
G04 APERTURE LIST*
%TA.AperFunction,Profile*%
%ADD10C,0.100000*%
%TD*%
%ADD11C,0.050000*%
G04 APERTURE END LIST*
D10*
X5000000Y-4065500D02*
X6800000Y-4065500D01*
X6800000Y-7332600D01*
X5000000Y-7332600D01*
X5000000Y-4065500D01*
D11*
X5217500Y-6796700D02*
X6592500Y-6796700D01*
X6592500Y-6796700D02*
X6592500Y-6181700D01*
X5217500Y-6181700D02*
X5217500Y-6796700D01*
X6592500Y-6181700D02*
X5217500Y-6181700D01*
X6760500Y-4601900D02*
X6655500Y-4601900D01*
X6760500Y-4211900D02*
X6760500Y-4601900D01*
X6655500Y-4906900D02*
X5155500Y-4906900D01*
X6655500Y-4601900D02*
X6655500Y-4906900D01*
X6655500Y-4211900D02*
X6760500Y-4211900D01*
X6655500Y-4136900D02*
X6655500Y-4211900D01*
X5155500Y-4906900D02*
X5155500Y-4601900D01*
X5155500Y-4601900D02*
X5050500Y-4601900D01*
X5155500Y-4211900D02*
X5155500Y-4136900D01*
X5155500Y-4136900D02*
X6655500Y-4136900D01*
X5050500Y-4601900D02*
X5050500Y-4211900D01*
X5050500Y-4211900D02*
X5155500Y-4211900D01*
X6753900Y-6885800D02*
X5053900Y-6885800D01*
X5053900Y-6885800D02*
X5053900Y-7805800D01*
X6753900Y-7805800D02*
X6753900Y-6885800D01*
X5053900Y-7805800D02*
X6753900Y-7805800D01*
X5074700Y-5924100D02*
X5074700Y-5074100D01*
X5617200Y-5924100D02*
X5074700Y-5924100D01*
X5074700Y-5074100D02*
X5617200Y-5074100D01*
X5617200Y-5074100D02*
X5617200Y-5924100D01*
X6065800Y-5934100D02*
X6735800Y-5934100D01*
X6065800Y-5934100D02*
X6065800Y-5064100D01*
X6735800Y-5934100D02*
X6735800Y-5064100D01*
X6735800Y-5064100D02*
X6065800Y-5064100D01*
M02*
