M48
; DRILL file {KiCad 7.0.7} date Fri 15 Sep 2023 08:16:18 PM CEST
; FORMAT={-:-/ absolute / metric / decimal}
; #@! TF.CreationDate,2023-09-15T20:16:18+02:00
; #@! TF.GenerationSoftware,Kicad,Pcbnew,7.0.7
; #@! TF.FileFunction,MixedPlating,1,2
FMAT,2
METRIC
; #@! TA.AperFunction,Plated,PTH,ViaDrill
T1C0.500
; #@! TA.AperFunction,Plated,PTH,ComponentDrill
T2C0.500
; #@! TA.AperFunction,Plated,PTH,ComponentDrill
T3C0.800
; #@! TA.AperFunction,Plated,PTH,ComponentDrill
T4C0.920
; #@! TA.AperFunction,Plated,PTH,ComponentDrill
T5C1.000
; #@! TA.AperFunction,Plated,PTH,ComponentDrill
T6C2.330
%
G90
G05
T1
X65.378Y-59.844
X66.25Y-47.75
X67.183Y-60.452
T3
X52.039Y-70.358
X54.039Y-70.358
X56.039Y-70.358
X58.039Y-70.358
X60.039Y-70.358
X62.039Y-70.358
X64.039Y-70.358
X66.039Y-70.358
T4
X55.555Y-47.069
X58.055Y-47.069
X60.055Y-47.069
X62.555Y-47.069
T5
X53.975Y-63.627
X53.975Y-66.167
X56.515Y-63.627
X56.515Y-66.167
X59.055Y-63.627
X59.055Y-66.167
X61.595Y-63.627
X61.595Y-66.167
X61.758Y-51.741
X61.758Y-58.241
X64.135Y-63.627
X64.135Y-66.167
X66.258Y-51.741
X66.258Y-58.241
T6
X52.485Y-44.069
X65.625Y-44.069
T2
G00X53.222Y-52.541
M15
G01X53.222Y-51.841
M16
G05
G00X53.222Y-58.141
M15
G01X53.222Y-57.441
M16
G05
G00X55.372Y-55.541
M15
G01X55.372Y-54.441
M16
G05
T0
M30
